<?xml version="1.0" encoding="utf-8" standalone="no"?>
<!DOCTYPE svg PUBLIC "-//W3C//DTD SVG 1.1//EN"
  "http://www.w3.org/Graphics/SVG/1.1/DTD/svg11.dtd">
<svg xmlns:xlink="http://www.w3.org/1999/xlink" width="792pt" height="288pt" viewBox="0 0 792 288" xmlns="http://www.w3.org/2000/svg" version="1.1">
 <metadata>
  <rdf:RDF xmlns:dc="http://purl.org/dc/elements/1.1/" xmlns:cc="http://creativecommons.org/ns#" xmlns:rdf="http://www.w3.org/1999/02/22-rdf-syntax-ns#">
   <cc:Work>
    <dc:type rdf:resource="http://purl.org/dc/dcmitype/StillImage"/>
    <dc:date>2026-02-27T10:51:20.684014</dc:date>
    <dc:format>image/svg+xml</dc:format>
    <dc:creator>
     <cc:Agent>
      <dc:title>Matplotlib v3.10.0, https://matplotlib.org/</dc:title>
     </cc:Agent>
    </dc:creator>
   </cc:Work>
  </rdf:RDF>
 </metadata>
 <defs>
  <style type="text/css">*{stroke-linejoin: round; stroke-linecap: butt}</style>
 </defs>
 <g id="figure_1">
  <g id="patch_1">
   <path d="M 0 288 
L 792 288 
L 792 0 
L 0 0 
z
" style="fill: #ffffff"/>
  </g>
  <g id="axes_1">
   <g id="patch_2">
    <path d="M 52.56 240.55875 
L 383.265 240.55875 
L 383.265 27.6 
L 52.56 27.6 
z
" style="fill: #ffffff"/>
   </g>
   <g id="matplotlib.axis_1">
    <g id="xtick_1">
     <g id="text_1">
      <!-- pos -->
      <g style="fill: #262626" transform="translate(98.810469 257.932344) scale(0.11 -0.11)">
       <defs>
        <path id="ArialMT-70" d="M 422 -1272 
L 422 3319 
L 934 3319 
L 934 2888 
Q 1116 3141 1344 3267 
Q 1572 3394 1897 3394 
Q 2322 3394 2647 3175 
Q 2972 2956 3137 2557 
Q 3303 2159 3303 1684 
Q 3303 1175 3120 767 
Q 2938 359 2589 142 
Q 2241 -75 1856 -75 
Q 1575 -75 1351 44 
Q 1128 163 984 344 
L 984 -1272 
L 422 -1272 
z
M 931 1641 
Q 931 1000 1190 694 
Q 1450 388 1819 388 
Q 2194 388 2461 705 
Q 2728 1022 2728 1688 
Q 2728 2322 2467 2637 
Q 2206 2953 1844 2953 
Q 1484 2953 1207 2617 
Q 931 2281 931 1641 
z
" transform="scale(0.015625)"/>
        <path id="ArialMT-6f" d="M 213 1659 
Q 213 2581 725 3025 
Q 1153 3394 1769 3394 
Q 2453 3394 2887 2945 
Q 3322 2497 3322 1706 
Q 3322 1066 3130 698 
Q 2938 331 2570 128 
Q 2203 -75 1769 -75 
Q 1072 -75 642 372 
Q 213 819 213 1659 
z
M 791 1659 
Q 791 1022 1069 705 
Q 1347 388 1769 388 
Q 2188 388 2466 706 
Q 2744 1025 2744 1678 
Q 2744 2294 2464 2611 
Q 2184 2928 1769 2928 
Q 1347 2928 1069 2612 
Q 791 2297 791 1659 
z
" transform="scale(0.015625)"/>
        <path id="ArialMT-73" d="M 197 991 
L 753 1078 
Q 800 744 1014 566 
Q 1228 388 1613 388 
Q 2000 388 2187 545 
Q 2375 703 2375 916 
Q 2375 1106 2209 1216 
Q 2094 1291 1634 1406 
Q 1016 1563 777 1677 
Q 538 1791 414 1992 
Q 291 2194 291 2438 
Q 291 2659 392 2848 
Q 494 3038 669 3163 
Q 800 3259 1026 3326 
Q 1253 3394 1513 3394 
Q 1903 3394 2198 3281 
Q 2494 3169 2634 2976 
Q 2775 2784 2828 2463 
L 2278 2388 
Q 2241 2644 2061 2787 
Q 1881 2931 1553 2931 
Q 1166 2931 1000 2803 
Q 834 2675 834 2503 
Q 834 2394 903 2306 
Q 972 2216 1119 2156 
Q 1203 2125 1616 2013 
Q 2213 1853 2448 1751 
Q 2684 1650 2818 1456 
Q 2953 1263 2953 975 
Q 2953 694 2789 445 
Q 2625 197 2315 61 
Q 2006 -75 1616 -75 
Q 969 -75 630 194 
Q 291 463 197 991 
z
" transform="scale(0.015625)"/>
       </defs>
       <use xlink:href="#ArialMT-70"/>
       <use xlink:href="#ArialMT-6f" transform="translate(55.615234 0)"/>
       <use xlink:href="#ArialMT-73" transform="translate(111.230469 0)"/>
      </g>
     </g>
    </g>
    <g id="xtick_2">
     <g id="text_2">
      <!-- neg -->
      <g style="fill: #262626" transform="translate(208.736953 257.803438) scale(0.11 -0.11)">
       <defs>
        <path id="ArialMT-6e" d="M 422 0 
L 422 3319 
L 928 3319 
L 928 2847 
Q 1294 3394 1984 3394 
Q 2284 3394 2536 3286 
Q 2788 3178 2913 3003 
Q 3038 2828 3088 2588 
Q 3119 2431 3119 2041 
L 3119 0 
L 2556 0 
L 2556 2019 
Q 2556 2363 2490 2533 
Q 2425 2703 2258 2804 
Q 2091 2906 1866 2906 
Q 1506 2906 1245 2678 
Q 984 2450 984 1813 
L 984 0 
L 422 0 
z
" transform="scale(0.015625)"/>
        <path id="ArialMT-65" d="M 2694 1069 
L 3275 997 
Q 3138 488 2766 206 
Q 2394 -75 1816 -75 
Q 1088 -75 661 373 
Q 234 822 234 1631 
Q 234 2469 665 2931 
Q 1097 3394 1784 3394 
Q 2450 3394 2872 2941 
Q 3294 2488 3294 1666 
Q 3294 1616 3291 1516 
L 816 1516 
Q 847 969 1125 678 
Q 1403 388 1819 388 
Q 2128 388 2347 550 
Q 2566 713 2694 1069 
z
M 847 1978 
L 2700 1978 
Q 2663 2397 2488 2606 
Q 2219 2931 1791 2931 
Q 1403 2931 1139 2672 
Q 875 2413 847 1978 
z
" transform="scale(0.015625)"/>
        <path id="ArialMT-67" d="M 319 -275 
L 866 -356 
Q 900 -609 1056 -725 
Q 1266 -881 1628 -881 
Q 2019 -881 2231 -725 
Q 2444 -569 2519 -288 
Q 2563 -116 2559 434 
Q 2191 0 1641 0 
Q 956 0 581 494 
Q 206 988 206 1678 
Q 206 2153 378 2554 
Q 550 2956 876 3175 
Q 1203 3394 1644 3394 
Q 2231 3394 2613 2919 
L 2613 3319 
L 3131 3319 
L 3131 450 
Q 3131 -325 2973 -648 
Q 2816 -972 2473 -1159 
Q 2131 -1347 1631 -1347 
Q 1038 -1347 672 -1080 
Q 306 -813 319 -275 
z
M 784 1719 
Q 784 1066 1043 766 
Q 1303 466 1694 466 
Q 2081 466 2343 764 
Q 2606 1063 2606 1700 
Q 2606 2309 2336 2618 
Q 2066 2928 1684 2928 
Q 1309 2928 1046 2623 
Q 784 2319 784 1719 
z
" transform="scale(0.015625)"/>
       </defs>
       <use xlink:href="#ArialMT-6e"/>
       <use xlink:href="#ArialMT-65" transform="translate(55.615234 0)"/>
       <use xlink:href="#ArialMT-67" transform="translate(111.230469 0)"/>
      </g>
     </g>
    </g>
    <g id="xtick_3">
     <g id="text_3">
      <!-- neg_pseudo -->
      <g style="fill: #262626" transform="translate(297.870859 257.932344) scale(0.11 -0.11)">
       <defs>
        <path id="ArialMT-5f" d="M -97 -1272 
L -97 -866 
L 3631 -866 
L 3631 -1272 
L -97 -1272 
z
" transform="scale(0.015625)"/>
        <path id="ArialMT-75" d="M 2597 0 
L 2597 488 
Q 2209 -75 1544 -75 
Q 1250 -75 995 37 
Q 741 150 617 320 
Q 494 491 444 738 
Q 409 903 409 1263 
L 409 3319 
L 972 3319 
L 972 1478 
Q 972 1038 1006 884 
Q 1059 663 1231 536 
Q 1403 409 1656 409 
Q 1909 409 2131 539 
Q 2353 669 2445 892 
Q 2538 1116 2538 1541 
L 2538 3319 
L 3100 3319 
L 3100 0 
L 2597 0 
z
" transform="scale(0.015625)"/>
        <path id="ArialMT-64" d="M 2575 0 
L 2575 419 
Q 2259 -75 1647 -75 
Q 1250 -75 917 144 
Q 584 363 401 755 
Q 219 1147 219 1656 
Q 219 2153 384 2558 
Q 550 2963 881 3178 
Q 1213 3394 1622 3394 
Q 1922 3394 2156 3267 
Q 2391 3141 2538 2938 
L 2538 4581 
L 3097 4581 
L 3097 0 
L 2575 0 
z
M 797 1656 
Q 797 1019 1065 703 
Q 1334 388 1700 388 
Q 2069 388 2326 689 
Q 2584 991 2584 1609 
Q 2584 2291 2321 2609 
Q 2059 2928 1675 2928 
Q 1300 2928 1048 2622 
Q 797 2316 797 1656 
z
" transform="scale(0.015625)"/>
       </defs>
       <use xlink:href="#ArialMT-6e"/>
       <use xlink:href="#ArialMT-65" transform="translate(55.615234 0)"/>
       <use xlink:href="#ArialMT-67" transform="translate(111.230469 0)"/>
       <use xlink:href="#ArialMT-5f" transform="translate(166.845703 0)"/>
       <use xlink:href="#ArialMT-70" transform="translate(222.460938 0)"/>
       <use xlink:href="#ArialMT-73" transform="translate(278.076172 0)"/>
       <use xlink:href="#ArialMT-65" transform="translate(328.076172 0)"/>
       <use xlink:href="#ArialMT-75" transform="translate(383.691406 0)"/>
       <use xlink:href="#ArialMT-64" transform="translate(439.306641 0)"/>
       <use xlink:href="#ArialMT-6f" transform="translate(494.921875 0)"/>
      </g>
     </g>
    </g>
    <g id="text_4">
     <!-- Group -->
     <g style="fill: #262626" transform="translate(201.238125 272.983125) scale(0.12 -0.12)">
      <defs>
       <path id="ArialMT-47" d="M 2638 1797 
L 2638 2334 
L 4578 2338 
L 4578 638 
Q 4131 281 3656 101 
Q 3181 -78 2681 -78 
Q 2006 -78 1454 211 
Q 903 500 622 1047 
Q 341 1594 341 2269 
Q 341 2938 620 3517 
Q 900 4097 1425 4378 
Q 1950 4659 2634 4659 
Q 3131 4659 3532 4498 
Q 3934 4338 4162 4050 
Q 4391 3763 4509 3300 
L 3963 3150 
Q 3859 3500 3706 3700 
Q 3553 3900 3268 4020 
Q 2984 4141 2638 4141 
Q 2222 4141 1919 4014 
Q 1616 3888 1430 3681 
Q 1244 3475 1141 3228 
Q 966 2803 966 2306 
Q 966 1694 1177 1281 
Q 1388 869 1791 669 
Q 2194 469 2647 469 
Q 3041 469 3416 620 
Q 3791 772 3984 944 
L 3984 1797 
L 2638 1797 
z
" transform="scale(0.015625)"/>
       <path id="ArialMT-72" d="M 416 0 
L 416 3319 
L 922 3319 
L 922 2816 
Q 1116 3169 1280 3281 
Q 1444 3394 1641 3394 
Q 1925 3394 2219 3213 
L 2025 2691 
Q 1819 2813 1613 2813 
Q 1428 2813 1281 2702 
Q 1134 2591 1072 2394 
Q 978 2094 978 1738 
L 978 0 
L 416 0 
z
" transform="scale(0.015625)"/>
      </defs>
      <use xlink:href="#ArialMT-47"/>
      <use xlink:href="#ArialMT-72" transform="translate(77.783203 0)"/>
      <use xlink:href="#ArialMT-6f" transform="translate(111.083984 0)"/>
      <use xlink:href="#ArialMT-75" transform="translate(166.699219 0)"/>
      <use xlink:href="#ArialMT-70" transform="translate(222.314453 0)"/>
     </g>
    </g>
   </g>
   <g id="matplotlib.axis_2">
    <g id="ytick_1">
     <g id="line2d_1">
      <path d="M 52.56 220.843328 
L 383.265 220.843328 
" clip-path="url(#p5c0ec792d0)" style="fill: none; stroke: #cccccc; stroke-linecap: round"/>
     </g>
     <g id="text_5">
      <!-- 0.0 -->
      <g style="fill: #262626" transform="translate(27.77 224.780125) scale(0.11 -0.11)">
       <defs>
        <path id="ArialMT-30" d="M 266 2259 
Q 266 3072 433 3567 
Q 600 4063 929 4331 
Q 1259 4600 1759 4600 
Q 2128 4600 2406 4451 
Q 2684 4303 2865 4023 
Q 3047 3744 3150 3342 
Q 3253 2941 3253 2259 
Q 3253 1453 3087 958 
Q 2922 463 2592 192 
Q 2263 -78 1759 -78 
Q 1097 -78 719 397 
Q 266 969 266 2259 
z
M 844 2259 
Q 844 1131 1108 757 
Q 1372 384 1759 384 
Q 2147 384 2411 759 
Q 2675 1134 2675 2259 
Q 2675 3391 2411 3762 
Q 2147 4134 1753 4134 
Q 1366 4134 1134 3806 
Q 844 3388 844 2259 
z
" transform="scale(0.015625)"/>
        <path id="ArialMT-2e" d="M 581 0 
L 581 641 
L 1222 641 
L 1222 0 
L 581 0 
z
" transform="scale(0.015625)"/>
       </defs>
       <use xlink:href="#ArialMT-30"/>
       <use xlink:href="#ArialMT-2e" transform="translate(55.615234 0)"/>
       <use xlink:href="#ArialMT-30" transform="translate(83.398438 0)"/>
      </g>
     </g>
    </g>
    <g id="ytick_2">
     <g id="line2d_2">
      <path d="M 52.56 186.137747 
L 383.265 186.137747 
" clip-path="url(#p5c0ec792d0)" style="fill: none; stroke: #cccccc; stroke-linecap: round"/>
     </g>
     <g id="text_6">
      <!-- 0.2 -->
      <g style="fill: #262626" transform="translate(27.77 190.074544) scale(0.11 -0.11)">
       <defs>
        <path id="ArialMT-32" d="M 3222 541 
L 3222 0 
L 194 0 
Q 188 203 259 391 
Q 375 700 629 1000 
Q 884 1300 1366 1694 
Q 2113 2306 2375 2664 
Q 2638 3022 2638 3341 
Q 2638 3675 2398 3904 
Q 2159 4134 1775 4134 
Q 1369 4134 1125 3890 
Q 881 3647 878 3216 
L 300 3275 
Q 359 3922 746 4261 
Q 1134 4600 1788 4600 
Q 2447 4600 2831 4234 
Q 3216 3869 3216 3328 
Q 3216 3053 3103 2787 
Q 2991 2522 2730 2228 
Q 2469 1934 1863 1422 
Q 1356 997 1212 845 
Q 1069 694 975 541 
L 3222 541 
z
" transform="scale(0.015625)"/>
       </defs>
       <use xlink:href="#ArialMT-30"/>
       <use xlink:href="#ArialMT-2e" transform="translate(55.615234 0)"/>
       <use xlink:href="#ArialMT-32" transform="translate(83.398438 0)"/>
      </g>
     </g>
    </g>
    <g id="ytick_3">
     <g id="line2d_3">
      <path d="M 52.56 151.432166 
L 383.265 151.432166 
" clip-path="url(#p5c0ec792d0)" style="fill: none; stroke: #cccccc; stroke-linecap: round"/>
     </g>
     <g id="text_7">
      <!-- 0.4 -->
      <g style="fill: #262626" transform="translate(27.77 155.368963) scale(0.11 -0.11)">
       <defs>
        <path id="ArialMT-34" d="M 2069 0 
L 2069 1097 
L 81 1097 
L 81 1613 
L 2172 4581 
L 2631 4581 
L 2631 1613 
L 3250 1613 
L 3250 1097 
L 2631 1097 
L 2631 0 
L 2069 0 
z
M 2069 1613 
L 2069 3678 
L 634 1613 
L 2069 1613 
z
" transform="scale(0.015625)"/>
       </defs>
       <use xlink:href="#ArialMT-30"/>
       <use xlink:href="#ArialMT-2e" transform="translate(55.615234 0)"/>
       <use xlink:href="#ArialMT-34" transform="translate(83.398438 0)"/>
      </g>
     </g>
    </g>
    <g id="ytick_4">
     <g id="line2d_4">
      <path d="M 52.56 116.726584 
L 383.265 116.726584 
" clip-path="url(#p5c0ec792d0)" style="fill: none; stroke: #cccccc; stroke-linecap: round"/>
     </g>
     <g id="text_8">
      <!-- 0.6 -->
      <g style="fill: #262626" transform="translate(27.77 120.663381) scale(0.11 -0.11)">
       <defs>
        <path id="ArialMT-36" d="M 3184 3459 
L 2625 3416 
Q 2550 3747 2413 3897 
Q 2184 4138 1850 4138 
Q 1581 4138 1378 3988 
Q 1113 3794 959 3422 
Q 806 3050 800 2363 
Q 1003 2672 1297 2822 
Q 1591 2972 1913 2972 
Q 2475 2972 2870 2558 
Q 3266 2144 3266 1488 
Q 3266 1056 3080 686 
Q 2894 316 2569 119 
Q 2244 -78 1831 -78 
Q 1128 -78 684 439 
Q 241 956 241 2144 
Q 241 3472 731 4075 
Q 1159 4600 1884 4600 
Q 2425 4600 2770 4297 
Q 3116 3994 3184 3459 
z
M 888 1484 
Q 888 1194 1011 928 
Q 1134 663 1356 523 
Q 1578 384 1822 384 
Q 2178 384 2434 671 
Q 2691 959 2691 1453 
Q 2691 1928 2437 2201 
Q 2184 2475 1800 2475 
Q 1419 2475 1153 2201 
Q 888 1928 888 1484 
z
" transform="scale(0.015625)"/>
       </defs>
       <use xlink:href="#ArialMT-30"/>
       <use xlink:href="#ArialMT-2e" transform="translate(55.615234 0)"/>
       <use xlink:href="#ArialMT-36" transform="translate(83.398438 0)"/>
      </g>
     </g>
    </g>
    <g id="ytick_5">
     <g id="line2d_5">
      <path d="M 52.56 82.021003 
L 383.265 82.021003 
" clip-path="url(#p5c0ec792d0)" style="fill: none; stroke: #cccccc; stroke-linecap: round"/>
     </g>
     <g id="text_9">
      <!-- 0.8 -->
      <g style="fill: #262626" transform="translate(27.77 85.9578) scale(0.11 -0.11)">
       <defs>
        <path id="ArialMT-38" d="M 1131 2484 
Q 781 2613 612 2850 
Q 444 3088 444 3419 
Q 444 3919 803 4259 
Q 1163 4600 1759 4600 
Q 2359 4600 2725 4251 
Q 3091 3903 3091 3403 
Q 3091 3084 2923 2848 
Q 2756 2613 2416 2484 
Q 2838 2347 3058 2040 
Q 3278 1734 3278 1309 
Q 3278 722 2862 322 
Q 2447 -78 1769 -78 
Q 1091 -78 675 323 
Q 259 725 259 1325 
Q 259 1772 486 2073 
Q 713 2375 1131 2484 
z
M 1019 3438 
Q 1019 3113 1228 2906 
Q 1438 2700 1772 2700 
Q 2097 2700 2305 2904 
Q 2513 3109 2513 3406 
Q 2513 3716 2298 3927 
Q 2084 4138 1766 4138 
Q 1444 4138 1231 3931 
Q 1019 3725 1019 3438 
z
M 838 1322 
Q 838 1081 952 856 
Q 1066 631 1291 507 
Q 1516 384 1775 384 
Q 2178 384 2440 643 
Q 2703 903 2703 1303 
Q 2703 1709 2433 1975 
Q 2163 2241 1756 2241 
Q 1359 2241 1098 1978 
Q 838 1716 838 1322 
z
" transform="scale(0.015625)"/>
       </defs>
       <use xlink:href="#ArialMT-30"/>
       <use xlink:href="#ArialMT-2e" transform="translate(55.615234 0)"/>
       <use xlink:href="#ArialMT-38" transform="translate(83.398438 0)"/>
      </g>
     </g>
    </g>
    <g id="ytick_6">
     <g id="line2d_6">
      <path d="M 52.56 47.315422 
L 383.265 47.315422 
" clip-path="url(#p5c0ec792d0)" style="fill: none; stroke: #cccccc; stroke-linecap: round"/>
     </g>
     <g id="text_10">
      <!-- 1.0 -->
      <g style="fill: #262626" transform="translate(27.77 51.252219) scale(0.11 -0.11)">
       <defs>
        <path id="ArialMT-31" d="M 2384 0 
L 1822 0 
L 1822 3584 
Q 1619 3391 1289 3197 
Q 959 3003 697 2906 
L 697 3450 
Q 1169 3672 1522 3987 
Q 1875 4303 2022 4600 
L 2384 4600 
L 2384 0 
z
" transform="scale(0.015625)"/>
       </defs>
       <use xlink:href="#ArialMT-31"/>
       <use xlink:href="#ArialMT-2e" transform="translate(55.615234 0)"/>
       <use xlink:href="#ArialMT-30" transform="translate(83.398438 0)"/>
      </g>
     </g>
    </g>
    <g id="text_11">
     <!-- FCR -->
     <g style="fill: #262626" transform="translate(21.385 146.410313) rotate(-90) scale(0.12 -0.12)">
      <defs>
       <path id="ArialMT-46" d="M 525 0 
L 525 4581 
L 3616 4581 
L 3616 4041 
L 1131 4041 
L 1131 2622 
L 3281 2622 
L 3281 2081 
L 1131 2081 
L 1131 0 
L 525 0 
z
" transform="scale(0.015625)"/>
       <path id="ArialMT-43" d="M 3763 1606 
L 4369 1453 
Q 4178 706 3683 314 
Q 3188 -78 2472 -78 
Q 1731 -78 1267 223 
Q 803 525 561 1097 
Q 319 1669 319 2325 
Q 319 3041 592 3573 
Q 866 4106 1370 4382 
Q 1875 4659 2481 4659 
Q 3169 4659 3637 4309 
Q 4106 3959 4291 3325 
L 3694 3184 
Q 3534 3684 3231 3912 
Q 2928 4141 2469 4141 
Q 1941 4141 1586 3887 
Q 1231 3634 1087 3207 
Q 944 2781 944 2328 
Q 944 1744 1114 1308 
Q 1284 872 1643 656 
Q 2003 441 2422 441 
Q 2931 441 3284 734 
Q 3638 1028 3763 1606 
z
" transform="scale(0.015625)"/>
       <path id="ArialMT-52" d="M 503 0 
L 503 4581 
L 2534 4581 
Q 3147 4581 3465 4457 
Q 3784 4334 3975 4021 
Q 4166 3709 4166 3331 
Q 4166 2844 3850 2509 
Q 3534 2175 2875 2084 
Q 3116 1969 3241 1856 
Q 3506 1613 3744 1247 
L 4541 0 
L 3778 0 
L 3172 953 
Q 2906 1366 2734 1584 
Q 2563 1803 2427 1890 
Q 2291 1978 2150 2013 
Q 2047 2034 1813 2034 
L 1109 2034 
L 1109 0 
L 503 0 
z
M 1109 2559 
L 2413 2559 
Q 2828 2559 3062 2645 
Q 3297 2731 3419 2920 
Q 3541 3109 3541 3331 
Q 3541 3656 3305 3865 
Q 3069 4075 2559 4075 
L 1109 4075 
L 1109 2559 
z
" transform="scale(0.015625)"/>
      </defs>
      <use xlink:href="#ArialMT-46"/>
      <use xlink:href="#ArialMT-43" transform="translate(61.083984 0)"/>
      <use xlink:href="#ArialMT-52" transform="translate(133.300781 0)"/>
     </g>
    </g>
   </g>
   <g id="FillBetweenPolyCollection_1">
    <defs>
     <path id="md1a1ac2d02" d="M 107.733292 -58.648149 
L 107.621708 -58.648149 
L 107.568973 -59.939887 
L 107.480632 -61.231626 
L 107.343123 -62.523364 
L 107.143532 -63.815102 
L 106.872583 -65.106841 
L 106.527863 -66.398579 
L 106.116402 -67.690317 
L 105.655521 -68.982056 
L 105.171091 -70.273794 
L 104.693357 -71.565533 
L 104.25181 -72.857271 
L 103.87101 -74.149009 
L 103.567904 -75.440748 
L 103.349137 -76.732486 
L 103.206809 -78.024224 
L 103.114148 -79.315963 
L 103.02595 -80.607701 
L 102.887629 -81.899439 
L 102.650185 -83.191178 
L 102.281743 -84.482916 
L 101.766639 -85.774654 
L 101.092189 -87.066393 
L 100.234218 -88.358131 
L 99.155289 -89.649869 
L 97.820763 -90.941608 
L 96.223629 -92.233346 
L 94.400823 -93.525085 
L 92.428137 -94.816823 
L 90.39462 -96.108561 
L 88.370291 -97.4003 
L 86.384294 -98.692038 
L 84.423895 -99.983776 
L 82.454392 -101.275515 
L 80.452579 -102.567253 
L 78.442908 -103.858991 
L 76.52318 -105.15073 
L 74.865805 -106.442468 
L 73.685683 -107.734206 
L 73.17967 -109.025945 
L 73.4601 -110.317683 
L 74.513618 -111.609421 
L 76.207421 -112.90116 
L 78.340652 -114.192898 
L 80.713981 -115.484637 
L 83.181492 -116.776375 
L 85.662152 -118.068113 
L 88.114271 -119.359852 
L 90.49793 -120.65159 
L 92.753628 -121.943328 
L 94.809974 -123.235067 
L 96.611515 -124.526805 
L 98.144788 -125.818543 
L 99.443808 -127.110282 
L 100.571034 -128.40202 
L 101.585586 -129.693758 
L 102.517293 -130.985497 
L 103.360085 -132.277235 
L 104.08588 -133.568973 
L 104.668554 -134.860712 
L 105.10352 -136.15245 
L 105.413292 -137.444189 
L 105.638778 -138.735927 
L 105.823654 -140.027665 
L 106.000818 -141.319404 
L 106.186312 -142.611142 
L 106.380901 -143.90288 
L 106.576172 -145.194619 
L 106.761447 -146.486357 
L 106.928864 -147.778095 
L 107.075445 -149.069834 
L 107.202272 -150.361572 
L 107.312031 -151.65331 
L 107.406651 -152.945049 
L 107.486398 -154.236787 
L 107.550562 -155.528525 
L 107.598846 -156.820264 
L 107.63235 -158.112002 
L 107.653598 -159.403741 
L 107.665831 -160.695479 
L 107.672131 -161.987217 
L 107.674794 -163.278956 
L 107.675075 -164.570694 
L 107.67314 -165.862432 
L 107.668108 -167.154171 
L 107.658167 -168.445909 
L 107.640971 -169.737647 
L 107.614502 -171.029386 
L 107.578408 -172.321124 
L 107.535361 -173.612862 
L 107.491568 -174.904601 
L 107.455704 -176.196339 
L 107.436224 -177.488077 
L 107.438149 -178.779816 
L 107.46097 -180.071554 
L 107.498868 -181.363293 
L 107.543111 -182.655031 
L 107.5853 -183.946769 
L 107.619816 -185.238508 
L 107.644589 -186.530246 
L 107.710411 -186.530246 
L 107.710411 -186.530246 
L 107.735184 -185.238508 
L 107.7697 -183.946769 
L 107.811889 -182.655031 
L 107.856132 -181.363293 
L 107.89403 -180.071554 
L 107.916851 -178.779816 
L 107.918776 -177.488077 
L 107.899296 -176.196339 
L 107.863432 -174.904601 
L 107.819639 -173.612862 
L 107.776592 -172.321124 
L 107.740498 -171.029386 
L 107.714029 -169.737647 
L 107.696833 -168.445909 
L 107.686892 -167.154171 
L 107.68186 -165.862432 
L 107.679925 -164.570694 
L 107.680206 -163.278956 
L 107.682869 -161.987217 
L 107.689169 -160.695479 
L 107.701402 -159.403741 
L 107.72265 -158.112002 
L 107.756154 -156.820264 
L 107.804438 -155.528525 
L 107.868602 -154.236787 
L 107.948349 -152.945049 
L 108.042969 -151.65331 
L 108.152728 -150.361572 
L 108.279555 -149.069834 
L 108.426136 -147.778095 
L 108.593553 -146.486357 
L 108.778828 -145.194619 
L 108.974099 -143.90288 
L 109.168688 -142.611142 
L 109.354182 -141.319404 
L 109.531346 -140.027665 
L 109.716222 -138.735927 
L 109.941708 -137.444189 
L 110.25148 -136.15245 
L 110.686446 -134.860712 
L 111.26912 -133.568973 
L 111.994915 -132.277235 
L 112.837707 -130.985497 
L 113.769414 -129.693758 
L 114.783966 -128.40202 
L 115.911192 -127.110282 
L 117.210212 -125.818543 
L 118.743485 -124.526805 
L 120.545026 -123.235067 
L 122.601372 -121.943328 
L 124.85707 -120.65159 
L 127.240729 -119.359852 
L 129.692848 -118.068113 
L 132.173508 -116.776375 
L 134.641019 -115.484637 
L 137.014348 -114.192898 
L 139.147579 -112.90116 
L 140.841382 -111.609421 
L 141.8949 -110.317683 
L 142.17533 -109.025945 
L 141.669317 -107.734206 
L 140.489195 -106.442468 
L 138.83182 -105.15073 
L 136.912092 -103.858991 
L 134.902421 -102.567253 
L 132.900608 -101.275515 
L 130.931105 -99.983776 
L 128.970706 -98.692038 
L 126.984709 -97.4003 
L 124.96038 -96.108561 
L 122.926863 -94.816823 
L 120.954177 -93.525085 
L 119.131371 -92.233346 
L 117.534237 -90.941608 
L 116.199711 -89.649869 
L 115.120782 -88.358131 
L 114.262811 -87.066393 
L 113.588361 -85.774654 
L 113.073257 -84.482916 
L 112.704815 -83.191178 
L 112.467371 -81.899439 
L 112.32905 -80.607701 
L 112.240852 -79.315963 
L 112.148191 -78.024224 
L 112.005863 -76.732486 
L 111.787096 -75.440748 
L 111.48399 -74.149009 
L 111.10319 -72.857271 
L 110.661643 -71.565533 
L 110.183909 -70.273794 
L 109.699479 -68.982056 
L 109.238598 -67.690317 
L 108.827137 -66.398579 
L 108.482417 -65.106841 
L 108.211468 -63.815102 
L 108.011877 -62.523364 
L 107.874368 -61.231626 
L 107.786027 -59.939887 
L 107.733292 -58.648149 
z
" style="stroke: #4c4c4c; stroke-width: 1.25"/>
    </defs>
    <g clip-path="url(#p5c0ec792d0)">
     <use xlink:href="#md1a1ac2d02" x="0" y="288" style="fill: #5875a4; stroke: #4c4c4c; stroke-width: 1.25"/>
    </g>
   </g>
   <g id="FillBetweenPolyCollection_2">
    <defs>
     <path id="ma700f00d32" d="M 217.931965 -69.241924 
L 217.893035 -69.241924 
L 217.873126 -70.294035 
L 217.843092 -71.346146 
L 217.805003 -72.398257 
L 217.764133 -73.450369 
L 217.725777 -74.50248 
L 217.691337 -75.554591 
L 217.657538 -76.606703 
L 217.619592 -77.658814 
L 217.573841 -78.710925 
L 217.514982 -79.763037 
L 217.42931 -80.815148 
L 217.291519 -81.867259 
L 217.07063 -82.91937 
L 216.741912 -83.971482 
L 216.295307 -85.023593 
L 215.733565 -86.075704 
L 215.06242 -87.127816 
L 214.282084 -88.179927 
L 213.386293 -89.232038 
L 212.363825 -90.28415 
L 211.19191 -91.336261 
L 209.824795 -92.388372 
L 208.200599 -93.440483 
L 206.280209 -94.492595 
L 204.088255 -95.544706 
L 201.702087 -96.596817 
L 199.179058 -97.648929 
L 196.486127 -98.70104 
L 193.507576 -99.753151 
L 190.137134 -100.805262 
L 186.390439 -101.857374 
L 182.472104 -102.909485 
L 178.773769 -103.961596 
L 175.803848 -105.013708 
L 174.052509 -106.065819 
L 173.8185 -107.11793 
L 175.070964 -108.170042 
L 177.433753 -109.222153 
L 180.321906 -110.274264 
L 183.165456 -111.326375 
L 185.601366 -112.378487 
L 187.542341 -113.430598 
L 189.116515 -114.482709 
L 190.546513 -115.534821 
L 192.045371 -116.586932 
L 193.757593 -117.639043 
L 195.728582 -118.691155 
L 197.889345 -119.743266 
L 200.071738 -120.795377 
L 202.069815 -121.847488 
L 203.727376 -122.8996 
L 205.00263 -123.951711 
L 205.972053 -125.003822 
L 206.776509 -126.055934 
L 207.548125 -127.108045 
L 208.362147 -128.160156 
L 209.23459 -129.212268 
L 210.152605 -130.264379 
L 211.10444 -131.31649 
L 212.084158 -132.368601 
L 213.073429 -133.420713 
L 214.023464 -134.472824 
L 214.858748 -135.524935 
L 215.506199 -136.577047 
L 215.933494 -137.629158 
L 216.170657 -138.681269 
L 216.297129 -139.73338 
L 216.400197 -140.785492 
L 216.532559 -141.837603 
L 216.697226 -142.889714 
L 216.865502 -143.941826 
L 217.008883 -144.993937 
L 217.119731 -146.046048 
L 217.210061 -147.09816 
L 217.296589 -148.150271 
L 217.387626 -149.202382 
L 217.48092 -150.254493 
L 217.570042 -151.306605 
L 217.650742 -152.358716 
L 217.721899 -153.410827 
L 217.782842 -154.462939 
L 217.831724 -155.51505 
L 217.866593 -156.567161 
L 217.88691 -157.619273 
L 217.893357 -158.671384 
L 217.886339 -159.723495 
L 217.865279 -160.775606 
L 217.829992 -161.827718 
L 217.783358 -162.879829 
L 217.733031 -163.93194 
L 217.690309 -164.984052 
L 217.666362 -166.036163 
L 217.667894 -167.088274 
L 217.694469 -168.140385 
L 217.738698 -169.192497 
L 217.789206 -170.244608 
L 217.835113 -171.296719 
L 217.869765 -172.348831 
L 217.891839 -173.400942 
L 217.933161 -173.400942 
L 217.933161 -173.400942 
L 217.955235 -172.348831 
L 217.989887 -171.296719 
L 218.035794 -170.244608 
L 218.086302 -169.192497 
L 218.130531 -168.140385 
L 218.157106 -167.088274 
L 218.158638 -166.036163 
L 218.134691 -164.984052 
L 218.091969 -163.93194 
L 218.041642 -162.879829 
L 217.995008 -161.827718 
L 217.959721 -160.775606 
L 217.938661 -159.723495 
L 217.931643 -158.671384 
L 217.93809 -157.619273 
L 217.958407 -156.567161 
L 217.993276 -155.51505 
L 218.042158 -154.462939 
L 218.103101 -153.410827 
L 218.174258 -152.358716 
L 218.254958 -151.306605 
L 218.34408 -150.254493 
L 218.437374 -149.202382 
L 218.528411 -148.150271 
L 218.614939 -147.09816 
L 218.705269 -146.046048 
L 218.816117 -144.993937 
L 218.959498 -143.941826 
L 219.127774 -142.889714 
L 219.292441 -141.837603 
L 219.424803 -140.785492 
L 219.527871 -139.73338 
L 219.654343 -138.681269 
L 219.891506 -137.629158 
L 220.318801 -136.577047 
L 220.966252 -135.524935 
L 221.801536 -134.472824 
L 222.751571 -133.420713 
L 223.740842 -132.368601 
L 224.72056 -131.31649 
L 225.672395 -130.264379 
L 226.59041 -129.212268 
L 227.462853 -128.160156 
L 228.276875 -127.108045 
L 229.048491 -126.055934 
L 229.852947 -125.003822 
L 230.82237 -123.951711 
L 232.097624 -122.8996 
L 233.755185 -121.847488 
L 235.753262 -120.795377 
L 237.935655 -119.743266 
L 240.096418 -118.691155 
L 242.067407 -117.639043 
L 243.779629 -116.586932 
L 245.278487 -115.534821 
L 246.708485 -114.482709 
L 248.282659 -113.430598 
L 250.223634 -112.378487 
L 252.659544 -111.326375 
L 255.503094 -110.274264 
L 258.391247 -109.222153 
L 260.754036 -108.170042 
L 262.0065 -107.11793 
L 261.772491 -106.065819 
L 260.021152 -105.013708 
L 257.051231 -103.961596 
L 253.352896 -102.909485 
L 249.434561 -101.857374 
L 245.687866 -100.805262 
L 242.317424 -99.753151 
L 239.338873 -98.70104 
L 236.645942 -97.648929 
L 234.122913 -96.596817 
L 231.736745 -95.544706 
L 229.544791 -94.492595 
L 227.624401 -93.440483 
L 226.000205 -92.388372 
L 224.63309 -91.336261 
L 223.461175 -90.28415 
L 222.438707 -89.232038 
L 221.542916 -88.179927 
L 220.76258 -87.127816 
L 220.091435 -86.075704 
L 219.529693 -85.023593 
L 219.083088 -83.971482 
L 218.75437 -82.91937 
L 218.533481 -81.867259 
L 218.39569 -80.815148 
L 218.310018 -79.763037 
L 218.251159 -78.710925 
L 218.205408 -77.658814 
L 218.167462 -76.606703 
L 218.133663 -75.554591 
L 218.099223 -74.50248 
L 218.060867 -73.450369 
L 218.019997 -72.398257 
L 217.981908 -71.346146 
L 217.951874 -70.294035 
L 217.931965 -69.241924 
z
" style="stroke: #4c4c4c; stroke-width: 1.25"/>
    </defs>
    <g clip-path="url(#p5c0ec792d0)">
     <use xlink:href="#ma700f00d32" x="0" y="288" style="fill: #5875a4; stroke: #4c4c4c; stroke-width: 1.25"/>
    </g>
   </g>
   <g id="FillBetweenPolyCollection_3">
    <defs>
     <path id="ma3baa75107" d="M 328.400408 -57.121193 
L 327.894592 -57.121193 
L 327.629782 -59.076737 
L 327.230313 -61.032281 
L 326.734058 -62.987825 
L 326.235685 -64.943369 
L 325.842329 -66.898914 
L 325.605201 -68.854458 
L 325.482467 -70.810002 
L 325.365642 -72.765546 
L 325.143775 -74.72109 
L 324.7531 -76.676634 
L 324.187646 -78.632178 
L 323.48429 -80.587722 
L 322.702369 -82.543266 
L 321.903242 -84.49881 
L 321.128723 -86.454354 
L 320.384579 -88.409898 
L 319.639846 -90.365442 
L 318.843743 -92.320987 
L 317.947931 -94.276531 
L 316.919466 -96.232075 
L 315.74222 -98.187619 
L 314.41601 -100.143163 
L 312.960279 -102.098707 
L 311.420138 -104.054251 
L 309.869177 -106.009795 
L 308.405971 -107.965339 
L 307.145072 -109.920883 
L 306.205934 -111.876427 
L 305.699438 -113.831971 
L 305.704443 -115.787515 
L 306.234547 -117.74306 
L 307.219067 -119.698604 
L 308.525846 -121.654148 
L 310.0165 -123.609692 
L 311.588162 -125.565236 
L 313.170731 -127.52078 
L 314.699741 -129.476324 
L 316.108496 -131.431868 
L 317.352266 -133.387412 
L 318.433938 -135.342956 
L 319.397967 -137.2985 
L 320.296181 -139.254044 
L 321.157207 -141.209588 
L 321.980296 -143.165133 
L 322.746501 -145.120677 
L 323.432289 -147.076221 
L 324.022428 -149.031765 
L 324.52246 -150.987309 
L 324.960743 -152.942853 
L 325.371015 -154.898397 
L 325.767083 -156.853941 
L 326.133927 -158.809485 
L 326.443657 -160.765029 
L 326.679667 -162.720573 
L 326.848206 -164.676117 
L 326.972901 -166.631662 
L 327.081592 -168.587206 
L 327.194853 -170.54275 
L 327.319808 -172.498294 
L 327.450061 -174.453838 
L 327.571446 -176.409382 
L 327.670428 -178.364926 
L 327.740087 -180.32047 
L 327.78129 -182.276014 
L 327.800705 -184.231558 
L 327.807863 -186.187102 
L 327.811718 -188.142646 
L 327.817493 -190.09819 
L 327.8263 -192.053735 
L 327.83843 -194.009279 
L 327.856618 -195.964823 
L 327.884811 -197.920367 
L 327.9235 -199.875911 
L 327.967414 -201.831455 
L 328.008552 -203.786999 
L 328.041075 -205.742543 
L 328.063274 -207.698087 
L 328.07628 -209.653631 
L 328.082538 -211.609175 
L 328.085469 -213.564719 
L 328.089027 -215.520263 
L 328.096114 -217.475808 
L 328.106996 -219.431352 
L 328.119424 -221.386896 
L 328.130333 -223.34244 
L 328.137446 -225.297984 
L 328.139447 -227.253528 
L 328.135017 -229.209072 
L 328.122153 -231.164616 
L 328.0991 -233.12016 
L 328.066969 -235.075704 
L 328.032149 -237.031248 
L 328.005513 -238.986792 
L 327.997348 -240.942336 
L 328.011087 -242.897881 
L 328.041033 -244.853425 
L 328.076114 -246.808969 
L 328.106381 -248.764513 
L 328.127152 -250.720057 
L 328.167848 -250.720057 
L 328.167848 -250.720057 
L 328.188619 -248.764513 
L 328.218886 -246.808969 
L 328.253967 -244.853425 
L 328.283913 -242.897881 
L 328.297652 -240.942336 
L 328.289487 -238.986792 
L 328.262851 -237.031248 
L 328.228031 -235.075704 
L 328.1959 -233.12016 
L 328.172847 -231.164616 
L 328.159983 -229.209072 
L 328.155553 -227.253528 
L 328.157554 -225.297984 
L 328.164667 -223.34244 
L 328.175576 -221.386896 
L 328.188004 -219.431352 
L 328.198886 -217.475808 
L 328.205973 -215.520263 
L 328.209531 -213.564719 
L 328.212462 -211.609175 
L 328.21872 -209.653631 
L 328.231726 -207.698087 
L 328.253925 -205.742543 
L 328.286448 -203.786999 
L 328.327586 -201.831455 
L 328.3715 -199.875911 
L 328.410189 -197.920367 
L 328.438382 -195.964823 
L 328.45657 -194.009279 
L 328.4687 -192.053735 
L 328.477507 -190.09819 
L 328.483282 -188.142646 
L 328.487137 -186.187102 
L 328.494295 -184.231558 
L 328.51371 -182.276014 
L 328.554913 -180.32047 
L 328.624572 -178.364926 
L 328.723554 -176.409382 
L 328.844939 -174.453838 
L 328.975192 -172.498294 
L 329.100147 -170.54275 
L 329.213408 -168.587206 
L 329.322099 -166.631662 
L 329.446794 -164.676117 
L 329.615333 -162.720573 
L 329.851343 -160.765029 
L 330.161073 -158.809485 
L 330.527917 -156.853941 
L 330.923985 -154.898397 
L 331.334257 -152.942853 
L 331.77254 -150.987309 
L 332.272572 -149.031765 
L 332.862711 -147.076221 
L 333.548499 -145.120677 
L 334.314704 -143.165133 
L 335.137793 -141.209588 
L 335.998819 -139.254044 
L 336.897033 -137.2985 
L 337.861062 -135.342956 
L 338.942734 -133.387412 
L 340.186504 -131.431868 
L 341.595259 -129.476324 
L 343.124269 -127.52078 
L 344.706838 -125.565236 
L 346.2785 -123.609692 
L 347.769154 -121.654148 
L 349.075933 -119.698604 
L 350.060453 -117.74306 
L 350.590557 -115.787515 
L 350.595562 -113.831971 
L 350.089066 -111.876427 
L 349.149928 -109.920883 
L 347.889029 -107.965339 
L 346.425823 -106.009795 
L 344.874862 -104.054251 
L 343.334721 -102.098707 
L 341.87899 -100.143163 
L 340.55278 -98.187619 
L 339.375534 -96.232075 
L 338.347069 -94.276531 
L 337.451257 -92.320987 
L 336.655154 -90.365442 
L 335.910421 -88.409898 
L 335.166277 -86.454354 
L 334.391758 -84.49881 
L 333.592631 -82.543266 
L 332.81071 -80.587722 
L 332.107354 -78.632178 
L 331.5419 -76.676634 
L 331.151225 -74.72109 
L 330.929358 -72.765546 
L 330.812533 -70.810002 
L 330.689799 -68.854458 
L 330.452671 -66.898914 
L 330.059315 -64.943369 
L 329.560942 -62.987825 
L 329.064687 -61.032281 
L 328.665218 -59.076737 
L 328.400408 -57.121193 
z
" style="stroke: #4c4c4c; stroke-width: 1.25"/>
    </defs>
    <g clip-path="url(#p5c0ec792d0)">
     <use xlink:href="#ma3baa75107" x="0" y="288" style="fill: #5875a4; stroke: #4c4c4c; stroke-width: 1.25"/>
    </g>
   </g>
   <g id="line2d_7">
    <path d="M 84.138675 187.829157 
L 131.216325 187.829157 
" clip-path="url(#p5c0ec792d0)" style="fill: none; stroke-dasharray: 1.5625,0.9375; stroke-dashoffset: 0; stroke: #4c4c4c; stroke-width: 1.25"/>
   </g>
   <g id="line2d_8">
    <path d="M 73.415331 179.575645 
L 141.939669 179.575645 
" clip-path="url(#p5c0ec792d0)" style="fill: none; stroke-dasharray: 3.125,1.25; stroke-dashoffset: 0; stroke: #4c4c4c; stroke-width: 1.25"/>
   </g>
   <g id="line2d_9">
    <path d="M 80.196298 172.797124 
L 135.158702 172.797124 
" clip-path="url(#p5c0ec792d0)" style="fill: none; stroke-dasharray: 1.5625,0.9375; stroke-dashoffset: 0; stroke: #4c4c4c; stroke-width: 1.25"/>
   </g>
   <g id="line2d_10">
    <path d="M 180.586952 184.554222 
L 255.238048 184.554222 
" clip-path="url(#p5c0ec792d0)" style="fill: none; stroke-dasharray: 1.5625,0.9375; stroke-dashoffset: 0; stroke: #4c4c4c; stroke-width: 1.25"/>
   </g>
   <g id="line2d_11">
    <path d="M 176.154395 179.347524 
L 259.670605 179.347524 
" clip-path="url(#p5c0ec792d0)" style="fill: none; stroke-dasharray: 3.125,1.25; stroke-dashoffset: 0; stroke: #4c4c4c; stroke-width: 1.25"/>
   </g>
   <g id="line2d_12">
    <path d="M 192.08399 171.389338 
L 243.74101 171.389338 
" clip-path="url(#p5c0ec792d0)" style="fill: none; stroke-dasharray: 1.5625,0.9375; stroke-dashoffset: 0; stroke: #4c4c4c; stroke-width: 1.25"/>
   </g>
   <g id="line2d_13">
    <path d="M 312.481409 185.293263 
L 343.813591 185.293263 
" clip-path="url(#p5c0ec792d0)" style="fill: none; stroke-dasharray: 1.5625,0.9375; stroke-dashoffset: 0; stroke: #4c4c4c; stroke-width: 1.25"/>
   </g>
   <g id="line2d_14">
    <path d="M 305.702112 173.123154 
L 350.592888 173.123154 
" clip-path="url(#p5c0ec792d0)" style="fill: none; stroke-dasharray: 3.125,1.25; stroke-dashoffset: 0; stroke: #4c4c4c; stroke-width: 1.25"/>
   </g>
   <g id="line2d_15">
    <path d="M 312.604796 161.178533 
L 343.690204 161.178533 
" clip-path="url(#p5c0ec792d0)" style="fill: none; stroke-dasharray: 1.5625,0.9375; stroke-dashoffset: 0; stroke: #4c4c4c; stroke-width: 1.25"/>
   </g>
   <g id="patch_3">
    <path d="M 52.56 240.55875 
L 52.56 27.6 
" style="fill: none; stroke: #cccccc; stroke-width: 1.25; stroke-linejoin: miter; stroke-linecap: square"/>
   </g>
   <g id="patch_4">
    <path d="M 383.265 240.55875 
L 383.265 27.6 
" style="fill: none; stroke: #cccccc; stroke-width: 1.25; stroke-linejoin: miter; stroke-linecap: square"/>
   </g>
   <g id="patch_5">
    <path d="M 52.56 240.55875 
L 383.265 240.55875 
" style="fill: none; stroke: #cccccc; stroke-width: 1.25; stroke-linejoin: miter; stroke-linecap: square"/>
   </g>
   <g id="patch_6">
    <path d="M 52.56 27.6 
L 383.265 27.6 
" style="fill: none; stroke: #cccccc; stroke-width: 1.25; stroke-linejoin: miter; stroke-linecap: square"/>
   </g>
   <g id="text_12">
    <!-- FCR Distribution -->
    <g style="fill: #262626" transform="translate(173.904375 21.6) scale(0.12 -0.12)">
     <defs>
      <path id="ArialMT-20" transform="scale(0.015625)"/>
      <path id="ArialMT-44" d="M 494 0 
L 494 4581 
L 2072 4581 
Q 2606 4581 2888 4516 
Q 3281 4425 3559 4188 
Q 3922 3881 4101 3404 
Q 4281 2928 4281 2316 
Q 4281 1794 4159 1391 
Q 4038 988 3847 723 
Q 3656 459 3429 307 
Q 3203 156 2883 78 
Q 2563 0 2147 0 
L 494 0 
z
M 1100 541 
L 2078 541 
Q 2531 541 2789 625 
Q 3047 709 3200 863 
Q 3416 1078 3536 1442 
Q 3656 1806 3656 2325 
Q 3656 3044 3420 3430 
Q 3184 3816 2847 3947 
Q 2603 4041 2063 4041 
L 1100 4041 
L 1100 541 
z
" transform="scale(0.015625)"/>
      <path id="ArialMT-69" d="M 425 3934 
L 425 4581 
L 988 4581 
L 988 3934 
L 425 3934 
z
M 425 0 
L 425 3319 
L 988 3319 
L 988 0 
L 425 0 
z
" transform="scale(0.015625)"/>
      <path id="ArialMT-74" d="M 1650 503 
L 1731 6 
Q 1494 -44 1306 -44 
Q 1000 -44 831 53 
Q 663 150 594 308 
Q 525 466 525 972 
L 525 2881 
L 113 2881 
L 113 3319 
L 525 3319 
L 525 4141 
L 1084 4478 
L 1084 3319 
L 1650 3319 
L 1650 2881 
L 1084 2881 
L 1084 941 
Q 1084 700 1114 631 
Q 1144 563 1211 522 
Q 1278 481 1403 481 
Q 1497 481 1650 503 
z
" transform="scale(0.015625)"/>
      <path id="ArialMT-62" d="M 941 0 
L 419 0 
L 419 4581 
L 981 4581 
L 981 2947 
Q 1338 3394 1891 3394 
Q 2197 3394 2470 3270 
Q 2744 3147 2920 2923 
Q 3097 2700 3197 2384 
Q 3297 2069 3297 1709 
Q 3297 856 2875 390 
Q 2453 -75 1863 -75 
Q 1275 -75 941 416 
L 941 0 
z
M 934 1684 
Q 934 1088 1097 822 
Q 1363 388 1816 388 
Q 2184 388 2453 708 
Q 2722 1028 2722 1663 
Q 2722 2313 2464 2622 
Q 2206 2931 1841 2931 
Q 1472 2931 1203 2611 
Q 934 2291 934 1684 
z
" transform="scale(0.015625)"/>
     </defs>
     <use xlink:href="#ArialMT-46"/>
     <use xlink:href="#ArialMT-43" transform="translate(61.083984 0)"/>
     <use xlink:href="#ArialMT-52" transform="translate(133.300781 0)"/>
     <use xlink:href="#ArialMT-20" transform="translate(205.517578 0)"/>
     <use xlink:href="#ArialMT-44" transform="translate(233.300781 0)"/>
     <use xlink:href="#ArialMT-69" transform="translate(305.517578 0)"/>
     <use xlink:href="#ArialMT-73" transform="translate(327.734375 0)"/>
     <use xlink:href="#ArialMT-74" transform="translate(377.734375 0)"/>
     <use xlink:href="#ArialMT-72" transform="translate(405.517578 0)"/>
     <use xlink:href="#ArialMT-69" transform="translate(438.818359 0)"/>
     <use xlink:href="#ArialMT-62" transform="translate(461.035156 0)"/>
     <use xlink:href="#ArialMT-75" transform="translate(516.650391 0)"/>
     <use xlink:href="#ArialMT-74" transform="translate(572.265625 0)"/>
     <use xlink:href="#ArialMT-69" transform="translate(600.048828 0)"/>
     <use xlink:href="#ArialMT-6f" transform="translate(622.265625 0)"/>
     <use xlink:href="#ArialMT-6e" transform="translate(677.880859 0)"/>
    </g>
   </g>
  </g>
  <g id="axes_2">
   <g id="patch_7">
    <path d="M 448.335 240.55875 
L 779.04 240.55875 
L 779.04 27.6 
L 448.335 27.6 
z
" style="fill: #ffffff"/>
   </g>
   <g id="matplotlib.axis_3">
    <g id="xtick_4">
     <g id="text_13">
      <!-- pos -->
      <g style="fill: #262626" transform="translate(494.585469 257.932344) scale(0.11 -0.11)">
       <use xlink:href="#ArialMT-70"/>
       <use xlink:href="#ArialMT-6f" transform="translate(55.615234 0)"/>
       <use xlink:href="#ArialMT-73" transform="translate(111.230469 0)"/>
      </g>
     </g>
    </g>
    <g id="xtick_5">
     <g id="text_14">
      <!-- neg -->
      <g style="fill: #262626" transform="translate(604.511953 257.803438) scale(0.11 -0.11)">
       <use xlink:href="#ArialMT-6e"/>
       <use xlink:href="#ArialMT-65" transform="translate(55.615234 0)"/>
       <use xlink:href="#ArialMT-67" transform="translate(111.230469 0)"/>
      </g>
     </g>
    </g>
    <g id="xtick_6">
     <g id="text_15">
      <!-- neg_pseudo -->
      <g style="fill: #262626" transform="translate(693.645859 257.932344) scale(0.11 -0.11)">
       <use xlink:href="#ArialMT-6e"/>
       <use xlink:href="#ArialMT-65" transform="translate(55.615234 0)"/>
       <use xlink:href="#ArialMT-67" transform="translate(111.230469 0)"/>
       <use xlink:href="#ArialMT-5f" transform="translate(166.845703 0)"/>
       <use xlink:href="#ArialMT-70" transform="translate(222.460938 0)"/>
       <use xlink:href="#ArialMT-73" transform="translate(278.076172 0)"/>
       <use xlink:href="#ArialMT-65" transform="translate(328.076172 0)"/>
       <use xlink:href="#ArialMT-75" transform="translate(383.691406 0)"/>
       <use xlink:href="#ArialMT-64" transform="translate(439.306641 0)"/>
       <use xlink:href="#ArialMT-6f" transform="translate(494.921875 0)"/>
      </g>
     </g>
    </g>
    <g id="text_16">
     <!-- Group -->
     <g style="fill: #262626" transform="translate(597.013125 272.983125) scale(0.12 -0.12)">
      <use xlink:href="#ArialMT-47"/>
      <use xlink:href="#ArialMT-72" transform="translate(77.783203 0)"/>
      <use xlink:href="#ArialMT-6f" transform="translate(111.083984 0)"/>
      <use xlink:href="#ArialMT-75" transform="translate(166.699219 0)"/>
      <use xlink:href="#ArialMT-70" transform="translate(222.314453 0)"/>
     </g>
    </g>
   </g>
   <g id="matplotlib.axis_4">
    <g id="ytick_7">
     <g id="line2d_16">
      <path d="M 448.335 223.085176 
L 779.04 223.085176 
" clip-path="url(#pcd75e2d6f3)" style="fill: none; stroke: #cccccc; stroke-linecap: round"/>
     </g>
     <g id="text_17">
      <!-- −1.00 -->
      <g style="fill: #262626" transform="translate(411.003281 227.021973) scale(0.11 -0.11)">
       <defs>
        <path id="ArialMT-2212" d="M 3381 1997 
L 356 1997 
L 356 2522 
L 3381 2522 
L 3381 1997 
z
" transform="scale(0.015625)"/>
       </defs>
       <use xlink:href="#ArialMT-2212"/>
       <use xlink:href="#ArialMT-31" transform="translate(58.398438 0)"/>
       <use xlink:href="#ArialMT-2e" transform="translate(114.013672 0)"/>
       <use xlink:href="#ArialMT-30" transform="translate(141.796875 0)"/>
       <use xlink:href="#ArialMT-30" transform="translate(197.412109 0)"/>
      </g>
     </g>
    </g>
    <g id="ytick_8">
     <g id="line2d_17">
      <path d="M 448.335 195.270863 
L 779.04 195.270863 
" clip-path="url(#pcd75e2d6f3)" style="fill: none; stroke: #cccccc; stroke-linecap: round"/>
     </g>
     <g id="text_18">
      <!-- −0.75 -->
      <g style="fill: #262626" transform="translate(411.003281 199.20766) scale(0.11 -0.11)">
       <defs>
        <path id="ArialMT-37" d="M 303 3981 
L 303 4522 
L 3269 4522 
L 3269 4084 
Q 2831 3619 2401 2847 
Q 1972 2075 1738 1259 
Q 1569 684 1522 0 
L 944 0 
Q 953 541 1156 1306 
Q 1359 2072 1739 2783 
Q 2119 3494 2547 3981 
L 303 3981 
z
" transform="scale(0.015625)"/>
        <path id="ArialMT-35" d="M 266 1200 
L 856 1250 
Q 922 819 1161 601 
Q 1400 384 1738 384 
Q 2144 384 2425 690 
Q 2706 997 2706 1503 
Q 2706 1984 2436 2262 
Q 2166 2541 1728 2541 
Q 1456 2541 1237 2417 
Q 1019 2294 894 2097 
L 366 2166 
L 809 4519 
L 3088 4519 
L 3088 3981 
L 1259 3981 
L 1013 2750 
Q 1425 3038 1878 3038 
Q 2478 3038 2890 2622 
Q 3303 2206 3303 1553 
Q 3303 931 2941 478 
Q 2500 -78 1738 -78 
Q 1113 -78 717 272 
Q 322 622 266 1200 
z
" transform="scale(0.015625)"/>
       </defs>
       <use xlink:href="#ArialMT-2212"/>
       <use xlink:href="#ArialMT-30" transform="translate(58.398438 0)"/>
       <use xlink:href="#ArialMT-2e" transform="translate(114.013672 0)"/>
       <use xlink:href="#ArialMT-37" transform="translate(141.796875 0)"/>
       <use xlink:href="#ArialMT-35" transform="translate(197.412109 0)"/>
      </g>
     </g>
    </g>
    <g id="ytick_9">
     <g id="line2d_18">
      <path d="M 448.335 167.45655 
L 779.04 167.45655 
" clip-path="url(#pcd75e2d6f3)" style="fill: none; stroke: #cccccc; stroke-linecap: round"/>
     </g>
     <g id="text_19">
      <!-- −0.50 -->
      <g style="fill: #262626" transform="translate(411.003281 171.393347) scale(0.11 -0.11)">
       <use xlink:href="#ArialMT-2212"/>
       <use xlink:href="#ArialMT-30" transform="translate(58.398438 0)"/>
       <use xlink:href="#ArialMT-2e" transform="translate(114.013672 0)"/>
       <use xlink:href="#ArialMT-35" transform="translate(141.796875 0)"/>
       <use xlink:href="#ArialMT-30" transform="translate(197.412109 0)"/>
      </g>
     </g>
    </g>
    <g id="ytick_10">
     <g id="line2d_19">
      <path d="M 448.335 139.642238 
L 779.04 139.642238 
" clip-path="url(#pcd75e2d6f3)" style="fill: none; stroke: #cccccc; stroke-linecap: round"/>
     </g>
     <g id="text_20">
      <!-- −0.25 -->
      <g style="fill: #262626" transform="translate(411.003281 143.579034) scale(0.11 -0.11)">
       <use xlink:href="#ArialMT-2212"/>
       <use xlink:href="#ArialMT-30" transform="translate(58.398438 0)"/>
       <use xlink:href="#ArialMT-2e" transform="translate(114.013672 0)"/>
       <use xlink:href="#ArialMT-32" transform="translate(141.796875 0)"/>
       <use xlink:href="#ArialMT-35" transform="translate(197.412109 0)"/>
      </g>
     </g>
    </g>
    <g id="ytick_11">
     <g id="line2d_20">
      <path d="M 448.335 111.827925 
L 779.04 111.827925 
" clip-path="url(#pcd75e2d6f3)" style="fill: none; stroke: #cccccc; stroke-linecap: round"/>
     </g>
     <g id="text_21">
      <!-- 0.00 -->
      <g style="fill: #262626" transform="translate(417.427969 115.764722) scale(0.11 -0.11)">
       <use xlink:href="#ArialMT-30"/>
       <use xlink:href="#ArialMT-2e" transform="translate(55.615234 0)"/>
       <use xlink:href="#ArialMT-30" transform="translate(83.398438 0)"/>
       <use xlink:href="#ArialMT-30" transform="translate(139.013672 0)"/>
      </g>
     </g>
    </g>
    <g id="ytick_12">
     <g id="line2d_21">
      <path d="M 448.335 84.013612 
L 779.04 84.013612 
" clip-path="url(#pcd75e2d6f3)" style="fill: none; stroke: #cccccc; stroke-linecap: round"/>
     </g>
     <g id="text_22">
      <!-- 0.25 -->
      <g style="fill: #262626" transform="translate(417.427969 87.950409) scale(0.11 -0.11)">
       <use xlink:href="#ArialMT-30"/>
       <use xlink:href="#ArialMT-2e" transform="translate(55.615234 0)"/>
       <use xlink:href="#ArialMT-32" transform="translate(83.398438 0)"/>
       <use xlink:href="#ArialMT-35" transform="translate(139.013672 0)"/>
      </g>
     </g>
    </g>
    <g id="ytick_13">
     <g id="line2d_22">
      <path d="M 448.335 56.199299 
L 779.04 56.199299 
" clip-path="url(#pcd75e2d6f3)" style="fill: none; stroke: #cccccc; stroke-linecap: round"/>
     </g>
     <g id="text_23">
      <!-- 0.50 -->
      <g style="fill: #262626" transform="translate(417.427969 60.136096) scale(0.11 -0.11)">
       <use xlink:href="#ArialMT-30"/>
       <use xlink:href="#ArialMT-2e" transform="translate(55.615234 0)"/>
       <use xlink:href="#ArialMT-35" transform="translate(83.398438 0)"/>
       <use xlink:href="#ArialMT-30" transform="translate(139.013672 0)"/>
      </g>
     </g>
    </g>
    <g id="ytick_14">
     <g id="line2d_23">
      <path d="M 448.335 28.384987 
L 779.04 28.384987 
" clip-path="url(#pcd75e2d6f3)" style="fill: none; stroke: #cccccc; stroke-linecap: round"/>
     </g>
     <g id="text_24">
      <!-- 0.75 -->
      <g style="fill: #262626" transform="translate(417.427969 32.321784) scale(0.11 -0.11)">
       <use xlink:href="#ArialMT-30"/>
       <use xlink:href="#ArialMT-2e" transform="translate(55.615234 0)"/>
       <use xlink:href="#ArialMT-37" transform="translate(83.398438 0)"/>
       <use xlink:href="#ArialMT-35" transform="translate(139.013672 0)"/>
      </g>
     </g>
    </g>
    <g id="text_25">
     <!-- NCPR -->
     <g style="fill: #262626" transform="translate(404.618281 151.080938) rotate(-90) scale(0.12 -0.12)">
      <defs>
       <path id="ArialMT-4e" d="M 488 0 
L 488 4581 
L 1109 4581 
L 3516 984 
L 3516 4581 
L 4097 4581 
L 4097 0 
L 3475 0 
L 1069 3600 
L 1069 0 
L 488 0 
z
" transform="scale(0.015625)"/>
       <path id="ArialMT-50" d="M 494 0 
L 494 4581 
L 2222 4581 
Q 2678 4581 2919 4538 
Q 3256 4481 3484 4323 
Q 3713 4166 3852 3881 
Q 3991 3597 3991 3256 
Q 3991 2672 3619 2267 
Q 3247 1863 2275 1863 
L 1100 1863 
L 1100 0 
L 494 0 
z
M 1100 2403 
L 2284 2403 
Q 2872 2403 3119 2622 
Q 3366 2841 3366 3238 
Q 3366 3525 3220 3729 
Q 3075 3934 2838 4000 
Q 2684 4041 2272 4041 
L 1100 4041 
L 1100 2403 
z
" transform="scale(0.015625)"/>
      </defs>
      <use xlink:href="#ArialMT-4e"/>
      <use xlink:href="#ArialMT-43" transform="translate(72.216797 0)"/>
      <use xlink:href="#ArialMT-50" transform="translate(144.433594 0)"/>
      <use xlink:href="#ArialMT-52" transform="translate(211.132812 0)"/>
     </g>
    </g>
   </g>
   <g id="FillBetweenPolyCollection_4">
    <defs>
     <path id="m52161ea976" d="M 503.492311 -146.583404 
L 503.412689 -146.583404 
L 503.364451 -147.390069 
L 503.286827 -148.196733 
L 503.187124 -149.003397 
L 503.090426 -149.810062 
L 503.031497 -150.616726 
L 503.034957 -151.423391 
L 503.098186 -152.230055 
L 503.191715 -153.03672 
L 503.276158 -153.843384 
L 503.320758 -154.650048 
L 503.311672 -155.456713 
L 503.250721 -156.263377 
L 503.150852 -157.070042 
L 503.030582 -157.876706 
L 502.906719 -158.683371 
L 502.786941 -159.490035 
L 502.664307 -160.2967 
L 502.512227 -161.103364 
L 502.279447 -161.910028 
L 501.89377 -162.716693 
L 501.287455 -163.523357 
L 500.442823 -164.330022 
L 499.429731 -165.136686 
L 498.3909 -165.943351 
L 497.452627 -166.750015 
L 496.602734 -167.55668 
L 495.635477 -168.363344 
L 494.233679 -169.170008 
L 492.137691 -169.976673 
L 489.260712 -170.783337 
L 485.666067 -171.590002 
L 481.476143 -172.396666 
L 476.859642 -173.203331 
L 472.141401 -174.009995 
L 467.904557 -174.81666 
L 464.91675 -175.623324 
L 463.864127 -176.429988 
L 465.052791 -177.236653 
L 468.268975 -178.043317 
L 472.875219 -178.849982 
L 478.066395 -179.656646 
L 483.127616 -180.463311 
L 487.580455 -181.269975 
L 491.212657 -182.07664 
L 494.038701 -182.883304 
L 496.214603 -183.689968 
L 497.920779 -184.496633 
L 499.266128 -185.303297 
L 500.276584 -186.109962 
L 500.963185 -186.916626 
L 501.390269 -187.723291 
L 501.674992 -188.529955 
L 501.928143 -189.33662 
L 502.200725 -190.143284 
L 502.481854 -190.949948 
L 502.736706 -191.756613 
L 502.941961 -192.563277 
L 503.092997 -193.369942 
L 503.192302 -194.176606 
L 503.242178 -194.983271 
L 503.24991 -195.789935 
L 503.234652 -196.5966 
L 503.223326 -197.403264 
L 503.236271 -198.209928 
L 503.275248 -199.016593 
L 503.324082 -199.823257 
L 503.359353 -200.629922 
L 503.360972 -201.436586 
L 503.317945 -202.243251 
L 503.233085 -203.049915 
L 503.128216 -203.85658 
L 503.04195 -204.663244 
L 503.012588 -205.469908 
L 503.0545 -206.276573 
L 503.148613 -207.083237 
L 503.256701 -207.889902 
L 503.346044 -208.696566 
L 503.403657 -209.503231 
L 503.433584 -210.309895 
L 503.446285 -211.11656 
L 503.450606 -211.923224 
L 503.451279 -212.729888 
L 503.449413 -213.536553 
L 503.443217 -214.343217 
L 503.428365 -215.149882 
L 503.399293 -215.956546 
L 503.352826 -216.763211 
L 503.292799 -217.569875 
L 503.231059 -218.376539 
L 503.181548 -219.183204 
L 503.151837 -219.989868 
L 503.14124 -220.796533 
L 503.147411 -221.603197 
L 503.171909 -222.409862 
L 503.216659 -223.216526 
L 503.276453 -224.023191 
L 503.338294 -224.829855 
L 503.388979 -225.636519 
L 503.42244 -226.443184 
L 503.48256 -226.443184 
L 503.48256 -226.443184 
L 503.516021 -225.636519 
L 503.566706 -224.829855 
L 503.628547 -224.023191 
L 503.688341 -223.216526 
L 503.733091 -222.409862 
L 503.757589 -221.603197 
L 503.76376 -220.796533 
L 503.753163 -219.989868 
L 503.723452 -219.183204 
L 503.673941 -218.376539 
L 503.612201 -217.569875 
L 503.552174 -216.763211 
L 503.505707 -215.956546 
L 503.476635 -215.149882 
L 503.461783 -214.343217 
L 503.455587 -213.536553 
L 503.453721 -212.729888 
L 503.454394 -211.923224 
L 503.458715 -211.11656 
L 503.471416 -210.309895 
L 503.501343 -209.503231 
L 503.558956 -208.696566 
L 503.648299 -207.889902 
L 503.756387 -207.083237 
L 503.8505 -206.276573 
L 503.892412 -205.469908 
L 503.86305 -204.663244 
L 503.776784 -203.85658 
L 503.671915 -203.049915 
L 503.587055 -202.243251 
L 503.544028 -201.436586 
L 503.545647 -200.629922 
L 503.580918 -199.823257 
L 503.629752 -199.016593 
L 503.668729 -198.209928 
L 503.681674 -197.403264 
L 503.670348 -196.5966 
L 503.65509 -195.789935 
L 503.662822 -194.983271 
L 503.712698 -194.176606 
L 503.812003 -193.369942 
L 503.963039 -192.563277 
L 504.168294 -191.756613 
L 504.423146 -190.949948 
L 504.704275 -190.143284 
L 504.976857 -189.33662 
L 505.230008 -188.529955 
L 505.514731 -187.723291 
L 505.941815 -186.916626 
L 506.628416 -186.109962 
L 507.638872 -185.303297 
L 508.984221 -184.496633 
L 510.690397 -183.689968 
L 512.866299 -182.883304 
L 515.692343 -182.07664 
L 519.324545 -181.269975 
L 523.777384 -180.463311 
L 528.838605 -179.656646 
L 534.029781 -178.849982 
L 538.636025 -178.043317 
L 541.852209 -177.236653 
L 543.040873 -176.429988 
L 541.98825 -175.623324 
L 539.000443 -174.81666 
L 534.763599 -174.009995 
L 530.045358 -173.203331 
L 525.428857 -172.396666 
L 521.238933 -171.590002 
L 517.644288 -170.783337 
L 514.767309 -169.976673 
L 512.671321 -169.170008 
L 511.269523 -168.363344 
L 510.302266 -167.55668 
L 509.452373 -166.750015 
L 508.5141 -165.943351 
L 507.475269 -165.136686 
L 506.462177 -164.330022 
L 505.617545 -163.523357 
L 505.01123 -162.716693 
L 504.625553 -161.910028 
L 504.392773 -161.103364 
L 504.240693 -160.2967 
L 504.118059 -159.490035 
L 503.998281 -158.683371 
L 503.874418 -157.876706 
L 503.754148 -157.070042 
L 503.654279 -156.263377 
L 503.593328 -155.456713 
L 503.584242 -154.650048 
L 503.628842 -153.843384 
L 503.713285 -153.03672 
L 503.806814 -152.230055 
L 503.870043 -151.423391 
L 503.873503 -150.616726 
L 503.814574 -149.810062 
L 503.717876 -149.003397 
L 503.618173 -148.196733 
L 503.540549 -147.390069 
L 503.492311 -146.583404 
z
" style="stroke: #4c4c4c; stroke-width: 1.25"/>
    </defs>
    <g clip-path="url(#pcd75e2d6f3)">
     <use xlink:href="#m52161ea976" x="0" y="288" style="fill: #5875a4; stroke: #4c4c4c; stroke-width: 1.25"/>
    </g>
   </g>
   <g id="FillBetweenPolyCollection_5">
    <defs>
     <path id="md41ead3704" d="M 613.701395 -130.051091 
L 613.673605 -130.051091 
L 613.64178 -131.201417 
L 613.59895 -132.351743 
L 613.58655 -133.502068 
L 613.619759 -134.652394 
L 613.660743 -135.802719 
L 613.681279 -136.953045 
L 613.686649 -138.10337 
L 613.687431 -139.253696 
L 613.687496 -140.404022 
L 613.687489 -141.554347 
L 613.687304 -142.704673 
L 613.685282 -143.854998 
L 613.671922 -145.005324 
L 613.618377 -146.155649 
L 613.489953 -147.305975 
L 613.318472 -148.456301 
L 613.230809 -149.606626 
L 613.298728 -150.756952 
L 613.41574 -151.907277 
L 613.435352 -153.057603 
L 613.335547 -154.207928 
L 613.183122 -155.358254 
L 613.024807 -156.50858 
L 612.856496 -157.658905 
L 612.667223 -158.809231 
L 612.463006 -159.959556 
L 612.249287 -161.109882 
L 611.973436 -162.260207 
L 611.507674 -163.410533 
L 610.7741 -164.560858 
L 609.703015 -165.711184 
L 608.110868 -166.86151 
L 605.881894 -168.011835 
L 602.912877 -169.162161 
L 598.554272 -170.312486 
L 591.863138 -171.462812 
L 583.045444 -172.613137 
L 574.455058 -173.763463 
L 569.5935 -174.913789 
L 570.534107 -176.064114 
L 576.768203 -177.21444 
L 586.021313 -178.364765 
L 595.207618 -179.515091 
L 602.142997 -180.665416 
L 606.62407 -181.815742 
L 609.330754 -182.966068 
L 610.809168 -184.116393 
L 611.488012 -185.266719 
L 611.80237 -186.417044 
L 612.060387 -187.56737 
L 612.337263 -188.717695 
L 612.549128 -189.868021 
L 612.618359 -191.018347 
L 612.612433 -192.168672 
L 612.699186 -193.318998 
L 612.904392 -194.469323 
L 613.099182 -195.619649 
L 613.214465 -196.769974 
L 613.271437 -197.9203 
L 613.320568 -199.070625 
L 613.395192 -200.220951 
L 613.48893 -201.371277 
L 613.573009 -202.521602 
L 613.600535 -203.671928 
L 613.550573 -204.822253 
L 613.488426 -205.972579 
L 613.505002 -207.122904 
L 613.581245 -208.27323 
L 613.625205 -209.423556 
L 613.608833 -210.573881 
L 613.5847 -211.724207 
L 613.602844 -212.874532 
L 613.646228 -214.024858 
L 613.67565 -215.175183 
L 613.685497 -216.325509 
L 613.687301 -217.475835 
L 613.687488 -218.62616 
L 613.6875 -219.776486 
L 613.6875 -220.926811 
L 613.6875 -222.077137 
L 613.6875 -223.227462 
L 613.6875 -224.377788 
L 613.6875 -225.528114 
L 613.6875 -226.678439 
L 613.6875 -227.828765 
L 613.6875 -228.97909 
L 613.6875 -230.129416 
L 613.6875 -231.279741 
L 613.6875 -232.430067 
L 613.687497 -233.580392 
L 613.687431 -234.730718 
L 613.686649 -235.881044 
L 613.681279 -237.031369 
L 613.660743 -238.181695 
L 613.619759 -239.33202 
L 613.58655 -240.482346 
L 613.59895 -241.632671 
L 613.64178 -242.782997 
L 613.673605 -243.933323 
L 613.701395 -243.933323 
L 613.701395 -243.933323 
L 613.73322 -242.782997 
L 613.77605 -241.632671 
L 613.78845 -240.482346 
L 613.755241 -239.33202 
L 613.714257 -238.181695 
L 613.693721 -237.031369 
L 613.688351 -235.881044 
L 613.687569 -234.730718 
L 613.687503 -233.580392 
L 613.6875 -232.430067 
L 613.6875 -231.279741 
L 613.6875 -230.129416 
L 613.6875 -228.97909 
L 613.6875 -227.828765 
L 613.6875 -226.678439 
L 613.6875 -225.528114 
L 613.6875 -224.377788 
L 613.6875 -223.227462 
L 613.6875 -222.077137 
L 613.6875 -220.926811 
L 613.6875 -219.776486 
L 613.687512 -218.62616 
L 613.687699 -217.475835 
L 613.689503 -216.325509 
L 613.69935 -215.175183 
L 613.728772 -214.024858 
L 613.772156 -212.874532 
L 613.7903 -211.724207 
L 613.766167 -210.573881 
L 613.749795 -209.423556 
L 613.793755 -208.27323 
L 613.869998 -207.122904 
L 613.886574 -205.972579 
L 613.824427 -204.822253 
L 613.774465 -203.671928 
L 613.801991 -202.521602 
L 613.88607 -201.371277 
L 613.979808 -200.220951 
L 614.054432 -199.070625 
L 614.103563 -197.9203 
L 614.160535 -196.769974 
L 614.275818 -195.619649 
L 614.470608 -194.469323 
L 614.675814 -193.318998 
L 614.762567 -192.168672 
L 614.756641 -191.018347 
L 614.825872 -189.868021 
L 615.037737 -188.717695 
L 615.314613 -187.56737 
L 615.57263 -186.417044 
L 615.886988 -185.266719 
L 616.565832 -184.116393 
L 618.044246 -182.966068 
L 620.75093 -181.815742 
L 625.232003 -180.665416 
L 632.167382 -179.515091 
L 641.353687 -178.364765 
L 650.606797 -177.21444 
L 656.840893 -176.064114 
L 657.7815 -174.913789 
L 652.919942 -173.763463 
L 644.329556 -172.613137 
L 635.511862 -171.462812 
L 628.820728 -170.312486 
L 624.462123 -169.162161 
L 621.493106 -168.011835 
L 619.264132 -166.86151 
L 617.671985 -165.711184 
L 616.6009 -164.560858 
L 615.867326 -163.410533 
L 615.401564 -162.260207 
L 615.125713 -161.109882 
L 614.911994 -159.959556 
L 614.707777 -158.809231 
L 614.518504 -157.658905 
L 614.350193 -156.50858 
L 614.191878 -155.358254 
L 614.039453 -154.207928 
L 613.939648 -153.057603 
L 613.95926 -151.907277 
L 614.076272 -150.756952 
L 614.144191 -149.606626 
L 614.056528 -148.456301 
L 613.885047 -147.305975 
L 613.756623 -146.155649 
L 613.703078 -145.005324 
L 613.689718 -143.854998 
L 613.687696 -142.704673 
L 613.687511 -141.554347 
L 613.687504 -140.404022 
L 613.687569 -139.253696 
L 613.688351 -138.10337 
L 613.693721 -136.953045 
L 613.714257 -135.802719 
L 613.755241 -134.652394 
L 613.78845 -133.502068 
L 613.77605 -132.351743 
L 613.73322 -131.201417 
L 613.701395 -130.051091 
z
" style="stroke: #4c4c4c; stroke-width: 1.25"/>
    </defs>
    <g clip-path="url(#pcd75e2d6f3)">
     <use xlink:href="#md41ead3704" x="0" y="288" style="fill: #5875a4; stroke: #4c4c4c; stroke-width: 1.25"/>
    </g>
   </g>
   <g id="FillBetweenPolyCollection_6">
    <defs>
     <path id="m3a5f242310" d="M 723.93341 -57.121193 
L 723.91159 -57.121193 
L 723.896255 -59.076737 
L 723.873424 -61.032281 
L 723.85116 -62.987825 
L 723.841884 -64.943369 
L 723.851683 -66.898914 
L 723.87414 -68.854458 
L 723.896828 -70.810002 
L 723.911906 -72.765546 
L 723.919101 -74.72109 
L 723.921647 -76.676634 
L 723.922297 -78.632178 
L 723.922266 -80.587722 
L 723.921615 -82.543266 
L 723.919611 -84.49881 
L 723.91515 -86.454354 
L 723.907961 -88.409898 
L 723.900142 -90.365442 
L 723.895771 -92.320987 
L 723.897634 -94.276531 
L 723.904365 -96.232075 
L 723.911447 -98.187619 
L 723.914197 -100.143163 
L 723.908589 -102.098707 
L 723.8904 -104.054251 
L 723.856875 -106.009795 
L 723.811625 -107.965339 
L 723.76649 -109.920883 
L 723.733759 -111.876427 
L 723.713732 -113.831971 
L 723.694268 -115.787515 
L 723.668023 -117.74306 
L 723.645583 -119.698604 
L 723.64231 -121.654148 
L 723.654401 -123.609692 
L 723.656708 -125.565236 
L 723.623251 -127.52078 
L 723.546054 -129.476324 
L 723.439548 -131.431868 
L 723.332894 -133.387412 
L 723.254911 -135.342956 
L 723.216471 -137.2985 
L 723.197019 -139.254044 
L 723.147516 -141.209588 
L 723.019799 -143.165133 
L 722.804554 -145.120677 
L 722.535087 -147.076221 
L 722.242349 -149.031765 
L 721.908716 -150.987309 
L 721.474962 -152.942853 
L 720.886007 -154.898397 
L 720.121853 -156.853941 
L 719.199924 -158.809485 
L 718.160193 -160.765029 
L 717.026565 -162.720573 
L 715.760886 -164.676117 
L 714.271785 -166.631662 
L 712.512121 -168.587206 
L 710.622091 -170.54275 
L 709.016463 -172.498294 
L 708.277375 -174.453838 
L 708.80427 -176.409382 
L 710.46898 -178.364926 
L 712.666041 -180.32047 
L 714.753593 -182.276014 
L 716.420624 -184.231558 
L 717.680004 -186.187102 
L 718.659014 -188.142646 
L 719.458682 -190.09819 
L 720.133592 -192.053735 
L 720.710072 -194.009279 
L 721.197147 -195.964823 
L 721.598895 -197.920367 
L 721.92865 -199.875911 
L 722.207697 -201.831455 
L 722.448795 -203.786999 
L 722.647888 -205.742543 
L 722.799552 -207.698087 
L 722.918386 -209.653631 
L 723.033925 -211.609175 
L 723.162165 -213.564719 
L 723.293204 -215.520263 
L 723.410288 -217.475808 
L 723.510393 -219.431352 
L 723.599786 -221.386896 
L 723.674926 -223.34244 
L 723.717033 -225.297984 
L 723.711984 -227.253528 
L 723.675308 -229.209072 
L 723.649058 -231.164616 
L 723.665797 -233.12016 
L 723.718747 -235.075704 
L 723.774599 -237.031248 
L 723.81072 -238.986792 
L 723.83075 -240.942336 
L 723.848851 -242.897881 
L 723.870906 -244.853425 
L 723.892695 -246.808969 
L 723.908604 -248.764513 
L 723.917317 -250.720057 
L 723.927683 -250.720057 
L 723.927683 -250.720057 
L 723.936396 -248.764513 
L 723.952305 -246.808969 
L 723.974094 -244.853425 
L 723.996149 -242.897881 
L 724.01425 -240.942336 
L 724.03428 -238.986792 
L 724.070401 -237.031248 
L 724.126253 -235.075704 
L 724.179203 -233.12016 
L 724.195942 -231.164616 
L 724.169692 -229.209072 
L 724.133016 -227.253528 
L 724.127967 -225.297984 
L 724.170074 -223.34244 
L 724.245214 -221.386896 
L 724.334607 -219.431352 
L 724.434712 -217.475808 
L 724.551796 -215.520263 
L 724.682835 -213.564719 
L 724.811075 -211.609175 
L 724.926614 -209.653631 
L 725.045448 -207.698087 
L 725.197112 -205.742543 
L 725.396205 -203.786999 
L 725.637303 -201.831455 
L 725.91635 -199.875911 
L 726.246105 -197.920367 
L 726.647853 -195.964823 
L 727.134928 -194.009279 
L 727.711408 -192.053735 
L 728.386318 -190.09819 
L 729.185986 -188.142646 
L 730.164996 -186.187102 
L 731.424376 -184.231558 
L 733.091407 -182.276014 
L 735.178959 -180.32047 
L 737.37602 -178.364926 
L 739.04073 -176.409382 
L 739.567625 -174.453838 
L 738.828537 -172.498294 
L 737.222909 -170.54275 
L 735.332879 -168.587206 
L 733.573215 -166.631662 
L 732.084114 -164.676117 
L 730.818435 -162.720573 
L 729.684807 -160.765029 
L 728.645076 -158.809485 
L 727.723147 -156.853941 
L 726.958993 -154.898397 
L 726.370038 -152.942853 
L 725.936284 -150.987309 
L 725.602651 -149.031765 
L 725.309913 -147.076221 
L 725.040446 -145.120677 
L 724.825201 -143.165133 
L 724.697484 -141.209588 
L 724.647981 -139.254044 
L 724.628529 -137.2985 
L 724.590089 -135.342956 
L 724.512106 -133.387412 
L 724.405452 -131.431868 
L 724.298946 -129.476324 
L 724.221749 -127.52078 
L 724.188292 -125.565236 
L 724.190599 -123.609692 
L 724.20269 -121.654148 
L 724.199417 -119.698604 
L 724.176977 -117.74306 
L 724.150732 -115.787515 
L 724.131268 -113.831971 
L 724.111241 -111.876427 
L 724.07851 -109.920883 
L 724.033375 -107.965339 
L 723.988125 -106.009795 
L 723.9546 -104.054251 
L 723.936411 -102.098707 
L 723.930803 -100.143163 
L 723.933553 -98.187619 
L 723.940635 -96.232075 
L 723.947366 -94.276531 
L 723.949229 -92.320987 
L 723.944858 -90.365442 
L 723.937039 -88.409898 
L 723.92985 -86.454354 
L 723.925389 -84.49881 
L 723.923385 -82.543266 
L 723.922734 -80.587722 
L 723.922703 -78.632178 
L 723.923353 -76.676634 
L 723.925899 -74.72109 
L 723.933094 -72.765546 
L 723.948172 -70.810002 
L 723.97086 -68.854458 
L 723.993317 -66.898914 
L 724.003116 -64.943369 
L 723.99384 -62.987825 
L 723.971576 -61.032281 
L 723.948745 -59.076737 
L 723.93341 -57.121193 
z
" style="stroke: #4c4c4c; stroke-width: 1.25"/>
    </defs>
    <g clip-path="url(#pcd75e2d6f3)">
     <use xlink:href="#m3a5f242310" x="0" y="288" style="fill: #5875a4; stroke: #4c4c4c; stroke-width: 1.25"/>
    </g>
   </g>
   <g id="line2d_24">
    <path d="M 473.607033 114.24058 
L 533.297967 114.24058 
" clip-path="url(#pcd75e2d6f3)" style="fill: none; stroke-dasharray: 1.5625,0.9375; stroke-dashoffset: 0; stroke: #4c4c4c; stroke-width: 1.25"/>
   </g>
   <g id="line2d_25">
    <path d="M 464.20068 111.827925 
L 542.70432 111.827925 
" clip-path="url(#pcd75e2d6f3)" style="fill: none; stroke-dasharray: 3.125,1.25; stroke-dashoffset: 0; stroke: #4c4c4c; stroke-width: 1.25"/>
   </g>
   <g id="line2d_26">
    <path d="M 471.344923 109.41801 
L 535.560077 109.41801 
" clip-path="url(#pcd75e2d6f3)" style="fill: none; stroke-dasharray: 1.5625,0.9375; stroke-dashoffset: 0; stroke: #4c4c4c; stroke-width: 1.25"/>
   </g>
   <g id="line2d_27">
    <path d="M 580.904686 115.100197 
L 646.470314 115.100197 
" clip-path="url(#pcd75e2d6f3)" style="fill: none; stroke-dasharray: 1.5625,0.9375; stroke-dashoffset: 0; stroke: #4c4c4c; stroke-width: 1.25"/>
   </g>
   <g id="line2d_28">
    <path d="M 569.770572 112.869659 
L 657.604428 112.869659 
" clip-path="url(#pcd75e2d6f3)" style="fill: none; stroke-dasharray: 3.125,1.25; stroke-dashoffset: 0; stroke: #4c4c4c; stroke-width: 1.25"/>
   </g>
   <g id="line2d_29">
    <path d="M 578.148453 110.613971 
L 649.226547 110.613971 
" clip-path="url(#pcd75e2d6f3)" style="fill: none; stroke-dasharray: 1.5625,0.9375; stroke-dashoffset: 0; stroke: #4c4c4c; stroke-width: 1.25"/>
   </g>
   <g id="line2d_30">
    <path d="M 713.818077 120.864125 
L 734.026923 120.864125 
" clip-path="url(#pcd75e2d6f3)" style="fill: none; stroke-dasharray: 1.5625,0.9375; stroke-dashoffset: 0; stroke: #4c4c4c; stroke-width: 1.25"/>
   </g>
   <g id="line2d_31">
    <path d="M 708.333824 113.336654 
L 739.511176 113.336654 
" clip-path="url(#pcd75e2d6f3)" style="fill: none; stroke-dasharray: 3.125,1.25; stroke-dashoffset: 0; stroke: #4c4c4c; stroke-width: 1.25"/>
   </g>
   <g id="line2d_32">
    <path d="M 714.04627 106.386581 
L 733.79873 106.386581 
" clip-path="url(#pcd75e2d6f3)" style="fill: none; stroke-dasharray: 1.5625,0.9375; stroke-dashoffset: 0; stroke: #4c4c4c; stroke-width: 1.25"/>
   </g>
   <g id="patch_8">
    <path d="M 448.335 240.55875 
L 448.335 27.6 
" style="fill: none; stroke: #cccccc; stroke-width: 1.25; stroke-linejoin: miter; stroke-linecap: square"/>
   </g>
   <g id="patch_9">
    <path d="M 779.04 240.55875 
L 779.04 27.6 
" style="fill: none; stroke: #cccccc; stroke-width: 1.25; stroke-linejoin: miter; stroke-linecap: square"/>
   </g>
   <g id="patch_10">
    <path d="M 448.335 240.55875 
L 779.04 240.55875 
" style="fill: none; stroke: #cccccc; stroke-width: 1.25; stroke-linejoin: miter; stroke-linecap: square"/>
   </g>
   <g id="patch_11">
    <path d="M 448.335 27.6 
L 779.04 27.6 
" style="fill: none; stroke: #cccccc; stroke-width: 1.25; stroke-linejoin: miter; stroke-linecap: square"/>
   </g>
   <g id="text_26">
    <!-- NCPR Distribution -->
    <g style="fill: #262626" transform="translate(565.00875 21.6) scale(0.12 -0.12)">
     <use xlink:href="#ArialMT-4e"/>
     <use xlink:href="#ArialMT-43" transform="translate(72.216797 0)"/>
     <use xlink:href="#ArialMT-50" transform="translate(144.433594 0)"/>
     <use xlink:href="#ArialMT-52" transform="translate(211.132812 0)"/>
     <use xlink:href="#ArialMT-20" transform="translate(283.349609 0)"/>
     <use xlink:href="#ArialMT-44" transform="translate(311.132812 0)"/>
     <use xlink:href="#ArialMT-69" transform="translate(383.349609 0)"/>
     <use xlink:href="#ArialMT-73" transform="translate(405.566406 0)"/>
     <use xlink:href="#ArialMT-74" transform="translate(455.566406 0)"/>
     <use xlink:href="#ArialMT-72" transform="translate(483.349609 0)"/>
     <use xlink:href="#ArialMT-69" transform="translate(516.650391 0)"/>
     <use xlink:href="#ArialMT-62" transform="translate(538.867188 0)"/>
     <use xlink:href="#ArialMT-75" transform="translate(594.482422 0)"/>
     <use xlink:href="#ArialMT-74" transform="translate(650.097656 0)"/>
     <use xlink:href="#ArialMT-69" transform="translate(677.880859 0)"/>
     <use xlink:href="#ArialMT-6f" transform="translate(700.097656 0)"/>
     <use xlink:href="#ArialMT-6e" transform="translate(755.712891 0)"/>
    </g>
   </g>
  </g>
 </g>
 <defs>
  <clipPath id="p5c0ec792d0">
   <rect x="52.56" y="27.6" width="330.705" height="212.95875"/>
  </clipPath>
  <clipPath id="pcd75e2d6f3">
   <rect x="448.335" y="27.6" width="330.705" height="212.95875"/>
  </clipPath>
 </defs>
</svg>
