<?xml version="1.0" encoding="utf-8" standalone="no"?>
<!DOCTYPE svg PUBLIC "-//W3C//DTD SVG 1.1//EN"
  "http://www.w3.org/Graphics/SVG/1.1/DTD/svg11.dtd">
<svg xmlns:xlink="http://www.w3.org/1999/xlink" width="576pt" height="360pt" viewBox="0 0 576 360" xmlns="http://www.w3.org/2000/svg" version="1.1">
 <metadata>
  <rdf:RDF xmlns:dc="http://purl.org/dc/elements/1.1/" xmlns:cc="http://creativecommons.org/ns#" xmlns:rdf="http://www.w3.org/1999/02/22-rdf-syntax-ns#">
   <cc:Work>
    <dc:type rdf:resource="http://purl.org/dc/dcmitype/StillImage"/>
    <dc:date>2026-02-26T13:07:24.817617</dc:date>
    <dc:format>image/svg+xml</dc:format>
    <dc:creator>
     <cc:Agent>
      <dc:title>Matplotlib v3.10.0, https://matplotlib.org/</dc:title>
     </cc:Agent>
    </dc:creator>
   </cc:Work>
  </rdf:RDF>
 </metadata>
 <defs>
  <style type="text/css">*{stroke-linejoin: round; stroke-linecap: butt}</style>
 </defs>
 <g id="figure_1">
  <g id="patch_1">
   <path d="M 0 360 
L 576 360 
L 576 0 
L 0 0 
z
" style="fill: #ffffff"/>
  </g>
  <g id="axes_1">
   <g id="patch_2">
    <path d="M 61.74 312.60375 
L 563.04 312.60375 
L 563.04 27.65625 
L 61.74 27.65625 
z
" style="fill: #ffffff"/>
   </g>
   <g id="matplotlib.axis_1">
    <g id="xtick_1">
     <g id="line2d_1">
      <path d="M 84.526364 312.60375 
L 84.526364 27.65625 
" clip-path="url(#p0f3d6176b5)" style="fill: none; stroke: #cccccc; stroke-linecap: round"/>
     </g>
     <g id="text_1">
      <!-- 0 -->
      <g style="fill: #262626" transform="translate(81.467848 329.977344) scale(0.11 -0.11)">
       <defs>
        <path id="ArialMT-30" d="M 266 2259 
Q 266 3072 433 3567 
Q 600 4063 929 4331 
Q 1259 4600 1759 4600 
Q 2128 4600 2406 4451 
Q 2684 4303 2865 4023 
Q 3047 3744 3150 3342 
Q 3253 2941 3253 2259 
Q 3253 1453 3087 958 
Q 2922 463 2592 192 
Q 2263 -78 1759 -78 
Q 1097 -78 719 397 
Q 266 969 266 2259 
z
M 844 2259 
Q 844 1131 1108 757 
Q 1372 384 1759 384 
Q 2147 384 2411 759 
Q 2675 1134 2675 2259 
Q 2675 3391 2411 3762 
Q 2147 4134 1753 4134 
Q 1366 4134 1134 3806 
Q 844 3388 844 2259 
z
" transform="scale(0.015625)"/>
       </defs>
       <use xlink:href="#ArialMT-30"/>
      </g>
     </g>
    </g>
    <g id="xtick_2">
     <g id="line2d_2">
      <path d="M 168.115372 312.60375 
L 168.115372 27.65625 
" clip-path="url(#p0f3d6176b5)" style="fill: none; stroke: #cccccc; stroke-linecap: round"/>
     </g>
     <g id="text_2">
      <!-- 500 -->
      <g style="fill: #262626" transform="translate(158.939825 329.977344) scale(0.11 -0.11)">
       <defs>
        <path id="ArialMT-35" d="M 266 1200 
L 856 1250 
Q 922 819 1161 601 
Q 1400 384 1738 384 
Q 2144 384 2425 690 
Q 2706 997 2706 1503 
Q 2706 1984 2436 2262 
Q 2166 2541 1728 2541 
Q 1456 2541 1237 2417 
Q 1019 2294 894 2097 
L 366 2166 
L 809 4519 
L 3088 4519 
L 3088 3981 
L 1259 3981 
L 1013 2750 
Q 1425 3038 1878 3038 
Q 2478 3038 2890 2622 
Q 3303 2206 3303 1553 
Q 3303 931 2941 478 
Q 2500 -78 1738 -78 
Q 1113 -78 717 272 
Q 322 622 266 1200 
z
" transform="scale(0.015625)"/>
       </defs>
       <use xlink:href="#ArialMT-35"/>
       <use xlink:href="#ArialMT-30" transform="translate(55.615234 0)"/>
       <use xlink:href="#ArialMT-30" transform="translate(111.230469 0)"/>
      </g>
     </g>
    </g>
    <g id="xtick_3">
     <g id="line2d_3">
      <path d="M 251.70438 312.60375 
L 251.70438 27.65625 
" clip-path="url(#p0f3d6176b5)" style="fill: none; stroke: #cccccc; stroke-linecap: round"/>
     </g>
     <g id="text_3">
      <!-- 1000 -->
      <g style="fill: #262626" transform="translate(239.470318 329.977344) scale(0.11 -0.11)">
       <defs>
        <path id="ArialMT-31" d="M 2384 0 
L 1822 0 
L 1822 3584 
Q 1619 3391 1289 3197 
Q 959 3003 697 2906 
L 697 3450 
Q 1169 3672 1522 3987 
Q 1875 4303 2022 4600 
L 2384 4600 
L 2384 0 
z
" transform="scale(0.015625)"/>
       </defs>
       <use xlink:href="#ArialMT-31"/>
       <use xlink:href="#ArialMT-30" transform="translate(55.615234 0)"/>
       <use xlink:href="#ArialMT-30" transform="translate(111.230469 0)"/>
       <use xlink:href="#ArialMT-30" transform="translate(166.845703 0)"/>
      </g>
     </g>
    </g>
    <g id="xtick_4">
     <g id="line2d_4">
      <path d="M 335.293388 312.60375 
L 335.293388 27.65625 
" clip-path="url(#p0f3d6176b5)" style="fill: none; stroke: #cccccc; stroke-linecap: round"/>
     </g>
     <g id="text_4">
      <!-- 1500 -->
      <g style="fill: #262626" transform="translate(323.059326 329.977344) scale(0.11 -0.11)">
       <use xlink:href="#ArialMT-31"/>
       <use xlink:href="#ArialMT-35" transform="translate(55.615234 0)"/>
       <use xlink:href="#ArialMT-30" transform="translate(111.230469 0)"/>
       <use xlink:href="#ArialMT-30" transform="translate(166.845703 0)"/>
      </g>
     </g>
    </g>
    <g id="xtick_5">
     <g id="line2d_5">
      <path d="M 418.882396 312.60375 
L 418.882396 27.65625 
" clip-path="url(#p0f3d6176b5)" style="fill: none; stroke: #cccccc; stroke-linecap: round"/>
     </g>
     <g id="text_5">
      <!-- 2000 -->
      <g style="fill: #262626" transform="translate(406.648334 329.977344) scale(0.11 -0.11)">
       <defs>
        <path id="ArialMT-32" d="M 3222 541 
L 3222 0 
L 194 0 
Q 188 203 259 391 
Q 375 700 629 1000 
Q 884 1300 1366 1694 
Q 2113 2306 2375 2664 
Q 2638 3022 2638 3341 
Q 2638 3675 2398 3904 
Q 2159 4134 1775 4134 
Q 1369 4134 1125 3890 
Q 881 3647 878 3216 
L 300 3275 
Q 359 3922 746 4261 
Q 1134 4600 1788 4600 
Q 2447 4600 2831 4234 
Q 3216 3869 3216 3328 
Q 3216 3053 3103 2787 
Q 2991 2522 2730 2228 
Q 2469 1934 1863 1422 
Q 1356 997 1212 845 
Q 1069 694 975 541 
L 3222 541 
z
" transform="scale(0.015625)"/>
       </defs>
       <use xlink:href="#ArialMT-32"/>
       <use xlink:href="#ArialMT-30" transform="translate(55.615234 0)"/>
       <use xlink:href="#ArialMT-30" transform="translate(111.230469 0)"/>
       <use xlink:href="#ArialMT-30" transform="translate(166.845703 0)"/>
      </g>
     </g>
    </g>
    <g id="xtick_6">
     <g id="line2d_6">
      <path d="M 502.471405 312.60375 
L 502.471405 27.65625 
" clip-path="url(#p0f3d6176b5)" style="fill: none; stroke: #cccccc; stroke-linecap: round"/>
     </g>
     <g id="text_6">
      <!-- 2500 -->
      <g style="fill: #262626" transform="translate(490.237342 329.977344) scale(0.11 -0.11)">
       <use xlink:href="#ArialMT-32"/>
       <use xlink:href="#ArialMT-35" transform="translate(55.615234 0)"/>
       <use xlink:href="#ArialMT-30" transform="translate(111.230469 0)"/>
       <use xlink:href="#ArialMT-30" transform="translate(166.845703 0)"/>
      </g>
     </g>
    </g>
    <g id="text_7">
     <!-- IDR Length -->
     <g style="fill: #262626" transform="translate(282.040312 344.752969) scale(0.12 -0.12)">
      <defs>
       <path id="ArialMT-49" d="M 597 0 
L 597 4581 
L 1203 4581 
L 1203 0 
L 597 0 
z
" transform="scale(0.015625)"/>
       <path id="ArialMT-44" d="M 494 0 
L 494 4581 
L 2072 4581 
Q 2606 4581 2888 4516 
Q 3281 4425 3559 4188 
Q 3922 3881 4101 3404 
Q 4281 2928 4281 2316 
Q 4281 1794 4159 1391 
Q 4038 988 3847 723 
Q 3656 459 3429 307 
Q 3203 156 2883 78 
Q 2563 0 2147 0 
L 494 0 
z
M 1100 541 
L 2078 541 
Q 2531 541 2789 625 
Q 3047 709 3200 863 
Q 3416 1078 3536 1442 
Q 3656 1806 3656 2325 
Q 3656 3044 3420 3430 
Q 3184 3816 2847 3947 
Q 2603 4041 2063 4041 
L 1100 4041 
L 1100 541 
z
" transform="scale(0.015625)"/>
       <path id="ArialMT-52" d="M 503 0 
L 503 4581 
L 2534 4581 
Q 3147 4581 3465 4457 
Q 3784 4334 3975 4021 
Q 4166 3709 4166 3331 
Q 4166 2844 3850 2509 
Q 3534 2175 2875 2084 
Q 3116 1969 3241 1856 
Q 3506 1613 3744 1247 
L 4541 0 
L 3778 0 
L 3172 953 
Q 2906 1366 2734 1584 
Q 2563 1803 2427 1890 
Q 2291 1978 2150 2013 
Q 2047 2034 1813 2034 
L 1109 2034 
L 1109 0 
L 503 0 
z
M 1109 2559 
L 2413 2559 
Q 2828 2559 3062 2645 
Q 3297 2731 3419 2920 
Q 3541 3109 3541 3331 
Q 3541 3656 3305 3865 
Q 3069 4075 2559 4075 
L 1109 4075 
L 1109 2559 
z
" transform="scale(0.015625)"/>
       <path id="ArialMT-20" transform="scale(0.015625)"/>
       <path id="ArialMT-4c" d="M 469 0 
L 469 4581 
L 1075 4581 
L 1075 541 
L 3331 541 
L 3331 0 
L 469 0 
z
" transform="scale(0.015625)"/>
       <path id="ArialMT-65" d="M 2694 1069 
L 3275 997 
Q 3138 488 2766 206 
Q 2394 -75 1816 -75 
Q 1088 -75 661 373 
Q 234 822 234 1631 
Q 234 2469 665 2931 
Q 1097 3394 1784 3394 
Q 2450 3394 2872 2941 
Q 3294 2488 3294 1666 
Q 3294 1616 3291 1516 
L 816 1516 
Q 847 969 1125 678 
Q 1403 388 1819 388 
Q 2128 388 2347 550 
Q 2566 713 2694 1069 
z
M 847 1978 
L 2700 1978 
Q 2663 2397 2488 2606 
Q 2219 2931 1791 2931 
Q 1403 2931 1139 2672 
Q 875 2413 847 1978 
z
" transform="scale(0.015625)"/>
       <path id="ArialMT-6e" d="M 422 0 
L 422 3319 
L 928 3319 
L 928 2847 
Q 1294 3394 1984 3394 
Q 2284 3394 2536 3286 
Q 2788 3178 2913 3003 
Q 3038 2828 3088 2588 
Q 3119 2431 3119 2041 
L 3119 0 
L 2556 0 
L 2556 2019 
Q 2556 2363 2490 2533 
Q 2425 2703 2258 2804 
Q 2091 2906 1866 2906 
Q 1506 2906 1245 2678 
Q 984 2450 984 1813 
L 984 0 
L 422 0 
z
" transform="scale(0.015625)"/>
       <path id="ArialMT-67" d="M 319 -275 
L 866 -356 
Q 900 -609 1056 -725 
Q 1266 -881 1628 -881 
Q 2019 -881 2231 -725 
Q 2444 -569 2519 -288 
Q 2563 -116 2559 434 
Q 2191 0 1641 0 
Q 956 0 581 494 
Q 206 988 206 1678 
Q 206 2153 378 2554 
Q 550 2956 876 3175 
Q 1203 3394 1644 3394 
Q 2231 3394 2613 2919 
L 2613 3319 
L 3131 3319 
L 3131 450 
Q 3131 -325 2973 -648 
Q 2816 -972 2473 -1159 
Q 2131 -1347 1631 -1347 
Q 1038 -1347 672 -1080 
Q 306 -813 319 -275 
z
M 784 1719 
Q 784 1066 1043 766 
Q 1303 466 1694 466 
Q 2081 466 2343 764 
Q 2606 1063 2606 1700 
Q 2606 2309 2336 2618 
Q 2066 2928 1684 2928 
Q 1309 2928 1046 2623 
Q 784 2319 784 1719 
z
" transform="scale(0.015625)"/>
       <path id="ArialMT-74" d="M 1650 503 
L 1731 6 
Q 1494 -44 1306 -44 
Q 1000 -44 831 53 
Q 663 150 594 308 
Q 525 466 525 972 
L 525 2881 
L 113 2881 
L 113 3319 
L 525 3319 
L 525 4141 
L 1084 4478 
L 1084 3319 
L 1650 3319 
L 1650 2881 
L 1084 2881 
L 1084 941 
Q 1084 700 1114 631 
Q 1144 563 1211 522 
Q 1278 481 1403 481 
Q 1497 481 1650 503 
z
" transform="scale(0.015625)"/>
       <path id="ArialMT-68" d="M 422 0 
L 422 4581 
L 984 4581 
L 984 2938 
Q 1378 3394 1978 3394 
Q 2347 3394 2619 3248 
Q 2891 3103 3008 2847 
Q 3125 2591 3125 2103 
L 3125 0 
L 2563 0 
L 2563 2103 
Q 2563 2525 2380 2717 
Q 2197 2909 1863 2909 
Q 1613 2909 1392 2779 
Q 1172 2650 1078 2428 
Q 984 2206 984 1816 
L 984 0 
L 422 0 
z
" transform="scale(0.015625)"/>
      </defs>
      <use xlink:href="#ArialMT-49"/>
      <use xlink:href="#ArialMT-44" transform="translate(27.783203 0)"/>
      <use xlink:href="#ArialMT-52" transform="translate(100 0)"/>
      <use xlink:href="#ArialMT-20" transform="translate(172.216797 0)"/>
      <use xlink:href="#ArialMT-4c" transform="translate(200 0)"/>
      <use xlink:href="#ArialMT-65" transform="translate(255.615234 0)"/>
      <use xlink:href="#ArialMT-6e" transform="translate(311.230469 0)"/>
      <use xlink:href="#ArialMT-67" transform="translate(366.845703 0)"/>
      <use xlink:href="#ArialMT-74" transform="translate(422.460938 0)"/>
      <use xlink:href="#ArialMT-68" transform="translate(450.244141 0)"/>
     </g>
    </g>
   </g>
   <g id="matplotlib.axis_2">
    <g id="ytick_1">
     <g id="line2d_7">
      <path d="M 61.74 312.60375 
L 563.04 312.60375 
" clip-path="url(#p0f3d6176b5)" style="fill: none; stroke: #cccccc; stroke-linecap: round"/>
     </g>
     <g id="text_8">
      <!-- 0 -->
      <g style="fill: #262626" transform="translate(46.122969 316.540547) scale(0.11 -0.11)">
       <use xlink:href="#ArialMT-30"/>
      </g>
     </g>
    </g>
    <g id="ytick_2">
     <g id="line2d_8">
      <path d="M 61.74 259.360946 
L 563.04 259.360946 
" clip-path="url(#p0f3d6176b5)" style="fill: none; stroke: #cccccc; stroke-linecap: round"/>
     </g>
     <g id="text_9">
      <!-- 1000 -->
      <g style="fill: #262626" transform="translate(27.771875 263.297743) scale(0.11 -0.11)">
       <use xlink:href="#ArialMT-31"/>
       <use xlink:href="#ArialMT-30" transform="translate(55.615234 0)"/>
       <use xlink:href="#ArialMT-30" transform="translate(111.230469 0)"/>
       <use xlink:href="#ArialMT-30" transform="translate(166.845703 0)"/>
      </g>
     </g>
    </g>
    <g id="ytick_3">
     <g id="line2d_9">
      <path d="M 61.74 206.118142 
L 563.04 206.118142 
" clip-path="url(#p0f3d6176b5)" style="fill: none; stroke: #cccccc; stroke-linecap: round"/>
     </g>
     <g id="text_10">
      <!-- 2000 -->
      <g style="fill: #262626" transform="translate(27.771875 210.054939) scale(0.11 -0.11)">
       <use xlink:href="#ArialMT-32"/>
       <use xlink:href="#ArialMT-30" transform="translate(55.615234 0)"/>
       <use xlink:href="#ArialMT-30" transform="translate(111.230469 0)"/>
       <use xlink:href="#ArialMT-30" transform="translate(166.845703 0)"/>
      </g>
     </g>
    </g>
    <g id="ytick_4">
     <g id="line2d_10">
      <path d="M 61.74 152.875338 
L 563.04 152.875338 
" clip-path="url(#p0f3d6176b5)" style="fill: none; stroke: #cccccc; stroke-linecap: round"/>
     </g>
     <g id="text_11">
      <!-- 3000 -->
      <g style="fill: #262626" transform="translate(27.771875 156.812135) scale(0.11 -0.11)">
       <defs>
        <path id="ArialMT-33" d="M 269 1209 
L 831 1284 
Q 928 806 1161 595 
Q 1394 384 1728 384 
Q 2125 384 2398 659 
Q 2672 934 2672 1341 
Q 2672 1728 2419 1979 
Q 2166 2231 1775 2231 
Q 1616 2231 1378 2169 
L 1441 2663 
Q 1497 2656 1531 2656 
Q 1891 2656 2178 2843 
Q 2466 3031 2466 3422 
Q 2466 3731 2256 3934 
Q 2047 4138 1716 4138 
Q 1388 4138 1169 3931 
Q 950 3725 888 3313 
L 325 3413 
Q 428 3978 793 4289 
Q 1159 4600 1703 4600 
Q 2078 4600 2393 4439 
Q 2709 4278 2876 4000 
Q 3044 3722 3044 3409 
Q 3044 3113 2884 2869 
Q 2725 2625 2413 2481 
Q 2819 2388 3044 2092 
Q 3269 1797 3269 1353 
Q 3269 753 2831 336 
Q 2394 -81 1725 -81 
Q 1122 -81 723 278 
Q 325 638 269 1209 
z
" transform="scale(0.015625)"/>
       </defs>
       <use xlink:href="#ArialMT-33"/>
       <use xlink:href="#ArialMT-30" transform="translate(55.615234 0)"/>
       <use xlink:href="#ArialMT-30" transform="translate(111.230469 0)"/>
       <use xlink:href="#ArialMT-30" transform="translate(166.845703 0)"/>
      </g>
     </g>
    </g>
    <g id="ytick_5">
     <g id="line2d_11">
      <path d="M 61.74 99.632534 
L 563.04 99.632534 
" clip-path="url(#p0f3d6176b5)" style="fill: none; stroke: #cccccc; stroke-linecap: round"/>
     </g>
     <g id="text_12">
      <!-- 4000 -->
      <g style="fill: #262626" transform="translate(27.771875 103.569331) scale(0.11 -0.11)">
       <defs>
        <path id="ArialMT-34" d="M 2069 0 
L 2069 1097 
L 81 1097 
L 81 1613 
L 2172 4581 
L 2631 4581 
L 2631 1613 
L 3250 1613 
L 3250 1097 
L 2631 1097 
L 2631 0 
L 2069 0 
z
M 2069 1613 
L 2069 3678 
L 634 1613 
L 2069 1613 
z
" transform="scale(0.015625)"/>
       </defs>
       <use xlink:href="#ArialMT-34"/>
       <use xlink:href="#ArialMT-30" transform="translate(55.615234 0)"/>
       <use xlink:href="#ArialMT-30" transform="translate(111.230469 0)"/>
       <use xlink:href="#ArialMT-30" transform="translate(166.845703 0)"/>
      </g>
     </g>
    </g>
    <g id="ytick_6">
     <g id="line2d_12">
      <path d="M 61.74 46.389731 
L 563.04 46.389731 
" clip-path="url(#p0f3d6176b5)" style="fill: none; stroke: #cccccc; stroke-linecap: round"/>
     </g>
     <g id="text_13">
      <!-- 5000 -->
      <g style="fill: #262626" transform="translate(27.771875 50.326527) scale(0.11 -0.11)">
       <use xlink:href="#ArialMT-35"/>
       <use xlink:href="#ArialMT-30" transform="translate(55.615234 0)"/>
       <use xlink:href="#ArialMT-30" transform="translate(111.230469 0)"/>
       <use xlink:href="#ArialMT-30" transform="translate(166.845703 0)"/>
      </g>
     </g>
    </g>
    <g id="text_14">
     <!-- Count -->
     <g style="fill: #262626" transform="translate(21.386875 186.139687) rotate(-90) scale(0.12 -0.12)">
      <defs>
       <path id="ArialMT-43" d="M 3763 1606 
L 4369 1453 
Q 4178 706 3683 314 
Q 3188 -78 2472 -78 
Q 1731 -78 1267 223 
Q 803 525 561 1097 
Q 319 1669 319 2325 
Q 319 3041 592 3573 
Q 866 4106 1370 4382 
Q 1875 4659 2481 4659 
Q 3169 4659 3637 4309 
Q 4106 3959 4291 3325 
L 3694 3184 
Q 3534 3684 3231 3912 
Q 2928 4141 2469 4141 
Q 1941 4141 1586 3887 
Q 1231 3634 1087 3207 
Q 944 2781 944 2328 
Q 944 1744 1114 1308 
Q 1284 872 1643 656 
Q 2003 441 2422 441 
Q 2931 441 3284 734 
Q 3638 1028 3763 1606 
z
" transform="scale(0.015625)"/>
       <path id="ArialMT-6f" d="M 213 1659 
Q 213 2581 725 3025 
Q 1153 3394 1769 3394 
Q 2453 3394 2887 2945 
Q 3322 2497 3322 1706 
Q 3322 1066 3130 698 
Q 2938 331 2570 128 
Q 2203 -75 1769 -75 
Q 1072 -75 642 372 
Q 213 819 213 1659 
z
M 791 1659 
Q 791 1022 1069 705 
Q 1347 388 1769 388 
Q 2188 388 2466 706 
Q 2744 1025 2744 1678 
Q 2744 2294 2464 2611 
Q 2184 2928 1769 2928 
Q 1347 2928 1069 2612 
Q 791 2297 791 1659 
z
" transform="scale(0.015625)"/>
       <path id="ArialMT-75" d="M 2597 0 
L 2597 488 
Q 2209 -75 1544 -75 
Q 1250 -75 995 37 
Q 741 150 617 320 
Q 494 491 444 738 
Q 409 903 409 1263 
L 409 3319 
L 972 3319 
L 972 1478 
Q 972 1038 1006 884 
Q 1059 663 1231 536 
Q 1403 409 1656 409 
Q 1909 409 2131 539 
Q 2353 669 2445 892 
Q 2538 1116 2538 1541 
L 2538 3319 
L 3100 3319 
L 3100 0 
L 2597 0 
z
" transform="scale(0.015625)"/>
      </defs>
      <use xlink:href="#ArialMT-43"/>
      <use xlink:href="#ArialMT-6f" transform="translate(72.216797 0)"/>
      <use xlink:href="#ArialMT-75" transform="translate(127.832031 0)"/>
      <use xlink:href="#ArialMT-6e" transform="translate(183.447266 0)"/>
      <use xlink:href="#ArialMT-74" transform="translate(239.0625 0)"/>
     </g>
    </g>
   </g>
   <g id="patch_3">
    <path d="M 84.526364 312.60375 
L 93.640909 312.60375 
L 93.640909 41.225179 
L 84.526364 41.225179 
z
" clip-path="url(#p0f3d6176b5)" style="fill: #2a9d8f; fill-opacity: 0.5; stroke: #ffffff; stroke-width: 0.811636; stroke-linejoin: miter"/>
   </g>
   <g id="patch_4">
    <path d="M 93.640909 312.60375 
L 102.755455 312.60375 
L 102.755455 256.113135 
L 93.640909 256.113135 
z
" clip-path="url(#p0f3d6176b5)" style="fill: #2a9d8f; fill-opacity: 0.5; stroke: #ffffff; stroke-width: 0.811636; stroke-linejoin: miter"/>
   </g>
   <g id="patch_5">
    <path d="M 102.755455 312.60375 
L 111.87 312.60375 
L 111.87 292.584456 
L 102.755455 292.584456 
z
" clip-path="url(#p0f3d6176b5)" style="fill: #2a9d8f; fill-opacity: 0.5; stroke: #ffffff; stroke-width: 0.811636; stroke-linejoin: miter"/>
   </g>
   <g id="patch_6">
    <path d="M 111.87 312.60375 
L 120.984545 312.60375 
L 120.984545 299.399535 
L 111.87 299.399535 
z
" clip-path="url(#p0f3d6176b5)" style="fill: #2a9d8f; fill-opacity: 0.5; stroke: #ffffff; stroke-width: 0.811636; stroke-linejoin: miter"/>
   </g>
   <g id="patch_7">
    <path d="M 120.984545 312.60375 
L 130.099091 312.60375 
L 130.099091 303.818687 
L 120.984545 303.818687 
z
" clip-path="url(#p0f3d6176b5)" style="fill: #2a9d8f; fill-opacity: 0.5; stroke: #ffffff; stroke-width: 0.811636; stroke-linejoin: miter"/>
   </g>
   <g id="patch_8">
    <path d="M 130.099091 312.60375 
L 139.213636 312.60375 
L 139.213636 307.758655 
L 130.099091 307.758655 
z
" clip-path="url(#p0f3d6176b5)" style="fill: #2a9d8f; fill-opacity: 0.5; stroke: #ffffff; stroke-width: 0.811636; stroke-linejoin: miter"/>
   </g>
   <g id="patch_9">
    <path d="M 139.213636 312.60375 
L 148.328182 312.60375 
L 148.328182 309.56891 
L 139.213636 309.56891 
z
" clip-path="url(#p0f3d6176b5)" style="fill: #2a9d8f; fill-opacity: 0.5; stroke: #ffffff; stroke-width: 0.811636; stroke-linejoin: miter"/>
   </g>
   <g id="patch_10">
    <path d="M 148.328182 312.60375 
L 157.442727 312.60375 
L 157.442727 310.527281 
L 148.328182 310.527281 
z
" clip-path="url(#p0f3d6176b5)" style="fill: #2a9d8f; fill-opacity: 0.5; stroke: #ffffff; stroke-width: 0.811636; stroke-linejoin: miter"/>
   </g>
   <g id="patch_11">
    <path d="M 157.442727 312.60375 
L 166.557273 312.60375 
L 166.557273 311.166194 
L 157.442727 311.166194 
z
" clip-path="url(#p0f3d6176b5)" style="fill: #2a9d8f; fill-opacity: 0.5; stroke: #ffffff; stroke-width: 0.811636; stroke-linejoin: miter"/>
   </g>
   <g id="patch_12">
    <path d="M 166.557273 312.60375 
L 175.671818 312.60375 
L 175.671818 311.911594 
L 166.557273 311.911594 
z
" clip-path="url(#p0f3d6176b5)" style="fill: #2a9d8f; fill-opacity: 0.5; stroke: #ffffff; stroke-width: 0.811636; stroke-linejoin: miter"/>
   </g>
   <g id="patch_13">
    <path d="M 175.671818 312.60375 
L 184.786364 312.60375 
L 184.786364 311.911594 
L 175.671818 311.911594 
z
" clip-path="url(#p0f3d6176b5)" style="fill: #2a9d8f; fill-opacity: 0.5; stroke: #ffffff; stroke-width: 0.811636; stroke-linejoin: miter"/>
   </g>
   <g id="patch_14">
    <path d="M 184.786364 312.60375 
L 193.900909 312.60375 
L 193.900909 311.805108 
L 184.786364 311.805108 
z
" clip-path="url(#p0f3d6176b5)" style="fill: #2a9d8f; fill-opacity: 0.5; stroke: #ffffff; stroke-width: 0.811636; stroke-linejoin: miter"/>
   </g>
   <g id="patch_15">
    <path d="M 193.900909 312.60375 
L 203.015455 312.60375 
L 203.015455 312.018079 
L 193.900909 312.018079 
z
" clip-path="url(#p0f3d6176b5)" style="fill: #2a9d8f; fill-opacity: 0.5; stroke: #ffffff; stroke-width: 0.811636; stroke-linejoin: miter"/>
   </g>
   <g id="patch_16">
    <path d="M 203.015455 312.60375 
L 212.13 312.60375 
L 212.13 312.177808 
L 203.015455 312.177808 
z
" clip-path="url(#p0f3d6176b5)" style="fill: #2a9d8f; fill-opacity: 0.5; stroke: #ffffff; stroke-width: 0.811636; stroke-linejoin: miter"/>
   </g>
   <g id="patch_17">
    <path d="M 212.13 312.60375 
L 221.244545 312.60375 
L 221.244545 312.23105 
L 212.13 312.23105 
z
" clip-path="url(#p0f3d6176b5)" style="fill: #2a9d8f; fill-opacity: 0.5; stroke: #ffffff; stroke-width: 0.811636; stroke-linejoin: miter"/>
   </g>
   <g id="patch_18">
    <path d="M 221.244545 312.60375 
L 230.359091 312.60375 
L 230.359091 312.444022 
L 221.244545 312.444022 
z
" clip-path="url(#p0f3d6176b5)" style="fill: #2a9d8f; fill-opacity: 0.5; stroke: #ffffff; stroke-width: 0.811636; stroke-linejoin: miter"/>
   </g>
   <g id="patch_19">
    <path d="M 230.359091 312.60375 
L 239.473636 312.60375 
L 239.473636 312.550507 
L 230.359091 312.550507 
z
" clip-path="url(#p0f3d6176b5)" style="fill: #2a9d8f; fill-opacity: 0.5; stroke: #ffffff; stroke-width: 0.811636; stroke-linejoin: miter"/>
   </g>
   <g id="patch_20">
    <path d="M 239.473636 312.60375 
L 248.588182 312.60375 
L 248.588182 312.444022 
L 239.473636 312.444022 
z
" clip-path="url(#p0f3d6176b5)" style="fill: #2a9d8f; fill-opacity: 0.5; stroke: #ffffff; stroke-width: 0.811636; stroke-linejoin: miter"/>
   </g>
   <g id="patch_21">
    <path d="M 248.588182 312.60375 
L 257.702727 312.60375 
L 257.702727 312.444022 
L 248.588182 312.444022 
z
" clip-path="url(#p0f3d6176b5)" style="fill: #2a9d8f; fill-opacity: 0.5; stroke: #ffffff; stroke-width: 0.811636; stroke-linejoin: miter"/>
   </g>
   <g id="patch_22">
    <path d="M 257.702727 312.60375 
L 266.817273 312.60375 
L 266.817273 312.497264 
L 257.702727 312.497264 
z
" clip-path="url(#p0f3d6176b5)" style="fill: #2a9d8f; fill-opacity: 0.5; stroke: #ffffff; stroke-width: 0.811636; stroke-linejoin: miter"/>
   </g>
   <g id="patch_23">
    <path d="M 266.817273 312.60375 
L 275.931818 312.60375 
L 275.931818 312.550507 
L 266.817273 312.550507 
z
" clip-path="url(#p0f3d6176b5)" style="fill: #2a9d8f; fill-opacity: 0.5; stroke: #ffffff; stroke-width: 0.811636; stroke-linejoin: miter"/>
   </g>
   <g id="patch_24">
    <path d="M 275.931818 312.60375 
L 285.046364 312.60375 
L 285.046364 312.550507 
L 275.931818 312.550507 
z
" clip-path="url(#p0f3d6176b5)" style="fill: #2a9d8f; fill-opacity: 0.5; stroke: #ffffff; stroke-width: 0.811636; stroke-linejoin: miter"/>
   </g>
   <g id="patch_25">
    <path d="M 285.046364 312.60375 
L 294.160909 312.60375 
L 294.160909 312.497264 
L 285.046364 312.497264 
z
" clip-path="url(#p0f3d6176b5)" style="fill: #2a9d8f; fill-opacity: 0.5; stroke: #ffffff; stroke-width: 0.811636; stroke-linejoin: miter"/>
   </g>
   <g id="patch_26">
    <path d="M 294.160909 312.60375 
L 303.275455 312.60375 
L 303.275455 312.550507 
L 294.160909 312.550507 
z
" clip-path="url(#p0f3d6176b5)" style="fill: #2a9d8f; fill-opacity: 0.5; stroke: #ffffff; stroke-width: 0.811636; stroke-linejoin: miter"/>
   </g>
   <g id="patch_27">
    <path d="M 303.275455 312.60375 
L 312.39 312.60375 
L 312.39 312.60375 
L 303.275455 312.60375 
z
" clip-path="url(#p0f3d6176b5)" style="fill: #2a9d8f; fill-opacity: 0.5; stroke: #ffffff; stroke-width: 0.811636; stroke-linejoin: miter"/>
   </g>
   <g id="patch_28">
    <path d="M 312.39 312.60375 
L 321.504545 312.60375 
L 321.504545 312.550507 
L 312.39 312.550507 
z
" clip-path="url(#p0f3d6176b5)" style="fill: #2a9d8f; fill-opacity: 0.5; stroke: #ffffff; stroke-width: 0.811636; stroke-linejoin: miter"/>
   </g>
   <g id="patch_29">
    <path d="M 321.504545 312.60375 
L 330.619091 312.60375 
L 330.619091 312.60375 
L 321.504545 312.60375 
z
" clip-path="url(#p0f3d6176b5)" style="fill: #2a9d8f; fill-opacity: 0.5; stroke: #ffffff; stroke-width: 0.811636; stroke-linejoin: miter"/>
   </g>
   <g id="patch_30">
    <path d="M 330.619091 312.60375 
L 339.733636 312.60375 
L 339.733636 312.550507 
L 330.619091 312.550507 
z
" clip-path="url(#p0f3d6176b5)" style="fill: #2a9d8f; fill-opacity: 0.5; stroke: #ffffff; stroke-width: 0.811636; stroke-linejoin: miter"/>
   </g>
   <g id="patch_31">
    <path d="M 339.733636 312.60375 
L 348.848182 312.60375 
L 348.848182 312.550507 
L 339.733636 312.550507 
z
" clip-path="url(#p0f3d6176b5)" style="fill: #2a9d8f; fill-opacity: 0.5; stroke: #ffffff; stroke-width: 0.811636; stroke-linejoin: miter"/>
   </g>
   <g id="patch_32">
    <path d="M 348.848182 312.60375 
L 357.962727 312.60375 
L 357.962727 312.60375 
L 348.848182 312.60375 
z
" clip-path="url(#p0f3d6176b5)" style="fill: #2a9d8f; fill-opacity: 0.5; stroke: #ffffff; stroke-width: 0.811636; stroke-linejoin: miter"/>
   </g>
   <g id="patch_33">
    <path d="M 357.962727 312.60375 
L 367.077273 312.60375 
L 367.077273 312.60375 
L 357.962727 312.60375 
z
" clip-path="url(#p0f3d6176b5)" style="fill: #2a9d8f; fill-opacity: 0.5; stroke: #ffffff; stroke-width: 0.811636; stroke-linejoin: miter"/>
   </g>
   <g id="patch_34">
    <path d="M 367.077273 312.60375 
L 376.191818 312.60375 
L 376.191818 312.550507 
L 367.077273 312.550507 
z
" clip-path="url(#p0f3d6176b5)" style="fill: #2a9d8f; fill-opacity: 0.5; stroke: #ffffff; stroke-width: 0.811636; stroke-linejoin: miter"/>
   </g>
   <g id="patch_35">
    <path d="M 376.191818 312.60375 
L 385.306364 312.60375 
L 385.306364 312.60375 
L 376.191818 312.60375 
z
" clip-path="url(#p0f3d6176b5)" style="fill: #2a9d8f; fill-opacity: 0.5; stroke: #ffffff; stroke-width: 0.811636; stroke-linejoin: miter"/>
   </g>
   <g id="patch_36">
    <path d="M 385.306364 312.60375 
L 394.420909 312.60375 
L 394.420909 312.60375 
L 385.306364 312.60375 
z
" clip-path="url(#p0f3d6176b5)" style="fill: #2a9d8f; fill-opacity: 0.5; stroke: #ffffff; stroke-width: 0.811636; stroke-linejoin: miter"/>
   </g>
   <g id="patch_37">
    <path d="M 394.420909 312.60375 
L 403.535455 312.60375 
L 403.535455 312.60375 
L 394.420909 312.60375 
z
" clip-path="url(#p0f3d6176b5)" style="fill: #2a9d8f; fill-opacity: 0.5; stroke: #ffffff; stroke-width: 0.811636; stroke-linejoin: miter"/>
   </g>
   <g id="patch_38">
    <path d="M 403.535455 312.60375 
L 412.65 312.60375 
L 412.65 312.550507 
L 403.535455 312.550507 
z
" clip-path="url(#p0f3d6176b5)" style="fill: #2a9d8f; fill-opacity: 0.5; stroke: #ffffff; stroke-width: 0.811636; stroke-linejoin: miter"/>
   </g>
   <g id="patch_39">
    <path d="M 412.65 312.60375 
L 421.764545 312.60375 
L 421.764545 312.60375 
L 412.65 312.60375 
z
" clip-path="url(#p0f3d6176b5)" style="fill: #2a9d8f; fill-opacity: 0.5; stroke: #ffffff; stroke-width: 0.811636; stroke-linejoin: miter"/>
   </g>
   <g id="patch_40">
    <path d="M 421.764545 312.60375 
L 430.879091 312.60375 
L 430.879091 312.60375 
L 421.764545 312.60375 
z
" clip-path="url(#p0f3d6176b5)" style="fill: #2a9d8f; fill-opacity: 0.5; stroke: #ffffff; stroke-width: 0.811636; stroke-linejoin: miter"/>
   </g>
   <g id="patch_41">
    <path d="M 430.879091 312.60375 
L 439.993636 312.60375 
L 439.993636 312.497264 
L 430.879091 312.497264 
z
" clip-path="url(#p0f3d6176b5)" style="fill: #2a9d8f; fill-opacity: 0.5; stroke: #ffffff; stroke-width: 0.811636; stroke-linejoin: miter"/>
   </g>
   <g id="patch_42">
    <path d="M 439.993636 312.60375 
L 449.108182 312.60375 
L 449.108182 312.550507 
L 439.993636 312.550507 
z
" clip-path="url(#p0f3d6176b5)" style="fill: #2a9d8f; fill-opacity: 0.5; stroke: #ffffff; stroke-width: 0.811636; stroke-linejoin: miter"/>
   </g>
   <g id="patch_43">
    <path d="M 449.108182 312.60375 
L 458.222727 312.60375 
L 458.222727 312.60375 
L 449.108182 312.60375 
z
" clip-path="url(#p0f3d6176b5)" style="fill: #2a9d8f; fill-opacity: 0.5; stroke: #ffffff; stroke-width: 0.811636; stroke-linejoin: miter"/>
   </g>
   <g id="patch_44">
    <path d="M 458.222727 312.60375 
L 467.337273 312.60375 
L 467.337273 312.60375 
L 458.222727 312.60375 
z
" clip-path="url(#p0f3d6176b5)" style="fill: #2a9d8f; fill-opacity: 0.5; stroke: #ffffff; stroke-width: 0.811636; stroke-linejoin: miter"/>
   </g>
   <g id="patch_45">
    <path d="M 467.337273 312.60375 
L 476.451818 312.60375 
L 476.451818 312.60375 
L 467.337273 312.60375 
z
" clip-path="url(#p0f3d6176b5)" style="fill: #2a9d8f; fill-opacity: 0.5; stroke: #ffffff; stroke-width: 0.811636; stroke-linejoin: miter"/>
   </g>
   <g id="patch_46">
    <path d="M 476.451818 312.60375 
L 485.566364 312.60375 
L 485.566364 312.60375 
L 476.451818 312.60375 
z
" clip-path="url(#p0f3d6176b5)" style="fill: #2a9d8f; fill-opacity: 0.5; stroke: #ffffff; stroke-width: 0.811636; stroke-linejoin: miter"/>
   </g>
   <g id="patch_47">
    <path d="M 485.566364 312.60375 
L 494.680909 312.60375 
L 494.680909 312.60375 
L 485.566364 312.60375 
z
" clip-path="url(#p0f3d6176b5)" style="fill: #2a9d8f; fill-opacity: 0.5; stroke: #ffffff; stroke-width: 0.811636; stroke-linejoin: miter"/>
   </g>
   <g id="patch_48">
    <path d="M 494.680909 312.60375 
L 503.795455 312.60375 
L 503.795455 312.60375 
L 494.680909 312.60375 
z
" clip-path="url(#p0f3d6176b5)" style="fill: #2a9d8f; fill-opacity: 0.5; stroke: #ffffff; stroke-width: 0.811636; stroke-linejoin: miter"/>
   </g>
   <g id="patch_49">
    <path d="M 503.795455 312.60375 
L 512.91 312.60375 
L 512.91 312.60375 
L 503.795455 312.60375 
z
" clip-path="url(#p0f3d6176b5)" style="fill: #2a9d8f; fill-opacity: 0.5; stroke: #ffffff; stroke-width: 0.811636; stroke-linejoin: miter"/>
   </g>
   <g id="patch_50">
    <path d="M 512.91 312.60375 
L 522.024545 312.60375 
L 522.024545 312.60375 
L 512.91 312.60375 
z
" clip-path="url(#p0f3d6176b5)" style="fill: #2a9d8f; fill-opacity: 0.5; stroke: #ffffff; stroke-width: 0.811636; stroke-linejoin: miter"/>
   </g>
   <g id="patch_51">
    <path d="M 522.024545 312.60375 
L 531.139091 312.60375 
L 531.139091 312.60375 
L 522.024545 312.60375 
z
" clip-path="url(#p0f3d6176b5)" style="fill: #2a9d8f; fill-opacity: 0.5; stroke: #ffffff; stroke-width: 0.811636; stroke-linejoin: miter"/>
   </g>
   <g id="patch_52">
    <path d="M 531.139091 312.60375 
L 540.253636 312.60375 
L 540.253636 312.444022 
L 531.139091 312.444022 
z
" clip-path="url(#p0f3d6176b5)" style="fill: #2a9d8f; fill-opacity: 0.5; stroke: #ffffff; stroke-width: 0.811636; stroke-linejoin: miter"/>
   </g>
   <g id="line2d_13">
    <path d="M 84.526364 142.518171 
L 86.81645 82.379033 
L 89.106537 80.207641 
L 91.396624 128.197493 
L 93.686711 186.453566 
L 95.976798 228.12802 
L 98.266884 251.837047 
L 100.556971 265.942779 
L 102.847058 276.334173 
L 105.137145 284.688538 
L 107.427232 290.778516 
L 109.717318 294.59832 
L 112.007405 296.885617 
L 114.297492 298.410861 
L 116.587579 299.487929 
L 121.167752 301.214603 
L 123.457839 302.555252 
L 125.747926 304.173334 
L 128.038013 305.570957 
L 130.3281 306.47113 
L 139.488447 308.786196 
L 146.358707 310.084165 
L 148.648794 310.312135 
L 157.809141 310.686906 
L 162.389315 311.211043 
L 166.969488 311.822272 
L 171.549662 311.949552 
L 180.710009 311.708367 
L 185.290183 311.672042 
L 194.45053 312.19704 
L 203.610877 312.015077 
L 210.481138 312.10112 
L 215.061311 312.174712 
L 221.931571 312.423975 
L 235.672092 312.506214 
L 256.282873 312.446217 
L 283.763915 312.534334 
L 295.214349 312.488766 
L 306.664783 312.603218 
L 535.673463 312.513866 
L 540.253636 312.450973 
L 540.253636 312.450973 
" clip-path="url(#p0f3d6176b5)" style="fill: none; stroke: #2a9d8f; stroke-width: 1.5; stroke-linecap: round"/>
   </g>
   <g id="patch_53">
    <path d="M 61.74 312.60375 
L 61.74 27.65625 
" style="fill: none; stroke: #cccccc; stroke-width: 1.25; stroke-linejoin: miter; stroke-linecap: square"/>
   </g>
   <g id="patch_54">
    <path d="M 563.04 312.60375 
L 563.04 27.65625 
" style="fill: none; stroke: #cccccc; stroke-width: 1.25; stroke-linejoin: miter; stroke-linecap: square"/>
   </g>
   <g id="patch_55">
    <path d="M 61.74 312.60375 
L 563.04 312.60375 
" style="fill: none; stroke: #cccccc; stroke-width: 1.25; stroke-linejoin: miter; stroke-linecap: square"/>
   </g>
   <g id="patch_56">
    <path d="M 61.74 27.65625 
L 563.04 27.65625 
" style="fill: none; stroke: #cccccc; stroke-width: 1.25; stroke-linejoin: miter; stroke-linecap: square"/>
   </g>
   <g id="text_15">
    <!-- Global IDR Length Distribution -->
    <g style="fill: #262626" transform="translate(231.353437 21.65625) scale(0.12 -0.12)">
     <defs>
      <path id="ArialMT-47" d="M 2638 1797 
L 2638 2334 
L 4578 2338 
L 4578 638 
Q 4131 281 3656 101 
Q 3181 -78 2681 -78 
Q 2006 -78 1454 211 
Q 903 500 622 1047 
Q 341 1594 341 2269 
Q 341 2938 620 3517 
Q 900 4097 1425 4378 
Q 1950 4659 2634 4659 
Q 3131 4659 3532 4498 
Q 3934 4338 4162 4050 
Q 4391 3763 4509 3300 
L 3963 3150 
Q 3859 3500 3706 3700 
Q 3553 3900 3268 4020 
Q 2984 4141 2638 4141 
Q 2222 4141 1919 4014 
Q 1616 3888 1430 3681 
Q 1244 3475 1141 3228 
Q 966 2803 966 2306 
Q 966 1694 1177 1281 
Q 1388 869 1791 669 
Q 2194 469 2647 469 
Q 3041 469 3416 620 
Q 3791 772 3984 944 
L 3984 1797 
L 2638 1797 
z
" transform="scale(0.015625)"/>
      <path id="ArialMT-6c" d="M 409 0 
L 409 4581 
L 972 4581 
L 972 0 
L 409 0 
z
" transform="scale(0.015625)"/>
      <path id="ArialMT-62" d="M 941 0 
L 419 0 
L 419 4581 
L 981 4581 
L 981 2947 
Q 1338 3394 1891 3394 
Q 2197 3394 2470 3270 
Q 2744 3147 2920 2923 
Q 3097 2700 3197 2384 
Q 3297 2069 3297 1709 
Q 3297 856 2875 390 
Q 2453 -75 1863 -75 
Q 1275 -75 941 416 
L 941 0 
z
M 934 1684 
Q 934 1088 1097 822 
Q 1363 388 1816 388 
Q 2184 388 2453 708 
Q 2722 1028 2722 1663 
Q 2722 2313 2464 2622 
Q 2206 2931 1841 2931 
Q 1472 2931 1203 2611 
Q 934 2291 934 1684 
z
" transform="scale(0.015625)"/>
      <path id="ArialMT-61" d="M 2588 409 
Q 2275 144 1986 34 
Q 1697 -75 1366 -75 
Q 819 -75 525 192 
Q 231 459 231 875 
Q 231 1119 342 1320 
Q 453 1522 633 1644 
Q 813 1766 1038 1828 
Q 1203 1872 1538 1913 
Q 2219 1994 2541 2106 
Q 2544 2222 2544 2253 
Q 2544 2597 2384 2738 
Q 2169 2928 1744 2928 
Q 1347 2928 1158 2789 
Q 969 2650 878 2297 
L 328 2372 
Q 403 2725 575 2942 
Q 747 3159 1072 3276 
Q 1397 3394 1825 3394 
Q 2250 3394 2515 3294 
Q 2781 3194 2906 3042 
Q 3031 2891 3081 2659 
Q 3109 2516 3109 2141 
L 3109 1391 
Q 3109 606 3145 398 
Q 3181 191 3288 0 
L 2700 0 
Q 2613 175 2588 409 
z
M 2541 1666 
Q 2234 1541 1622 1453 
Q 1275 1403 1131 1340 
Q 988 1278 909 1158 
Q 831 1038 831 891 
Q 831 666 1001 516 
Q 1172 366 1500 366 
Q 1825 366 2078 508 
Q 2331 650 2450 897 
Q 2541 1088 2541 1459 
L 2541 1666 
z
" transform="scale(0.015625)"/>
      <path id="ArialMT-69" d="M 425 3934 
L 425 4581 
L 988 4581 
L 988 3934 
L 425 3934 
z
M 425 0 
L 425 3319 
L 988 3319 
L 988 0 
L 425 0 
z
" transform="scale(0.015625)"/>
      <path id="ArialMT-73" d="M 197 991 
L 753 1078 
Q 800 744 1014 566 
Q 1228 388 1613 388 
Q 2000 388 2187 545 
Q 2375 703 2375 916 
Q 2375 1106 2209 1216 
Q 2094 1291 1634 1406 
Q 1016 1563 777 1677 
Q 538 1791 414 1992 
Q 291 2194 291 2438 
Q 291 2659 392 2848 
Q 494 3038 669 3163 
Q 800 3259 1026 3326 
Q 1253 3394 1513 3394 
Q 1903 3394 2198 3281 
Q 2494 3169 2634 2976 
Q 2775 2784 2828 2463 
L 2278 2388 
Q 2241 2644 2061 2787 
Q 1881 2931 1553 2931 
Q 1166 2931 1000 2803 
Q 834 2675 834 2503 
Q 834 2394 903 2306 
Q 972 2216 1119 2156 
Q 1203 2125 1616 2013 
Q 2213 1853 2448 1751 
Q 2684 1650 2818 1456 
Q 2953 1263 2953 975 
Q 2953 694 2789 445 
Q 2625 197 2315 61 
Q 2006 -75 1616 -75 
Q 969 -75 630 194 
Q 291 463 197 991 
z
" transform="scale(0.015625)"/>
      <path id="ArialMT-72" d="M 416 0 
L 416 3319 
L 922 3319 
L 922 2816 
Q 1116 3169 1280 3281 
Q 1444 3394 1641 3394 
Q 1925 3394 2219 3213 
L 2025 2691 
Q 1819 2813 1613 2813 
Q 1428 2813 1281 2702 
Q 1134 2591 1072 2394 
Q 978 2094 978 1738 
L 978 0 
L 416 0 
z
" transform="scale(0.015625)"/>
     </defs>
     <use xlink:href="#ArialMT-47"/>
     <use xlink:href="#ArialMT-6c" transform="translate(77.783203 0)"/>
     <use xlink:href="#ArialMT-6f" transform="translate(100 0)"/>
     <use xlink:href="#ArialMT-62" transform="translate(155.615234 0)"/>
     <use xlink:href="#ArialMT-61" transform="translate(211.230469 0)"/>
     <use xlink:href="#ArialMT-6c" transform="translate(266.845703 0)"/>
     <use xlink:href="#ArialMT-20" transform="translate(289.0625 0)"/>
     <use xlink:href="#ArialMT-49" transform="translate(316.845703 0)"/>
     <use xlink:href="#ArialMT-44" transform="translate(344.628906 0)"/>
     <use xlink:href="#ArialMT-52" transform="translate(416.845703 0)"/>
     <use xlink:href="#ArialMT-20" transform="translate(489.0625 0)"/>
     <use xlink:href="#ArialMT-4c" transform="translate(516.845703 0)"/>
     <use xlink:href="#ArialMT-65" transform="translate(572.460938 0)"/>
     <use xlink:href="#ArialMT-6e" transform="translate(628.076172 0)"/>
     <use xlink:href="#ArialMT-67" transform="translate(683.691406 0)"/>
     <use xlink:href="#ArialMT-74" transform="translate(739.306641 0)"/>
     <use xlink:href="#ArialMT-68" transform="translate(767.089844 0)"/>
     <use xlink:href="#ArialMT-20" transform="translate(822.705078 0)"/>
     <use xlink:href="#ArialMT-44" transform="translate(850.488281 0)"/>
     <use xlink:href="#ArialMT-69" transform="translate(922.705078 0)"/>
     <use xlink:href="#ArialMT-73" transform="translate(944.921875 0)"/>
     <use xlink:href="#ArialMT-74" transform="translate(994.921875 0)"/>
     <use xlink:href="#ArialMT-72" transform="translate(1022.705078 0)"/>
     <use xlink:href="#ArialMT-69" transform="translate(1056.005859 0)"/>
     <use xlink:href="#ArialMT-62" transform="translate(1078.222656 0)"/>
     <use xlink:href="#ArialMT-75" transform="translate(1133.837891 0)"/>
     <use xlink:href="#ArialMT-74" transform="translate(1189.453125 0)"/>
     <use xlink:href="#ArialMT-69" transform="translate(1217.236328 0)"/>
     <use xlink:href="#ArialMT-6f" transform="translate(1239.453125 0)"/>
     <use xlink:href="#ArialMT-6e" transform="translate(1295.068359 0)"/>
    </g>
   </g>
  </g>
 </g>
 <defs>
  <clipPath id="p0f3d6176b5">
   <rect x="61.74" y="27.65625" width="501.3" height="284.9475"/>
  </clipPath>
 </defs>
</svg>
