<?xml version="1.0" encoding="utf-8" standalone="no"?>
<!DOCTYPE svg PUBLIC "-//W3C//DTD SVG 1.1//EN"
  "http://www.w3.org/Graphics/SVG/1.1/DTD/svg11.dtd">
<svg xmlns:xlink="http://www.w3.org/1999/xlink" width="576pt" height="360pt" viewBox="0 0 576 360" xmlns="http://www.w3.org/2000/svg" version="1.1">
 <metadata>
  <rdf:RDF xmlns:dc="http://purl.org/dc/elements/1.1/" xmlns:cc="http://creativecommons.org/ns#" xmlns:rdf="http://www.w3.org/1999/02/22-rdf-syntax-ns#">
   <cc:Work>
    <dc:type rdf:resource="http://purl.org/dc/dcmitype/StillImage"/>
    <dc:date>2026-02-27T10:51:17.522507</dc:date>
    <dc:format>image/svg+xml</dc:format>
    <dc:creator>
     <cc:Agent>
      <dc:title>Matplotlib v3.10.0, https://matplotlib.org/</dc:title>
     </cc:Agent>
    </dc:creator>
   </cc:Work>
  </rdf:RDF>
 </metadata>
 <defs>
  <style type="text/css">*{stroke-linejoin: round; stroke-linecap: butt}</style>
 </defs>
 <g id="figure_1">
  <g id="patch_1">
   <path d="M 0 360 
L 576 360 
L 576 0 
L 0 0 
z
" style="fill: #ffffff"/>
  </g>
  <g id="axes_1">
   <g id="patch_2">
    <path d="M 70.97625 312.60375 
L 563.04 312.60375 
L 563.04 27.65625 
L 70.97625 27.65625 
z
" style="fill: #ffffff"/>
   </g>
   <g id="matplotlib.axis_1">
    <g id="xtick_1">
     <g id="line2d_1">
      <path d="M 93.342784 312.60375 
L 93.342784 27.65625 
" clip-path="url(#p3754c4d6fb)" style="fill: none; stroke: #cccccc; stroke-linecap: round"/>
     </g>
     <g id="text_1">
      <!-- 0 -->
      <g style="fill: #262626" transform="translate(90.284268 329.977344) scale(0.11 -0.11)">
       <defs>
        <path id="ArialMT-30" d="M 266 2259 
Q 266 3072 433 3567 
Q 600 4063 929 4331 
Q 1259 4600 1759 4600 
Q 2128 4600 2406 4451 
Q 2684 4303 2865 4023 
Q 3047 3744 3150 3342 
Q 3253 2941 3253 2259 
Q 3253 1453 3087 958 
Q 2922 463 2592 192 
Q 2263 -78 1759 -78 
Q 1097 -78 719 397 
Q 266 969 266 2259 
z
M 844 2259 
Q 844 1131 1108 757 
Q 1372 384 1759 384 
Q 2147 384 2411 759 
Q 2675 1134 2675 2259 
Q 2675 3391 2411 3762 
Q 2147 4134 1753 4134 
Q 1366 4134 1134 3806 
Q 844 3388 844 2259 
z
" transform="scale(0.015625)"/>
       </defs>
       <use xlink:href="#ArialMT-30"/>
      </g>
     </g>
    </g>
    <g id="xtick_2">
     <g id="line2d_2">
      <path d="M 174.132143 312.60375 
L 174.132143 27.65625 
" clip-path="url(#p3754c4d6fb)" style="fill: none; stroke: #cccccc; stroke-linecap: round"/>
     </g>
     <g id="text_2">
      <!-- 1000 -->
      <g style="fill: #262626" transform="translate(161.898081 329.977344) scale(0.11 -0.11)">
       <defs>
        <path id="ArialMT-31" d="M 2384 0 
L 1822 0 
L 1822 3584 
Q 1619 3391 1289 3197 
Q 959 3003 697 2906 
L 697 3450 
Q 1169 3672 1522 3987 
Q 1875 4303 2022 4600 
L 2384 4600 
L 2384 0 
z
" transform="scale(0.015625)"/>
       </defs>
       <use xlink:href="#ArialMT-31"/>
       <use xlink:href="#ArialMT-30" transform="translate(55.615234 0)"/>
       <use xlink:href="#ArialMT-30" transform="translate(111.230469 0)"/>
       <use xlink:href="#ArialMT-30" transform="translate(166.845703 0)"/>
      </g>
     </g>
    </g>
    <g id="xtick_3">
     <g id="line2d_3">
      <path d="M 254.921502 312.60375 
L 254.921502 27.65625 
" clip-path="url(#p3754c4d6fb)" style="fill: none; stroke: #cccccc; stroke-linecap: round"/>
     </g>
     <g id="text_3">
      <!-- 2000 -->
      <g style="fill: #262626" transform="translate(242.68744 329.977344) scale(0.11 -0.11)">
       <defs>
        <path id="ArialMT-32" d="M 3222 541 
L 3222 0 
L 194 0 
Q 188 203 259 391 
Q 375 700 629 1000 
Q 884 1300 1366 1694 
Q 2113 2306 2375 2664 
Q 2638 3022 2638 3341 
Q 2638 3675 2398 3904 
Q 2159 4134 1775 4134 
Q 1369 4134 1125 3890 
Q 881 3647 878 3216 
L 300 3275 
Q 359 3922 746 4261 
Q 1134 4600 1788 4600 
Q 2447 4600 2831 4234 
Q 3216 3869 3216 3328 
Q 3216 3053 3103 2787 
Q 2991 2522 2730 2228 
Q 2469 1934 1863 1422 
Q 1356 997 1212 845 
Q 1069 694 975 541 
L 3222 541 
z
" transform="scale(0.015625)"/>
       </defs>
       <use xlink:href="#ArialMT-32"/>
       <use xlink:href="#ArialMT-30" transform="translate(55.615234 0)"/>
       <use xlink:href="#ArialMT-30" transform="translate(111.230469 0)"/>
       <use xlink:href="#ArialMT-30" transform="translate(166.845703 0)"/>
      </g>
     </g>
    </g>
    <g id="xtick_4">
     <g id="line2d_4">
      <path d="M 335.710862 312.60375 
L 335.710862 27.65625 
" clip-path="url(#p3754c4d6fb)" style="fill: none; stroke: #cccccc; stroke-linecap: round"/>
     </g>
     <g id="text_4">
      <!-- 3000 -->
      <g style="fill: #262626" transform="translate(323.476799 329.977344) scale(0.11 -0.11)">
       <defs>
        <path id="ArialMT-33" d="M 269 1209 
L 831 1284 
Q 928 806 1161 595 
Q 1394 384 1728 384 
Q 2125 384 2398 659 
Q 2672 934 2672 1341 
Q 2672 1728 2419 1979 
Q 2166 2231 1775 2231 
Q 1616 2231 1378 2169 
L 1441 2663 
Q 1497 2656 1531 2656 
Q 1891 2656 2178 2843 
Q 2466 3031 2466 3422 
Q 2466 3731 2256 3934 
Q 2047 4138 1716 4138 
Q 1388 4138 1169 3931 
Q 950 3725 888 3313 
L 325 3413 
Q 428 3978 793 4289 
Q 1159 4600 1703 4600 
Q 2078 4600 2393 4439 
Q 2709 4278 2876 4000 
Q 3044 3722 3044 3409 
Q 3044 3113 2884 2869 
Q 2725 2625 2413 2481 
Q 2819 2388 3044 2092 
Q 3269 1797 3269 1353 
Q 3269 753 2831 336 
Q 2394 -81 1725 -81 
Q 1122 -81 723 278 
Q 325 638 269 1209 
z
" transform="scale(0.015625)"/>
       </defs>
       <use xlink:href="#ArialMT-33"/>
       <use xlink:href="#ArialMT-30" transform="translate(55.615234 0)"/>
       <use xlink:href="#ArialMT-30" transform="translate(111.230469 0)"/>
       <use xlink:href="#ArialMT-30" transform="translate(166.845703 0)"/>
      </g>
     </g>
    </g>
    <g id="xtick_5">
     <g id="line2d_5">
      <path d="M 416.500221 312.60375 
L 416.500221 27.65625 
" clip-path="url(#p3754c4d6fb)" style="fill: none; stroke: #cccccc; stroke-linecap: round"/>
     </g>
     <g id="text_5">
      <!-- 4000 -->
      <g style="fill: #262626" transform="translate(404.266158 329.977344) scale(0.11 -0.11)">
       <defs>
        <path id="ArialMT-34" d="M 2069 0 
L 2069 1097 
L 81 1097 
L 81 1613 
L 2172 4581 
L 2631 4581 
L 2631 1613 
L 3250 1613 
L 3250 1097 
L 2631 1097 
L 2631 0 
L 2069 0 
z
M 2069 1613 
L 2069 3678 
L 634 1613 
L 2069 1613 
z
" transform="scale(0.015625)"/>
       </defs>
       <use xlink:href="#ArialMT-34"/>
       <use xlink:href="#ArialMT-30" transform="translate(55.615234 0)"/>
       <use xlink:href="#ArialMT-30" transform="translate(111.230469 0)"/>
       <use xlink:href="#ArialMT-30" transform="translate(166.845703 0)"/>
      </g>
     </g>
    </g>
    <g id="xtick_6">
     <g id="line2d_6">
      <path d="M 497.28958 312.60375 
L 497.28958 27.65625 
" clip-path="url(#p3754c4d6fb)" style="fill: none; stroke: #cccccc; stroke-linecap: round"/>
     </g>
     <g id="text_6">
      <!-- 5000 -->
      <g style="fill: #262626" transform="translate(485.055518 329.977344) scale(0.11 -0.11)">
       <defs>
        <path id="ArialMT-35" d="M 266 1200 
L 856 1250 
Q 922 819 1161 601 
Q 1400 384 1738 384 
Q 2144 384 2425 690 
Q 2706 997 2706 1503 
Q 2706 1984 2436 2262 
Q 2166 2541 1728 2541 
Q 1456 2541 1237 2417 
Q 1019 2294 894 2097 
L 366 2166 
L 809 4519 
L 3088 4519 
L 3088 3981 
L 1259 3981 
L 1013 2750 
Q 1425 3038 1878 3038 
Q 2478 3038 2890 2622 
Q 3303 2206 3303 1553 
Q 3303 931 2941 478 
Q 2500 -78 1738 -78 
Q 1113 -78 717 272 
Q 322 622 266 1200 
z
" transform="scale(0.015625)"/>
       </defs>
       <use xlink:href="#ArialMT-35"/>
       <use xlink:href="#ArialMT-30" transform="translate(55.615234 0)"/>
       <use xlink:href="#ArialMT-30" transform="translate(111.230469 0)"/>
       <use xlink:href="#ArialMT-30" transform="translate(166.845703 0)"/>
      </g>
     </g>
    </g>
    <g id="text_7">
     <!-- Region Length -->
     <g style="fill: #262626" transform="translate(277.979062 344.752969) scale(0.12 -0.12)">
      <defs>
       <path id="ArialMT-52" d="M 503 0 
L 503 4581 
L 2534 4581 
Q 3147 4581 3465 4457 
Q 3784 4334 3975 4021 
Q 4166 3709 4166 3331 
Q 4166 2844 3850 2509 
Q 3534 2175 2875 2084 
Q 3116 1969 3241 1856 
Q 3506 1613 3744 1247 
L 4541 0 
L 3778 0 
L 3172 953 
Q 2906 1366 2734 1584 
Q 2563 1803 2427 1890 
Q 2291 1978 2150 2013 
Q 2047 2034 1813 2034 
L 1109 2034 
L 1109 0 
L 503 0 
z
M 1109 2559 
L 2413 2559 
Q 2828 2559 3062 2645 
Q 3297 2731 3419 2920 
Q 3541 3109 3541 3331 
Q 3541 3656 3305 3865 
Q 3069 4075 2559 4075 
L 1109 4075 
L 1109 2559 
z
" transform="scale(0.015625)"/>
       <path id="ArialMT-65" d="M 2694 1069 
L 3275 997 
Q 3138 488 2766 206 
Q 2394 -75 1816 -75 
Q 1088 -75 661 373 
Q 234 822 234 1631 
Q 234 2469 665 2931 
Q 1097 3394 1784 3394 
Q 2450 3394 2872 2941 
Q 3294 2488 3294 1666 
Q 3294 1616 3291 1516 
L 816 1516 
Q 847 969 1125 678 
Q 1403 388 1819 388 
Q 2128 388 2347 550 
Q 2566 713 2694 1069 
z
M 847 1978 
L 2700 1978 
Q 2663 2397 2488 2606 
Q 2219 2931 1791 2931 
Q 1403 2931 1139 2672 
Q 875 2413 847 1978 
z
" transform="scale(0.015625)"/>
       <path id="ArialMT-67" d="M 319 -275 
L 866 -356 
Q 900 -609 1056 -725 
Q 1266 -881 1628 -881 
Q 2019 -881 2231 -725 
Q 2444 -569 2519 -288 
Q 2563 -116 2559 434 
Q 2191 0 1641 0 
Q 956 0 581 494 
Q 206 988 206 1678 
Q 206 2153 378 2554 
Q 550 2956 876 3175 
Q 1203 3394 1644 3394 
Q 2231 3394 2613 2919 
L 2613 3319 
L 3131 3319 
L 3131 450 
Q 3131 -325 2973 -648 
Q 2816 -972 2473 -1159 
Q 2131 -1347 1631 -1347 
Q 1038 -1347 672 -1080 
Q 306 -813 319 -275 
z
M 784 1719 
Q 784 1066 1043 766 
Q 1303 466 1694 466 
Q 2081 466 2343 764 
Q 2606 1063 2606 1700 
Q 2606 2309 2336 2618 
Q 2066 2928 1684 2928 
Q 1309 2928 1046 2623 
Q 784 2319 784 1719 
z
" transform="scale(0.015625)"/>
       <path id="ArialMT-69" d="M 425 3934 
L 425 4581 
L 988 4581 
L 988 3934 
L 425 3934 
z
M 425 0 
L 425 3319 
L 988 3319 
L 988 0 
L 425 0 
z
" transform="scale(0.015625)"/>
       <path id="ArialMT-6f" d="M 213 1659 
Q 213 2581 725 3025 
Q 1153 3394 1769 3394 
Q 2453 3394 2887 2945 
Q 3322 2497 3322 1706 
Q 3322 1066 3130 698 
Q 2938 331 2570 128 
Q 2203 -75 1769 -75 
Q 1072 -75 642 372 
Q 213 819 213 1659 
z
M 791 1659 
Q 791 1022 1069 705 
Q 1347 388 1769 388 
Q 2188 388 2466 706 
Q 2744 1025 2744 1678 
Q 2744 2294 2464 2611 
Q 2184 2928 1769 2928 
Q 1347 2928 1069 2612 
Q 791 2297 791 1659 
z
" transform="scale(0.015625)"/>
       <path id="ArialMT-6e" d="M 422 0 
L 422 3319 
L 928 3319 
L 928 2847 
Q 1294 3394 1984 3394 
Q 2284 3394 2536 3286 
Q 2788 3178 2913 3003 
Q 3038 2828 3088 2588 
Q 3119 2431 3119 2041 
L 3119 0 
L 2556 0 
L 2556 2019 
Q 2556 2363 2490 2533 
Q 2425 2703 2258 2804 
Q 2091 2906 1866 2906 
Q 1506 2906 1245 2678 
Q 984 2450 984 1813 
L 984 0 
L 422 0 
z
" transform="scale(0.015625)"/>
       <path id="ArialMT-20" transform="scale(0.015625)"/>
       <path id="ArialMT-4c" d="M 469 0 
L 469 4581 
L 1075 4581 
L 1075 541 
L 3331 541 
L 3331 0 
L 469 0 
z
" transform="scale(0.015625)"/>
       <path id="ArialMT-74" d="M 1650 503 
L 1731 6 
Q 1494 -44 1306 -44 
Q 1000 -44 831 53 
Q 663 150 594 308 
Q 525 466 525 972 
L 525 2881 
L 113 2881 
L 113 3319 
L 525 3319 
L 525 4141 
L 1084 4478 
L 1084 3319 
L 1650 3319 
L 1650 2881 
L 1084 2881 
L 1084 941 
Q 1084 700 1114 631 
Q 1144 563 1211 522 
Q 1278 481 1403 481 
Q 1497 481 1650 503 
z
" transform="scale(0.015625)"/>
       <path id="ArialMT-68" d="M 422 0 
L 422 4581 
L 984 4581 
L 984 2938 
Q 1378 3394 1978 3394 
Q 2347 3394 2619 3248 
Q 2891 3103 3008 2847 
Q 3125 2591 3125 2103 
L 3125 0 
L 2563 0 
L 2563 2103 
Q 2563 2525 2380 2717 
Q 2197 2909 1863 2909 
Q 1613 2909 1392 2779 
Q 1172 2650 1078 2428 
Q 984 2206 984 1816 
L 984 0 
L 422 0 
z
" transform="scale(0.015625)"/>
      </defs>
      <use xlink:href="#ArialMT-52"/>
      <use xlink:href="#ArialMT-65" transform="translate(72.216797 0)"/>
      <use xlink:href="#ArialMT-67" transform="translate(127.832031 0)"/>
      <use xlink:href="#ArialMT-69" transform="translate(183.447266 0)"/>
      <use xlink:href="#ArialMT-6f" transform="translate(205.664062 0)"/>
      <use xlink:href="#ArialMT-6e" transform="translate(261.279297 0)"/>
      <use xlink:href="#ArialMT-20" transform="translate(316.894531 0)"/>
      <use xlink:href="#ArialMT-4c" transform="translate(344.677734 0)"/>
      <use xlink:href="#ArialMT-65" transform="translate(400.292969 0)"/>
      <use xlink:href="#ArialMT-6e" transform="translate(455.908203 0)"/>
      <use xlink:href="#ArialMT-67" transform="translate(511.523438 0)"/>
      <use xlink:href="#ArialMT-74" transform="translate(567.138672 0)"/>
      <use xlink:href="#ArialMT-68" transform="translate(594.921875 0)"/>
     </g>
    </g>
   </g>
   <g id="matplotlib.axis_2">
    <g id="ytick_1">
     <g id="line2d_7">
      <path d="M 70.97625 312.60375 
L 563.04 312.60375 
" clip-path="url(#p3754c4d6fb)" style="fill: none; stroke: #cccccc; stroke-linecap: round"/>
     </g>
     <g id="text_8">
      <!-- 0.0000 -->
      <g style="fill: #262626" transform="translate(27.835156 316.540547) scale(0.11 -0.11)">
       <defs>
        <path id="ArialMT-2e" d="M 581 0 
L 581 641 
L 1222 641 
L 1222 0 
L 581 0 
z
" transform="scale(0.015625)"/>
       </defs>
       <use xlink:href="#ArialMT-30"/>
       <use xlink:href="#ArialMT-2e" transform="translate(55.615234 0)"/>
       <use xlink:href="#ArialMT-30" transform="translate(83.398438 0)"/>
       <use xlink:href="#ArialMT-30" transform="translate(139.013672 0)"/>
       <use xlink:href="#ArialMT-30" transform="translate(194.628906 0)"/>
       <use xlink:href="#ArialMT-30" transform="translate(250.244141 0)"/>
      </g>
     </g>
    </g>
    <g id="ytick_2">
     <g id="line2d_8">
      <path d="M 70.97625 270.747952 
L 563.04 270.747952 
" clip-path="url(#p3754c4d6fb)" style="fill: none; stroke: #cccccc; stroke-linecap: round"/>
     </g>
     <g id="text_9">
      <!-- 0.0005 -->
      <g style="fill: #262626" transform="translate(27.835156 274.684749) scale(0.11 -0.11)">
       <use xlink:href="#ArialMT-30"/>
       <use xlink:href="#ArialMT-2e" transform="translate(55.615234 0)"/>
       <use xlink:href="#ArialMT-30" transform="translate(83.398438 0)"/>
       <use xlink:href="#ArialMT-30" transform="translate(139.013672 0)"/>
       <use xlink:href="#ArialMT-30" transform="translate(194.628906 0)"/>
       <use xlink:href="#ArialMT-35" transform="translate(250.244141 0)"/>
      </g>
     </g>
    </g>
    <g id="ytick_3">
     <g id="line2d_9">
      <path d="M 70.97625 228.892154 
L 563.04 228.892154 
" clip-path="url(#p3754c4d6fb)" style="fill: none; stroke: #cccccc; stroke-linecap: round"/>
     </g>
     <g id="text_10">
      <!-- 0.0010 -->
      <g style="fill: #262626" transform="translate(27.835156 232.828951) scale(0.11 -0.11)">
       <use xlink:href="#ArialMT-30"/>
       <use xlink:href="#ArialMT-2e" transform="translate(55.615234 0)"/>
       <use xlink:href="#ArialMT-30" transform="translate(83.398438 0)"/>
       <use xlink:href="#ArialMT-30" transform="translate(139.013672 0)"/>
       <use xlink:href="#ArialMT-31" transform="translate(194.628906 0)"/>
       <use xlink:href="#ArialMT-30" transform="translate(250.244141 0)"/>
      </g>
     </g>
    </g>
    <g id="ytick_4">
     <g id="line2d_10">
      <path d="M 70.97625 187.036356 
L 563.04 187.036356 
" clip-path="url(#p3754c4d6fb)" style="fill: none; stroke: #cccccc; stroke-linecap: round"/>
     </g>
     <g id="text_11">
      <!-- 0.0015 -->
      <g style="fill: #262626" transform="translate(27.835156 190.973153) scale(0.11 -0.11)">
       <use xlink:href="#ArialMT-30"/>
       <use xlink:href="#ArialMT-2e" transform="translate(55.615234 0)"/>
       <use xlink:href="#ArialMT-30" transform="translate(83.398438 0)"/>
       <use xlink:href="#ArialMT-30" transform="translate(139.013672 0)"/>
       <use xlink:href="#ArialMT-31" transform="translate(194.628906 0)"/>
       <use xlink:href="#ArialMT-35" transform="translate(250.244141 0)"/>
      </g>
     </g>
    </g>
    <g id="ytick_5">
     <g id="line2d_11">
      <path d="M 70.97625 145.180558 
L 563.04 145.180558 
" clip-path="url(#p3754c4d6fb)" style="fill: none; stroke: #cccccc; stroke-linecap: round"/>
     </g>
     <g id="text_12">
      <!-- 0.0020 -->
      <g style="fill: #262626" transform="translate(27.835156 149.117355) scale(0.11 -0.11)">
       <use xlink:href="#ArialMT-30"/>
       <use xlink:href="#ArialMT-2e" transform="translate(55.615234 0)"/>
       <use xlink:href="#ArialMT-30" transform="translate(83.398438 0)"/>
       <use xlink:href="#ArialMT-30" transform="translate(139.013672 0)"/>
       <use xlink:href="#ArialMT-32" transform="translate(194.628906 0)"/>
       <use xlink:href="#ArialMT-30" transform="translate(250.244141 0)"/>
      </g>
     </g>
    </g>
    <g id="ytick_6">
     <g id="line2d_12">
      <path d="M 70.97625 103.32476 
L 563.04 103.32476 
" clip-path="url(#p3754c4d6fb)" style="fill: none; stroke: #cccccc; stroke-linecap: round"/>
     </g>
     <g id="text_13">
      <!-- 0.0025 -->
      <g style="fill: #262626" transform="translate(27.835156 107.261557) scale(0.11 -0.11)">
       <use xlink:href="#ArialMT-30"/>
       <use xlink:href="#ArialMT-2e" transform="translate(55.615234 0)"/>
       <use xlink:href="#ArialMT-30" transform="translate(83.398438 0)"/>
       <use xlink:href="#ArialMT-30" transform="translate(139.013672 0)"/>
       <use xlink:href="#ArialMT-32" transform="translate(194.628906 0)"/>
       <use xlink:href="#ArialMT-35" transform="translate(250.244141 0)"/>
      </g>
     </g>
    </g>
    <g id="ytick_7">
     <g id="line2d_13">
      <path d="M 70.97625 61.468962 
L 563.04 61.468962 
" clip-path="url(#p3754c4d6fb)" style="fill: none; stroke: #cccccc; stroke-linecap: round"/>
     </g>
     <g id="text_14">
      <!-- 0.0030 -->
      <g style="fill: #262626" transform="translate(27.835156 65.405759) scale(0.11 -0.11)">
       <use xlink:href="#ArialMT-30"/>
       <use xlink:href="#ArialMT-2e" transform="translate(55.615234 0)"/>
       <use xlink:href="#ArialMT-30" transform="translate(83.398438 0)"/>
       <use xlink:href="#ArialMT-30" transform="translate(139.013672 0)"/>
       <use xlink:href="#ArialMT-33" transform="translate(194.628906 0)"/>
       <use xlink:href="#ArialMT-30" transform="translate(250.244141 0)"/>
      </g>
     </g>
    </g>
    <g id="text_15">
     <!-- Density -->
     <g style="fill: #262626" transform="translate(21.309531 190.13625) rotate(-90) scale(0.12 -0.12)">
      <defs>
       <path id="ArialMT-44" d="M 494 0 
L 494 4581 
L 2072 4581 
Q 2606 4581 2888 4516 
Q 3281 4425 3559 4188 
Q 3922 3881 4101 3404 
Q 4281 2928 4281 2316 
Q 4281 1794 4159 1391 
Q 4038 988 3847 723 
Q 3656 459 3429 307 
Q 3203 156 2883 78 
Q 2563 0 2147 0 
L 494 0 
z
M 1100 541 
L 2078 541 
Q 2531 541 2789 625 
Q 3047 709 3200 863 
Q 3416 1078 3536 1442 
Q 3656 1806 3656 2325 
Q 3656 3044 3420 3430 
Q 3184 3816 2847 3947 
Q 2603 4041 2063 4041 
L 1100 4041 
L 1100 541 
z
" transform="scale(0.015625)"/>
       <path id="ArialMT-73" d="M 197 991 
L 753 1078 
Q 800 744 1014 566 
Q 1228 388 1613 388 
Q 2000 388 2187 545 
Q 2375 703 2375 916 
Q 2375 1106 2209 1216 
Q 2094 1291 1634 1406 
Q 1016 1563 777 1677 
Q 538 1791 414 1992 
Q 291 2194 291 2438 
Q 291 2659 392 2848 
Q 494 3038 669 3163 
Q 800 3259 1026 3326 
Q 1253 3394 1513 3394 
Q 1903 3394 2198 3281 
Q 2494 3169 2634 2976 
Q 2775 2784 2828 2463 
L 2278 2388 
Q 2241 2644 2061 2787 
Q 1881 2931 1553 2931 
Q 1166 2931 1000 2803 
Q 834 2675 834 2503 
Q 834 2394 903 2306 
Q 972 2216 1119 2156 
Q 1203 2125 1616 2013 
Q 2213 1853 2448 1751 
Q 2684 1650 2818 1456 
Q 2953 1263 2953 975 
Q 2953 694 2789 445 
Q 2625 197 2315 61 
Q 2006 -75 1616 -75 
Q 969 -75 630 194 
Q 291 463 197 991 
z
" transform="scale(0.015625)"/>
       <path id="ArialMT-79" d="M 397 -1278 
L 334 -750 
Q 519 -800 656 -800 
Q 844 -800 956 -737 
Q 1069 -675 1141 -563 
Q 1194 -478 1313 -144 
Q 1328 -97 1363 -6 
L 103 3319 
L 709 3319 
L 1400 1397 
Q 1534 1031 1641 628 
Q 1738 1016 1872 1384 
L 2581 3319 
L 3144 3319 
L 1881 -56 
Q 1678 -603 1566 -809 
Q 1416 -1088 1222 -1217 
Q 1028 -1347 759 -1347 
Q 597 -1347 397 -1278 
z
" transform="scale(0.015625)"/>
      </defs>
      <use xlink:href="#ArialMT-44"/>
      <use xlink:href="#ArialMT-65" transform="translate(72.216797 0)"/>
      <use xlink:href="#ArialMT-6e" transform="translate(127.832031 0)"/>
      <use xlink:href="#ArialMT-73" transform="translate(183.447266 0)"/>
      <use xlink:href="#ArialMT-69" transform="translate(233.447266 0)"/>
      <use xlink:href="#ArialMT-74" transform="translate(255.664062 0)"/>
      <use xlink:href="#ArialMT-79" transform="translate(283.447266 0)"/>
     </g>
    </g>
   </g>
   <g id="FillBetweenPolyCollection_1">
    <defs>
     <path id="m03efde2b6c" d="M 93.342784 -318.774821 
L 93.342784 -47.39625 
L 102.289398 -47.39625 
L 102.289398 -47.39625 
L 111.236011 -47.39625 
L 111.236011 -47.39625 
L 120.182625 -47.39625 
L 120.182625 -47.39625 
L 129.129239 -47.39625 
L 129.129239 -47.39625 
L 138.075852 -47.39625 
L 138.075852 -47.39625 
L 147.022466 -47.39625 
L 147.022466 -47.39625 
L 155.96908 -47.39625 
L 155.96908 -47.39625 
L 164.915693 -47.39625 
L 164.915693 -47.39625 
L 173.862307 -47.39625 
L 173.862307 -47.39625 
L 182.80892 -47.39625 
L 182.80892 -47.39625 
L 191.755534 -47.39625 
L 191.755534 -47.39625 
L 200.702148 -47.39625 
L 200.702148 -47.39625 
L 209.648761 -47.39625 
L 209.648761 -47.39625 
L 218.595375 -47.39625 
L 218.595375 -47.39625 
L 227.541989 -47.39625 
L 227.541989 -47.39625 
L 236.488602 -47.39625 
L 236.488602 -47.39625 
L 245.435216 -47.39625 
L 245.435216 -47.39625 
L 254.38183 -47.39625 
L 254.38183 -47.39625 
L 263.328443 -47.39625 
L 263.328443 -47.39625 
L 272.275057 -47.39625 
L 272.275057 -47.39625 
L 281.22167 -47.39625 
L 281.22167 -47.39625 
L 290.168284 -47.39625 
L 290.168284 -47.39625 
L 299.114898 -47.39625 
L 299.114898 -47.39625 
L 308.061511 -47.39625 
L 308.061511 -47.39625 
L 317.008125 -47.39625 
L 317.008125 -47.39625 
L 325.954739 -47.39625 
L 325.954739 -47.39625 
L 334.901352 -47.39625 
L 334.901352 -47.39625 
L 343.847966 -47.39625 
L 343.847966 -47.39625 
L 352.79458 -47.39625 
L 352.79458 -47.39625 
L 361.741193 -47.39625 
L 361.741193 -47.39625 
L 370.687807 -47.39625 
L 370.687807 -47.39625 
L 379.63442 -47.39625 
L 379.63442 -47.39625 
L 388.581034 -47.39625 
L 388.581034 -47.39625 
L 397.527648 -47.39625 
L 397.527648 -47.39625 
L 406.474261 -47.39625 
L 406.474261 -47.39625 
L 415.420875 -47.39625 
L 415.420875 -47.39625 
L 424.367489 -47.39625 
L 424.367489 -47.39625 
L 433.314102 -47.39625 
L 433.314102 -47.39625 
L 442.260716 -47.39625 
L 442.260716 -47.39625 
L 451.20733 -47.39625 
L 451.20733 -47.39625 
L 460.153943 -47.39625 
L 460.153943 -47.39625 
L 469.100557 -47.39625 
L 469.100557 -47.39625 
L 478.04717 -47.39625 
L 478.04717 -47.39625 
L 486.993784 -47.39625 
L 486.993784 -47.39625 
L 495.940398 -47.39625 
L 495.940398 -47.39625 
L 504.887011 -47.39625 
L 504.887011 -47.39625 
L 513.833625 -47.39625 
L 513.833625 -47.39625 
L 522.780239 -47.39625 
L 522.780239 -47.39625 
L 531.726852 -47.39625 
L 531.726852 -47.39625 
L 540.673466 -47.39625 
L 540.673466 -47.39625 
L 540.673466 -47.39625 
L 540.673466 -47.39625 
L 540.673466 -47.39625 
L 531.726852 -47.39625 
L 531.726852 -47.39625 
L 522.780239 -47.39625 
L 522.780239 -47.39625 
L 513.833625 -47.39625 
L 513.833625 -47.39625 
L 504.887011 -47.39625 
L 504.887011 -47.39625 
L 495.940398 -47.39625 
L 495.940398 -47.39625 
L 486.993784 -47.39625 
L 486.993784 -47.39625 
L 478.04717 -47.39625 
L 478.04717 -47.39625 
L 469.100557 -47.39625 
L 469.100557 -47.39625 
L 460.153943 -47.39625 
L 460.153943 -47.39625 
L 451.20733 -47.39625 
L 451.20733 -47.39625 
L 442.260716 -47.39625 
L 442.260716 -47.39625 
L 433.314102 -47.39625 
L 433.314102 -47.39625 
L 424.367489 -47.39625 
L 424.367489 -47.39625 
L 415.420875 -47.39625 
L 415.420875 -47.39625 
L 406.474261 -47.39625 
L 406.474261 -47.39625 
L 397.527648 -47.39625 
L 397.527648 -47.39625 
L 388.581034 -47.39625 
L 388.581034 -47.39625 
L 379.63442 -47.39625 
L 379.63442 -47.39625 
L 370.687807 -47.39625 
L 370.687807 -47.39625 
L 361.741193 -47.39625 
L 361.741193 -47.39625 
L 352.79458 -47.39625 
L 352.79458 -47.39625 
L 343.847966 -47.39625 
L 343.847966 -47.39625 
L 334.901352 -47.39625 
L 334.901352 -47.39625 
L 325.954739 -47.39625 
L 325.954739 -47.39625 
L 317.008125 -47.39625 
L 317.008125 -47.39625 
L 308.061511 -47.39625 
L 308.061511 -47.39625 
L 299.114898 -47.39625 
L 299.114898 -47.39625 
L 290.168284 -47.39625 
L 290.168284 -47.39625 
L 281.22167 -47.39625 
L 281.22167 -47.39625 
L 272.275057 -47.39625 
L 272.275057 -47.39625 
L 263.328443 -47.39625 
L 263.328443 -47.39625 
L 254.38183 -47.39625 
L 254.38183 -47.39625 
L 245.435216 -47.39625 
L 245.435216 -47.39625 
L 236.488602 -47.39625 
L 236.488602 -47.648226 
L 227.541989 -47.648226 
L 227.541989 -47.39625 
L 218.595375 -47.39625 
L 218.595375 -47.648226 
L 209.648761 -47.648226 
L 209.648761 -47.648226 
L 200.702148 -47.648226 
L 200.702148 -48.152179 
L 191.755534 -48.152179 
L 191.755534 -47.648226 
L 182.80892 -47.648226 
L 182.80892 -47.648226 
L 173.862307 -47.648226 
L 173.862307 -48.656132 
L 164.915693 -48.656132 
L 164.915693 -48.404156 
L 155.96908 -48.404156 
L 155.96908 -49.160085 
L 147.022466 -49.160085 
L 147.022466 -50.671943 
L 138.075852 -50.671943 
L 138.075852 -50.923919 
L 129.129239 -50.923919 
L 129.129239 -58.735188 
L 120.182625 -58.735188 
L 120.182625 -81.665039 
L 111.236011 -81.665039 
L 111.236011 -117.697663 
L 102.289398 -117.697663 
L 102.289398 -318.774821 
L 93.342784 -318.774821 
z
" style="stroke: #55a868"/>
    </defs>
    <g clip-path="url(#p3754c4d6fb)">
     <use xlink:href="#m03efde2b6c" x="0" y="360" style="fill: #55a868; fill-opacity: 0.25; stroke: #55a868"/>
    </g>
   </g>
   <g id="FillBetweenPolyCollection_2">
    <defs>
     <path id="m72b22533b5" d="M 93.342784 -76.877488 
L 93.342784 -47.39625 
L 102.289398 -47.39625 
L 102.289398 -47.39625 
L 111.236011 -47.39625 
L 111.236011 -47.39625 
L 120.182625 -47.39625 
L 120.182625 -47.39625 
L 129.129239 -47.39625 
L 129.129239 -47.39625 
L 138.075852 -47.39625 
L 138.075852 -47.39625 
L 147.022466 -47.39625 
L 147.022466 -47.39625 
L 155.96908 -47.39625 
L 155.96908 -47.39625 
L 164.915693 -47.39625 
L 164.915693 -47.39625 
L 173.862307 -47.39625 
L 173.862307 -47.39625 
L 182.80892 -47.39625 
L 182.80892 -47.39625 
L 191.755534 -47.39625 
L 191.755534 -47.39625 
L 200.702148 -47.39625 
L 200.702148 -47.39625 
L 209.648761 -47.39625 
L 209.648761 -47.39625 
L 218.595375 -47.39625 
L 218.595375 -47.39625 
L 227.541989 -47.39625 
L 227.541989 -47.39625 
L 236.488602 -47.39625 
L 236.488602 -47.39625 
L 245.435216 -47.39625 
L 245.435216 -47.39625 
L 254.38183 -47.39625 
L 254.38183 -47.39625 
L 263.328443 -47.39625 
L 263.328443 -47.39625 
L 272.275057 -47.39625 
L 272.275057 -47.39625 
L 281.22167 -47.39625 
L 281.22167 -47.39625 
L 290.168284 -47.39625 
L 290.168284 -47.39625 
L 299.114898 -47.39625 
L 299.114898 -47.39625 
L 308.061511 -47.39625 
L 308.061511 -47.39625 
L 317.008125 -47.39625 
L 317.008125 -47.39625 
L 325.954739 -47.39625 
L 325.954739 -47.39625 
L 334.901352 -47.39625 
L 334.901352 -47.39625 
L 343.847966 -47.39625 
L 343.847966 -47.39625 
L 352.79458 -47.39625 
L 352.79458 -47.39625 
L 361.741193 -47.39625 
L 361.741193 -47.39625 
L 370.687807 -47.39625 
L 370.687807 -47.39625 
L 379.63442 -47.39625 
L 379.63442 -47.39625 
L 388.581034 -47.39625 
L 388.581034 -47.39625 
L 397.527648 -47.39625 
L 397.527648 -47.39625 
L 406.474261 -47.39625 
L 406.474261 -47.39625 
L 415.420875 -47.39625 
L 415.420875 -47.39625 
L 424.367489 -47.39625 
L 424.367489 -47.39625 
L 433.314102 -47.39625 
L 433.314102 -47.39625 
L 442.260716 -47.39625 
L 442.260716 -47.39625 
L 451.20733 -47.39625 
L 451.20733 -47.39625 
L 460.153943 -47.39625 
L 460.153943 -47.39625 
L 469.100557 -47.39625 
L 469.100557 -47.39625 
L 478.04717 -47.39625 
L 478.04717 -47.39625 
L 486.993784 -47.39625 
L 486.993784 -47.39625 
L 495.940398 -47.39625 
L 495.940398 -47.39625 
L 504.887011 -47.39625 
L 504.887011 -47.39625 
L 513.833625 -47.39625 
L 513.833625 -47.39625 
L 522.780239 -47.39625 
L 522.780239 -47.39625 
L 531.726852 -47.39625 
L 531.726852 -47.39625 
L 540.673466 -47.39625 
L 540.673466 -47.39625 
L 540.673466 -47.39625 
L 540.673466 -47.39625 
L 540.673466 -47.39625 
L 531.726852 -47.39625 
L 531.726852 -47.39625 
L 522.780239 -47.39625 
L 522.780239 -47.39625 
L 513.833625 -47.39625 
L 513.833625 -47.39625 
L 504.887011 -47.39625 
L 504.887011 -47.39625 
L 495.940398 -47.39625 
L 495.940398 -47.39625 
L 486.993784 -47.39625 
L 486.993784 -47.39625 
L 478.04717 -47.39625 
L 478.04717 -47.39625 
L 469.100557 -47.39625 
L 469.100557 -47.39625 
L 460.153943 -47.39625 
L 460.153943 -47.39625 
L 451.20733 -47.39625 
L 451.20733 -47.648226 
L 442.260716 -47.648226 
L 442.260716 -47.39625 
L 433.314102 -47.39625 
L 433.314102 -47.39625 
L 424.367489 -47.39625 
L 424.367489 -47.648226 
L 415.420875 -47.648226 
L 415.420875 -47.39625 
L 406.474261 -47.39625 
L 406.474261 -47.39625 
L 397.527648 -47.39625 
L 397.527648 -47.648226 
L 388.581034 -47.648226 
L 388.581034 -47.648226 
L 379.63442 -47.648226 
L 379.63442 -48.404156 
L 370.687807 -48.404156 
L 370.687807 -51.427872 
L 361.741193 -51.427872 
L 361.741193 -47.39625 
L 352.79458 -47.39625 
L 352.79458 -47.900203 
L 343.847966 -47.900203 
L 343.847966 -49.160085 
L 334.901352 -49.160085 
L 334.901352 -47.648226 
L 325.954739 -47.648226 
L 325.954739 -47.648226 
L 317.008125 -47.648226 
L 317.008125 -47.39625 
L 308.061511 -47.39625 
L 308.061511 -47.39625 
L 299.114898 -47.39625 
L 299.114898 -49.160085 
L 290.168284 -49.160085 
L 290.168284 -48.152179 
L 281.22167 -48.152179 
L 281.22167 -48.404156 
L 272.275057 -48.404156 
L 272.275057 -48.404156 
L 263.328443 -48.404156 
L 263.328443 -47.900203 
L 254.38183 -47.900203 
L 254.38183 -48.404156 
L 245.435216 -48.404156 
L 245.435216 -48.152179 
L 236.488602 -48.152179 
L 236.488602 -48.656132 
L 227.541989 -48.656132 
L 227.541989 -47.900203 
L 218.595375 -47.900203 
L 218.595375 -47.900203 
L 209.648761 -47.900203 
L 209.648761 -48.656132 
L 200.702148 -48.656132 
L 200.702148 -50.923919 
L 191.755534 -50.923919 
L 191.755534 -50.16799 
L 182.80892 -50.16799 
L 182.80892 -50.923919 
L 173.862307 -50.923919 
L 173.862307 -51.931825 
L 164.915693 -51.931825 
L 164.915693 -54.199613 
L 155.96908 -54.199613 
L 155.96908 -60.247046 
L 147.022466 -60.247046 
L 147.022466 -64.278668 
L 138.075852 -64.278668 
L 138.075852 -75.617606 
L 129.129239 -75.617606 
L 129.129239 -77.885393 
L 120.182625 -77.885393 
L 120.182625 -90.988165 
L 111.236011 -90.988165 
L 111.236011 -103.838961 
L 102.289398 -103.838961 
L 102.289398 -76.877488 
L 93.342784 -76.877488 
z
" style="stroke: #dd8452"/>
    </defs>
    <g clip-path="url(#p3754c4d6fb)">
     <use xlink:href="#m72b22533b5" x="0" y="360" style="fill: #dd8452; fill-opacity: 0.25; stroke: #dd8452"/>
    </g>
   </g>
   <g id="FillBetweenPolyCollection_3">
    <defs>
     <path id="m2eacef1e5b" d="M 93.342784 -56.4674 
L 93.342784 -47.39625 
L 102.289398 -47.39625 
L 102.289398 -47.39625 
L 111.236011 -47.39625 
L 111.236011 -47.39625 
L 120.182625 -47.39625 
L 120.182625 -47.39625 
L 129.129239 -47.39625 
L 129.129239 -47.39625 
L 138.075852 -47.39625 
L 138.075852 -47.39625 
L 147.022466 -47.39625 
L 147.022466 -47.39625 
L 155.96908 -47.39625 
L 155.96908 -47.39625 
L 164.915693 -47.39625 
L 164.915693 -47.39625 
L 173.862307 -47.39625 
L 173.862307 -47.39625 
L 182.80892 -47.39625 
L 182.80892 -47.39625 
L 191.755534 -47.39625 
L 191.755534 -47.39625 
L 200.702148 -47.39625 
L 200.702148 -47.39625 
L 209.648761 -47.39625 
L 209.648761 -47.39625 
L 218.595375 -47.39625 
L 218.595375 -47.39625 
L 227.541989 -47.39625 
L 227.541989 -47.39625 
L 236.488602 -47.39625 
L 236.488602 -47.39625 
L 245.435216 -47.39625 
L 245.435216 -47.39625 
L 254.38183 -47.39625 
L 254.38183 -47.39625 
L 263.328443 -47.39625 
L 263.328443 -47.39625 
L 272.275057 -47.39625 
L 272.275057 -47.39625 
L 281.22167 -47.39625 
L 281.22167 -47.39625 
L 290.168284 -47.39625 
L 290.168284 -47.39625 
L 299.114898 -47.39625 
L 299.114898 -47.39625 
L 308.061511 -47.39625 
L 308.061511 -47.39625 
L 317.008125 -47.39625 
L 317.008125 -47.39625 
L 325.954739 -47.39625 
L 325.954739 -47.39625 
L 334.901352 -47.39625 
L 334.901352 -47.39625 
L 343.847966 -47.39625 
L 343.847966 -47.39625 
L 352.79458 -47.39625 
L 352.79458 -47.39625 
L 361.741193 -47.39625 
L 361.741193 -47.39625 
L 370.687807 -47.39625 
L 370.687807 -47.39625 
L 379.63442 -47.39625 
L 379.63442 -47.39625 
L 388.581034 -47.39625 
L 388.581034 -47.39625 
L 397.527648 -47.39625 
L 397.527648 -47.39625 
L 406.474261 -47.39625 
L 406.474261 -47.39625 
L 415.420875 -47.39625 
L 415.420875 -47.39625 
L 424.367489 -47.39625 
L 424.367489 -47.39625 
L 433.314102 -47.39625 
L 433.314102 -47.39625 
L 442.260716 -47.39625 
L 442.260716 -47.39625 
L 451.20733 -47.39625 
L 451.20733 -47.39625 
L 460.153943 -47.39625 
L 460.153943 -47.39625 
L 469.100557 -47.39625 
L 469.100557 -47.39625 
L 478.04717 -47.39625 
L 478.04717 -47.39625 
L 486.993784 -47.39625 
L 486.993784 -47.39625 
L 495.940398 -47.39625 
L 495.940398 -47.39625 
L 504.887011 -47.39625 
L 504.887011 -47.39625 
L 513.833625 -47.39625 
L 513.833625 -47.39625 
L 522.780239 -47.39625 
L 522.780239 -47.39625 
L 531.726852 -47.39625 
L 531.726852 -47.39625 
L 540.673466 -47.39625 
L 540.673466 -47.39625 
L 540.673466 -47.648226 
L 540.673466 -47.648226 
L 540.673466 -47.648226 
L 531.726852 -47.648226 
L 531.726852 -47.39625 
L 522.780239 -47.39625 
L 522.780239 -47.39625 
L 513.833625 -47.39625 
L 513.833625 -47.39625 
L 504.887011 -47.39625 
L 504.887011 -47.39625 
L 495.940398 -47.39625 
L 495.940398 -47.39625 
L 486.993784 -47.39625 
L 486.993784 -47.39625 
L 478.04717 -47.39625 
L 478.04717 -47.39625 
L 469.100557 -47.39625 
L 469.100557 -47.39625 
L 460.153943 -47.39625 
L 460.153943 -47.39625 
L 451.20733 -47.39625 
L 451.20733 -47.39625 
L 442.260716 -47.39625 
L 442.260716 -47.39625 
L 433.314102 -47.39625 
L 433.314102 -47.39625 
L 424.367489 -47.39625 
L 424.367489 -47.39625 
L 415.420875 -47.39625 
L 415.420875 -47.39625 
L 406.474261 -47.39625 
L 406.474261 -47.39625 
L 397.527648 -47.39625 
L 397.527648 -47.39625 
L 388.581034 -47.39625 
L 388.581034 -47.39625 
L 379.63442 -47.39625 
L 379.63442 -47.39625 
L 370.687807 -47.39625 
L 370.687807 -47.39625 
L 361.741193 -47.39625 
L 361.741193 -47.39625 
L 352.79458 -47.39625 
L 352.79458 -47.648226 
L 343.847966 -47.648226 
L 343.847966 -47.39625 
L 334.901352 -47.39625 
L 334.901352 -47.39625 
L 325.954739 -47.39625 
L 325.954739 -47.39625 
L 317.008125 -47.39625 
L 317.008125 -47.648226 
L 308.061511 -47.648226 
L 308.061511 -47.39625 
L 299.114898 -47.39625 
L 299.114898 -47.648226 
L 290.168284 -47.648226 
L 290.168284 -47.39625 
L 281.22167 -47.39625 
L 281.22167 -47.648226 
L 272.275057 -47.648226 
L 272.275057 -48.404156 
L 263.328443 -48.404156 
L 263.328443 -47.39625 
L 254.38183 -47.39625 
L 254.38183 -48.656132 
L 245.435216 -48.656132 
L 245.435216 -48.152179 
L 236.488602 -48.152179 
L 236.488602 -48.152179 
L 227.541989 -48.152179 
L 227.541989 -48.152179 
L 218.595375 -48.152179 
L 218.595375 -48.152179 
L 209.648761 -48.152179 
L 209.648761 -48.152179 
L 200.702148 -48.152179 
L 200.702148 -48.404156 
L 191.755534 -48.404156 
L 191.755534 -49.664038 
L 182.80892 -49.664038 
L 182.80892 -48.656132 
L 173.862307 -48.656132 
L 173.862307 -50.16799 
L 164.915693 -50.16799 
L 164.915693 -53.191707 
L 155.96908 -53.191707 
L 155.96908 -58.231235 
L 147.022466 -58.231235 
L 147.022466 -55.459494 
L 138.075852 -55.459494 
L 138.075852 -57.475306 
L 129.129239 -57.475306 
L 129.129239 -62.514833 
L 120.182625 -62.514833 
L 120.182625 -57.979258 
L 111.236011 -57.979258 
L 111.236011 -60.750999 
L 102.289398 -60.750999 
L 102.289398 -56.4674 
L 93.342784 -56.4674 
z
" style="stroke: #4c72b0"/>
    </defs>
    <g clip-path="url(#p3754c4d6fb)">
     <use xlink:href="#m2eacef1e5b" x="0" y="360" style="fill: #4c72b0; fill-opacity: 0.25; stroke: #4c72b0"/>
    </g>
   </g>
   <g id="line2d_14">
    <path d="M 93.342784 156.898483 
L 95.590677 65.861008 
L 97.83857 53.303514 
L 100.086463 102.485962 
L 102.334356 161.998493 
L 104.582248 208.621782 
L 106.830141 236.938958 
L 109.078034 251.673525 
L 113.57382 270.869851 
L 115.821713 280.754278 
L 118.069606 288.762713 
L 120.317499 294.660143 
L 122.565391 298.814851 
L 124.813284 301.51418 
L 129.30907 304.844538 
L 131.556963 307.343267 
L 133.804856 309.556782 
L 136.052749 310.159291 
L 138.300642 309.544977 
L 140.548534 309.092074 
L 142.796427 309.50138 
L 145.04432 310.334939 
L 147.292213 310.752803 
L 151.787999 310.530536 
L 154.035892 310.715269 
L 156.283785 311.024166 
L 160.77957 311.918938 
L 163.027463 312.125737 
L 165.275356 312.002206 
L 169.771142 311.584293 
L 172.019035 311.548113 
L 174.266928 311.663937 
L 178.762713 312.144735 
L 181.010606 312.273902 
L 190.002178 312.164273 
L 192.250071 311.835879 
L 194.497963 311.732933 
L 201.241642 312.520236 
L 207.985321 312.300618 
L 212.481106 312.520718 
L 221.472678 312.415492 
L 223.720571 312.534985 
L 225.968464 312.540882 
L 230.464249 312.300059 
L 232.712142 312.321311 
L 237.207928 312.567147 
L 246.199499 312.60375 
L 540.673466 312.60375 
L 540.673466 312.60375 
" clip-path="url(#p3754c4d6fb)" style="fill: none; stroke: #55a868; stroke-width: 1.5; stroke-linecap: round"/>
   </g>
   <g id="line2d_15">
    <path d="M 93.342784 292.679519 
L 97.83857 286.433713 
L 100.086463 283.497322 
L 102.334356 280.842569 
L 104.582248 278.572578 
L 106.830141 276.767988 
L 109.078034 275.48089 
L 111.325927 274.732046 
L 113.57382 274.511599 
L 115.821713 274.782919 
L 118.069606 275.488788 
L 120.317499 276.558853 
L 122.565391 277.917196 
L 124.813284 279.48905 
L 129.30907 283.00898 
L 138.300642 290.278505 
L 142.796427 293.629348 
L 147.292213 296.676785 
L 151.787999 299.384116 
L 156.283785 301.730545 
L 160.77957 303.708871 
L 165.275356 305.327793 
L 169.771142 306.61342 
L 174.266928 307.607529 
L 178.762713 308.362943 
L 185.506392 309.176628 
L 194.497963 309.95958 
L 212.481106 311.275121 
L 219.224785 311.564037 
L 228.216356 311.699134 
L 270.926321 311.708822 
L 286.661571 311.688707 
L 297.901036 311.917535 
L 311.388393 312.198225 
L 320.379964 312.154262 
L 358.594143 311.381707 
L 367.585715 311.17347 
L 374.329393 311.276766 
L 383.320965 311.718567 
L 394.560429 312.245283 
L 403.552001 312.435597 
L 421.535144 312.525582 
L 506.955073 312.603742 
L 540.673466 312.60375 
L 540.673466 312.60375 
" clip-path="url(#p3754c4d6fb)" style="fill: none; stroke: #dd8452; stroke-width: 1.5; stroke-linecap: round"/>
   </g>
   <g id="line2d_16">
    <path d="M 93.342784 307.1944 
L 102.334356 303.817853 
L 106.830141 302.442602 
L 111.325927 301.459493 
L 115.821713 300.911132 
L 120.317499 300.773022 
L 124.813284 300.976254 
L 129.30907 301.426975 
L 138.300642 302.683447 
L 149.540106 304.435043 
L 156.283785 305.69128 
L 174.266928 309.377783 
L 178.762713 310.023646 
L 185.506392 310.697591 
L 192.250071 311.125678 
L 203.489535 311.570758 
L 214.728999 311.794623 
L 228.216356 311.831873 
L 252.943178 311.846331 
L 270.926321 312.155578 
L 291.157357 312.445158 
L 315.884179 312.519405 
L 468.740894 312.60375 
L 540.673466 312.535785 
L 540.673466 312.535785 
" clip-path="url(#p3754c4d6fb)" style="fill: none; stroke: #4c72b0; stroke-width: 1.5; stroke-linecap: round"/>
   </g>
   <g id="patch_3">
    <path d="M 70.97625 312.60375 
L 70.97625 27.65625 
" style="fill: none; stroke: #cccccc; stroke-width: 1.25; stroke-linejoin: miter; stroke-linecap: square"/>
   </g>
   <g id="patch_4">
    <path d="M 563.04 312.60375 
L 563.04 27.65625 
" style="fill: none; stroke: #cccccc; stroke-width: 1.25; stroke-linejoin: miter; stroke-linecap: square"/>
   </g>
   <g id="patch_5">
    <path d="M 70.97625 312.60375 
L 563.04 312.60375 
" style="fill: none; stroke: #cccccc; stroke-width: 1.25; stroke-linejoin: miter; stroke-linecap: square"/>
   </g>
   <g id="patch_6">
    <path d="M 70.97625 27.65625 
L 563.04 27.65625 
" style="fill: none; stroke: #cccccc; stroke-width: 1.25; stroke-linejoin: miter; stroke-linecap: square"/>
   </g>
   <g id="text_16">
    <!-- Sample Region Length Distribution (pos / neg / neg_pseudo) -->
    <g style="fill: #262626" transform="translate(155.916563 21.65625) scale(0.12 -0.12)">
     <defs>
      <path id="ArialMT-53" d="M 288 1472 
L 859 1522 
Q 900 1178 1048 958 
Q 1197 738 1509 602 
Q 1822 466 2213 466 
Q 2559 466 2825 569 
Q 3091 672 3220 851 
Q 3350 1031 3350 1244 
Q 3350 1459 3225 1620 
Q 3100 1781 2813 1891 
Q 2628 1963 1997 2114 
Q 1366 2266 1113 2400 
Q 784 2572 623 2826 
Q 463 3081 463 3397 
Q 463 3744 659 4045 
Q 856 4347 1234 4503 
Q 1613 4659 2075 4659 
Q 2584 4659 2973 4495 
Q 3363 4331 3572 4012 
Q 3781 3694 3797 3291 
L 3216 3247 
Q 3169 3681 2898 3903 
Q 2628 4125 2100 4125 
Q 1550 4125 1298 3923 
Q 1047 3722 1047 3438 
Q 1047 3191 1225 3031 
Q 1400 2872 2139 2705 
Q 2878 2538 3153 2413 
Q 3553 2228 3743 1945 
Q 3934 1663 3934 1294 
Q 3934 928 3725 604 
Q 3516 281 3123 101 
Q 2731 -78 2241 -78 
Q 1619 -78 1198 103 
Q 778 284 539 648 
Q 300 1013 288 1472 
z
" transform="scale(0.015625)"/>
      <path id="ArialMT-61" d="M 2588 409 
Q 2275 144 1986 34 
Q 1697 -75 1366 -75 
Q 819 -75 525 192 
Q 231 459 231 875 
Q 231 1119 342 1320 
Q 453 1522 633 1644 
Q 813 1766 1038 1828 
Q 1203 1872 1538 1913 
Q 2219 1994 2541 2106 
Q 2544 2222 2544 2253 
Q 2544 2597 2384 2738 
Q 2169 2928 1744 2928 
Q 1347 2928 1158 2789 
Q 969 2650 878 2297 
L 328 2372 
Q 403 2725 575 2942 
Q 747 3159 1072 3276 
Q 1397 3394 1825 3394 
Q 2250 3394 2515 3294 
Q 2781 3194 2906 3042 
Q 3031 2891 3081 2659 
Q 3109 2516 3109 2141 
L 3109 1391 
Q 3109 606 3145 398 
Q 3181 191 3288 0 
L 2700 0 
Q 2613 175 2588 409 
z
M 2541 1666 
Q 2234 1541 1622 1453 
Q 1275 1403 1131 1340 
Q 988 1278 909 1158 
Q 831 1038 831 891 
Q 831 666 1001 516 
Q 1172 366 1500 366 
Q 1825 366 2078 508 
Q 2331 650 2450 897 
Q 2541 1088 2541 1459 
L 2541 1666 
z
" transform="scale(0.015625)"/>
      <path id="ArialMT-6d" d="M 422 0 
L 422 3319 
L 925 3319 
L 925 2853 
Q 1081 3097 1340 3245 
Q 1600 3394 1931 3394 
Q 2300 3394 2536 3241 
Q 2772 3088 2869 2813 
Q 3263 3394 3894 3394 
Q 4388 3394 4653 3120 
Q 4919 2847 4919 2278 
L 4919 0 
L 4359 0 
L 4359 2091 
Q 4359 2428 4304 2576 
Q 4250 2725 4106 2815 
Q 3963 2906 3769 2906 
Q 3419 2906 3187 2673 
Q 2956 2441 2956 1928 
L 2956 0 
L 2394 0 
L 2394 2156 
Q 2394 2531 2256 2718 
Q 2119 2906 1806 2906 
Q 1569 2906 1367 2781 
Q 1166 2656 1075 2415 
Q 984 2175 984 1722 
L 984 0 
L 422 0 
z
" transform="scale(0.015625)"/>
      <path id="ArialMT-70" d="M 422 -1272 
L 422 3319 
L 934 3319 
L 934 2888 
Q 1116 3141 1344 3267 
Q 1572 3394 1897 3394 
Q 2322 3394 2647 3175 
Q 2972 2956 3137 2557 
Q 3303 2159 3303 1684 
Q 3303 1175 3120 767 
Q 2938 359 2589 142 
Q 2241 -75 1856 -75 
Q 1575 -75 1351 44 
Q 1128 163 984 344 
L 984 -1272 
L 422 -1272 
z
M 931 1641 
Q 931 1000 1190 694 
Q 1450 388 1819 388 
Q 2194 388 2461 705 
Q 2728 1022 2728 1688 
Q 2728 2322 2467 2637 
Q 2206 2953 1844 2953 
Q 1484 2953 1207 2617 
Q 931 2281 931 1641 
z
" transform="scale(0.015625)"/>
      <path id="ArialMT-6c" d="M 409 0 
L 409 4581 
L 972 4581 
L 972 0 
L 409 0 
z
" transform="scale(0.015625)"/>
      <path id="ArialMT-72" d="M 416 0 
L 416 3319 
L 922 3319 
L 922 2816 
Q 1116 3169 1280 3281 
Q 1444 3394 1641 3394 
Q 1925 3394 2219 3213 
L 2025 2691 
Q 1819 2813 1613 2813 
Q 1428 2813 1281 2702 
Q 1134 2591 1072 2394 
Q 978 2094 978 1738 
L 978 0 
L 416 0 
z
" transform="scale(0.015625)"/>
      <path id="ArialMT-62" d="M 941 0 
L 419 0 
L 419 4581 
L 981 4581 
L 981 2947 
Q 1338 3394 1891 3394 
Q 2197 3394 2470 3270 
Q 2744 3147 2920 2923 
Q 3097 2700 3197 2384 
Q 3297 2069 3297 1709 
Q 3297 856 2875 390 
Q 2453 -75 1863 -75 
Q 1275 -75 941 416 
L 941 0 
z
M 934 1684 
Q 934 1088 1097 822 
Q 1363 388 1816 388 
Q 2184 388 2453 708 
Q 2722 1028 2722 1663 
Q 2722 2313 2464 2622 
Q 2206 2931 1841 2931 
Q 1472 2931 1203 2611 
Q 934 2291 934 1684 
z
" transform="scale(0.015625)"/>
      <path id="ArialMT-75" d="M 2597 0 
L 2597 488 
Q 2209 -75 1544 -75 
Q 1250 -75 995 37 
Q 741 150 617 320 
Q 494 491 444 738 
Q 409 903 409 1263 
L 409 3319 
L 972 3319 
L 972 1478 
Q 972 1038 1006 884 
Q 1059 663 1231 536 
Q 1403 409 1656 409 
Q 1909 409 2131 539 
Q 2353 669 2445 892 
Q 2538 1116 2538 1541 
L 2538 3319 
L 3100 3319 
L 3100 0 
L 2597 0 
z
" transform="scale(0.015625)"/>
      <path id="ArialMT-28" d="M 1497 -1347 
Q 1031 -759 709 28 
Q 388 816 388 1659 
Q 388 2403 628 3084 
Q 909 3875 1497 4659 
L 1900 4659 
Q 1522 4009 1400 3731 
Q 1209 3300 1100 2831 
Q 966 2247 966 1656 
Q 966 153 1900 -1347 
L 1497 -1347 
z
" transform="scale(0.015625)"/>
      <path id="ArialMT-2f" d="M 0 -78 
L 1328 4659 
L 1778 4659 
L 453 -78 
L 0 -78 
z
" transform="scale(0.015625)"/>
      <path id="ArialMT-5f" d="M -97 -1272 
L -97 -866 
L 3631 -866 
L 3631 -1272 
L -97 -1272 
z
" transform="scale(0.015625)"/>
      <path id="ArialMT-64" d="M 2575 0 
L 2575 419 
Q 2259 -75 1647 -75 
Q 1250 -75 917 144 
Q 584 363 401 755 
Q 219 1147 219 1656 
Q 219 2153 384 2558 
Q 550 2963 881 3178 
Q 1213 3394 1622 3394 
Q 1922 3394 2156 3267 
Q 2391 3141 2538 2938 
L 2538 4581 
L 3097 4581 
L 3097 0 
L 2575 0 
z
M 797 1656 
Q 797 1019 1065 703 
Q 1334 388 1700 388 
Q 2069 388 2326 689 
Q 2584 991 2584 1609 
Q 2584 2291 2321 2609 
Q 2059 2928 1675 2928 
Q 1300 2928 1048 2622 
Q 797 2316 797 1656 
z
" transform="scale(0.015625)"/>
      <path id="ArialMT-29" d="M 791 -1347 
L 388 -1347 
Q 1322 153 1322 1656 
Q 1322 2244 1188 2822 
Q 1081 3291 891 3722 
Q 769 4003 388 4659 
L 791 4659 
Q 1378 3875 1659 3084 
Q 1900 2403 1900 1659 
Q 1900 816 1576 28 
Q 1253 -759 791 -1347 
z
" transform="scale(0.015625)"/>
     </defs>
     <use xlink:href="#ArialMT-53"/>
     <use xlink:href="#ArialMT-61" transform="translate(66.699219 0)"/>
     <use xlink:href="#ArialMT-6d" transform="translate(122.314453 0)"/>
     <use xlink:href="#ArialMT-70" transform="translate(205.615234 0)"/>
     <use xlink:href="#ArialMT-6c" transform="translate(261.230469 0)"/>
     <use xlink:href="#ArialMT-65" transform="translate(283.447266 0)"/>
     <use xlink:href="#ArialMT-20" transform="translate(339.0625 0)"/>
     <use xlink:href="#ArialMT-52" transform="translate(366.845703 0)"/>
     <use xlink:href="#ArialMT-65" transform="translate(439.0625 0)"/>
     <use xlink:href="#ArialMT-67" transform="translate(494.677734 0)"/>
     <use xlink:href="#ArialMT-69" transform="translate(550.292969 0)"/>
     <use xlink:href="#ArialMT-6f" transform="translate(572.509766 0)"/>
     <use xlink:href="#ArialMT-6e" transform="translate(628.125 0)"/>
     <use xlink:href="#ArialMT-20" transform="translate(683.740234 0)"/>
     <use xlink:href="#ArialMT-4c" transform="translate(711.523438 0)"/>
     <use xlink:href="#ArialMT-65" transform="translate(767.138672 0)"/>
     <use xlink:href="#ArialMT-6e" transform="translate(822.753906 0)"/>
     <use xlink:href="#ArialMT-67" transform="translate(878.369141 0)"/>
     <use xlink:href="#ArialMT-74" transform="translate(933.984375 0)"/>
     <use xlink:href="#ArialMT-68" transform="translate(961.767578 0)"/>
     <use xlink:href="#ArialMT-20" transform="translate(1017.382812 0)"/>
     <use xlink:href="#ArialMT-44" transform="translate(1045.166016 0)"/>
     <use xlink:href="#ArialMT-69" transform="translate(1117.382812 0)"/>
     <use xlink:href="#ArialMT-73" transform="translate(1139.599609 0)"/>
     <use xlink:href="#ArialMT-74" transform="translate(1189.599609 0)"/>
     <use xlink:href="#ArialMT-72" transform="translate(1217.382812 0)"/>
     <use xlink:href="#ArialMT-69" transform="translate(1250.683594 0)"/>
     <use xlink:href="#ArialMT-62" transform="translate(1272.900391 0)"/>
     <use xlink:href="#ArialMT-75" transform="translate(1328.515625 0)"/>
     <use xlink:href="#ArialMT-74" transform="translate(1384.130859 0)"/>
     <use xlink:href="#ArialMT-69" transform="translate(1411.914062 0)"/>
     <use xlink:href="#ArialMT-6f" transform="translate(1434.130859 0)"/>
     <use xlink:href="#ArialMT-6e" transform="translate(1489.746094 0)"/>
     <use xlink:href="#ArialMT-20" transform="translate(1545.361328 0)"/>
     <use xlink:href="#ArialMT-28" transform="translate(1573.144531 0)"/>
     <use xlink:href="#ArialMT-70" transform="translate(1606.445312 0)"/>
     <use xlink:href="#ArialMT-6f" transform="translate(1662.060547 0)"/>
     <use xlink:href="#ArialMT-73" transform="translate(1717.675781 0)"/>
     <use xlink:href="#ArialMT-20" transform="translate(1767.675781 0)"/>
     <use xlink:href="#ArialMT-2f" transform="translate(1795.458984 0)"/>
     <use xlink:href="#ArialMT-20" transform="translate(1823.242188 0)"/>
     <use xlink:href="#ArialMT-6e" transform="translate(1851.025391 0)"/>
     <use xlink:href="#ArialMT-65" transform="translate(1906.640625 0)"/>
     <use xlink:href="#ArialMT-67" transform="translate(1962.255859 0)"/>
     <use xlink:href="#ArialMT-20" transform="translate(2017.871094 0)"/>
     <use xlink:href="#ArialMT-2f" transform="translate(2045.654297 0)"/>
     <use xlink:href="#ArialMT-20" transform="translate(2073.4375 0)"/>
     <use xlink:href="#ArialMT-6e" transform="translate(2101.220703 0)"/>
     <use xlink:href="#ArialMT-65" transform="translate(2156.835938 0)"/>
     <use xlink:href="#ArialMT-67" transform="translate(2212.451172 0)"/>
     <use xlink:href="#ArialMT-5f" transform="translate(2268.066406 0)"/>
     <use xlink:href="#ArialMT-70" transform="translate(2323.681641 0)"/>
     <use xlink:href="#ArialMT-73" transform="translate(2379.296875 0)"/>
     <use xlink:href="#ArialMT-65" transform="translate(2429.296875 0)"/>
     <use xlink:href="#ArialMT-75" transform="translate(2484.912109 0)"/>
     <use xlink:href="#ArialMT-64" transform="translate(2540.527344 0)"/>
     <use xlink:href="#ArialMT-6f" transform="translate(2596.142578 0)"/>
     <use xlink:href="#ArialMT-29" transform="translate(2651.757812 0)"/>
    </g>
   </g>
   <g id="legend_1">
    <g id="patch_7">
     <path d="M 459.586719 100.008594 
L 555.34 100.008594 
Q 557.54 100.008594 557.54 97.808594 
L 557.54 35.35625 
Q 557.54 33.15625 555.34 33.15625 
L 459.586719 33.15625 
Q 457.386719 33.15625 457.386719 35.35625 
L 457.386719 97.808594 
Q 457.386719 100.008594 459.586719 100.008594 
z
" style="fill: #ffffff; opacity: 0.8; stroke: #cccccc; stroke-linejoin: miter"/>
    </g>
    <g id="text_17">
     <!-- group -->
     <g style="fill: #262626" transform="translate(492.119297 46.145625) scale(0.12 -0.12)">
      <use xlink:href="#ArialMT-67"/>
      <use xlink:href="#ArialMT-72" transform="translate(55.615234 0)"/>
      <use xlink:href="#ArialMT-6f" transform="translate(88.916016 0)"/>
      <use xlink:href="#ArialMT-75" transform="translate(144.53125 0)"/>
      <use xlink:href="#ArialMT-70" transform="translate(200.146484 0)"/>
     </g>
    </g>
    <g id="patch_8">
     <path d="M 461.786719 62.044844 
L 483.786719 62.044844 
L 483.786719 54.344844 
L 461.786719 54.344844 
z
" style="fill: #4c72b0; fill-opacity: 0.25; stroke: #4c72b0; stroke-linejoin: miter"/>
    </g>
    <g id="text_18">
     <!-- pos -->
     <g style="fill: #262626" transform="translate(492.586719 62.044844) scale(0.11 -0.11)">
      <use xlink:href="#ArialMT-70"/>
      <use xlink:href="#ArialMT-6f" transform="translate(55.615234 0)"/>
      <use xlink:href="#ArialMT-73" transform="translate(111.230469 0)"/>
     </g>
    </g>
    <g id="patch_9">
     <path d="M 461.786719 77.604687 
L 483.786719 77.604687 
L 483.786719 69.904687 
L 461.786719 69.904687 
z
" style="fill: #dd8452; fill-opacity: 0.25; stroke: #dd8452; stroke-linejoin: miter"/>
    </g>
    <g id="text_19">
     <!-- neg -->
     <g style="fill: #262626" transform="translate(492.586719 77.604687) scale(0.11 -0.11)">
      <use xlink:href="#ArialMT-6e"/>
      <use xlink:href="#ArialMT-65" transform="translate(55.615234 0)"/>
      <use xlink:href="#ArialMT-67" transform="translate(111.230469 0)"/>
     </g>
    </g>
    <g id="patch_10">
     <path d="M 461.786719 93.293437 
L 483.786719 93.293437 
L 483.786719 85.593437 
L 461.786719 85.593437 
z
" style="fill: #55a868; fill-opacity: 0.25; stroke: #55a868; stroke-linejoin: miter"/>
    </g>
    <g id="text_20">
     <!-- neg_pseudo -->
     <g style="fill: #262626" transform="translate(492.586719 93.293437) scale(0.11 -0.11)">
      <use xlink:href="#ArialMT-6e"/>
      <use xlink:href="#ArialMT-65" transform="translate(55.615234 0)"/>
      <use xlink:href="#ArialMT-67" transform="translate(111.230469 0)"/>
      <use xlink:href="#ArialMT-5f" transform="translate(166.845703 0)"/>
      <use xlink:href="#ArialMT-70" transform="translate(222.460938 0)"/>
      <use xlink:href="#ArialMT-73" transform="translate(278.076172 0)"/>
      <use xlink:href="#ArialMT-65" transform="translate(328.076172 0)"/>
      <use xlink:href="#ArialMT-75" transform="translate(383.691406 0)"/>
      <use xlink:href="#ArialMT-64" transform="translate(439.306641 0)"/>
      <use xlink:href="#ArialMT-6f" transform="translate(494.921875 0)"/>
     </g>
    </g>
   </g>
  </g>
 </g>
 <defs>
  <clipPath id="p3754c4d6fb">
   <rect x="70.97625" y="27.65625" width="492.06375" height="284.9475"/>
  </clipPath>
 </defs>
</svg>
